<?xml version="1.0" standalone="no"?>
<!DOCTYPE svg PUBLIC "-//W3C//DTD SVG 20010904//EN"
 "http://www.w3.org/TR/2001/REC-SVG-20010904/DTD/svg10.dtd">
<svg version="1.0" xmlns="http://www.w3.org/2000/svg"
 width="512.000000pt" height="512.000000pt" viewBox="0 0 512.000000 512.000000"
 preserveAspectRatio="xMidYMid meet">
<metadata>
Created by potrace 1.11, written by Peter Selinger 2001-2013
</metadata>
<g transform="translate(0.000000,512.000000) scale(0.100000,-0.100000)"
fill="#000000" stroke="none">
<path d="M1549 4246 c-2 -2 -31 -6 -64 -9 -162 -14 -370 -78 -550 -167 -374
-188 -673 -520 -819 -912 -42 -112 -81 -267 -93 -366 -10 -86 -10 -348 0 -432
30 -242 126 -509 260 -716 100 -156 271 -343 387 -424 19 -13 37 -27 40 -30
15 -19 165 -107 253 -149 113 -54 217 -89 364 -123 96 -21 113 -22 942 -25
551 -3 847 -1 854 6 11 11 -9 71 -24 71 -5 0 -9 5 -9 10 0 6 -31 58 -70 116
-38 59 -70 109 -70 111 0 2 -23 38 -50 79 l-51 74 68 79 c227 263 373 551 419
831 3 19 8 38 10 41 6 11 18 180 18 269 0 132 -11 220 -50 407 -8 42 -72 218
-102 286 -127 278 -357 543 -617 710 -157 100 -360 187 -520 221 -47 10 -126
26 -155 31 -43 8 -364 17 -371 11z m271 -800 c73 -12 92 -17 162 -42 410 -146
650 -562 574 -994 -48 -269 -233 -512 -482 -632 -45 -22 -88 -40 -95 -42 -8
-1 -18 -4 -24 -8 -13 -7 -56 -17 -152 -33 -120 -20 -299 1 -427 49 -167 63
-318 182 -419 330 -57 83 -119 225 -134 306 -58 312 22 590 232 804 146 151
318 237 521 264 64 9 188 8 244 -2z"/>
<path d="M3341 4122 c-6 -10 -6 -23 -2 -28 5 -5 82 -144 171 -309 89 -165 175
-322 190 -350 15 -27 43 -79 62 -115 20 -36 47 -85 60 -110 14 -25 44 -81 68
-125 24 -44 65 -119 92 -168 26 -48 48 -89 48 -91 0 -3 15 -31 34 -63 18 -32
55 -98 81 -148 26 -49 51 -94 55 -100 14 -19 -1 -67 -42 -139 -22 -39 -52 -91
-66 -116 -120 -214 -224 -399 -330 -585 -69 -121 -136 -240 -150 -265 -14 -25
-81 -143 -149 -263 -67 -119 -123 -226 -123 -237 0 -20 8 -20 428 -20 358 0
431 2 448 15 19 13 65 89 229 380 34 61 101 180 150 265 48 85 99 175 113 200
14 25 84 148 155 275 71 126 141 250 155 275 14 25 35 61 47 80 51 83 53 113
12 183 -14 23 -44 78 -67 122 -23 44 -54 100 -68 125 -38 69 -62 113 -312 575
-128 237 -247 457 -265 490 -18 33 -52 96 -75 140 -71 133 -14 120 -510 123
-411 2 -429 2 -439 -16z"/>
</g>
</svg>
