<?xml version="1.0" standalone="no"?>
<!DOCTYPE svg PUBLIC "-//W3C//DTD SVG 20010904//EN"
 "http://www.w3.org/TR/2001/REC-SVG-20010904/DTD/svg10.dtd">
<svg version="1.0" xmlns="http://www.w3.org/2000/svg"
 width="16.000000pt" height="16.000000pt" viewBox="0 0 16.000000 16.000000"
 preserveAspectRatio="xMidYMid meet">
<metadata>
Created by potrace 1.11, written by Peter Selinger 2001-2013
</metadata>
<g transform="translate(0.000000,16.000000) scale(0.010458,-0.010458)"
fill="#000000" stroke="none">
<path d="M375 1263 c-180 -51 -314 -190 -361 -376 -19 -72 -14 -206 10 -273
59 -168 183 -291 342 -339 34 -10 115 -14 311 -15 l264 -1 -15 28 c-8 15 -28
48 -45 72 l-30 44 34 39 c241 282 101 728 -257 821 -72 19 -188 19 -253 0z
m243 -252 c130 -66 183 -220 124 -354 -73 -163 -296 -203 -423 -76 -55 55 -72
94 -75 176 -4 89 15 139 73 199 80 83 203 105 301 55z"/>
<path d="M1005 1229 c3 -10 27 -57 54 -106 55 -102 168 -316 188 -355 15 -30
18 -23 -109 -248 -91 -161 -138 -247 -138 -254 0 -3 58 -6 129 -6 l130 0 19
28 c10 15 72 123 137 240 l118 214 -26 51 c-15 29 -46 88 -70 132 -24 44 -71
133 -106 198 -34 64 -66 118 -69 118 -4 1 -64 3 -135 4 -117 1 -127 0 -122
-16z"/>
</g>
</svg>
