<?xml version="1.0" standalone="no"?>
<!DOCTYPE svg PUBLIC "-//W3C//DTD SVG 20010904//EN"
 "http://www.w3.org/TR/2001/REC-SVG-20010904/DTD/svg10.dtd">
<svg version="1.0" xmlns="http://www.w3.org/2000/svg"
 width="745.000000pt" height="745.000000pt" viewBox="0 0 745.000000 745.000000"
 preserveAspectRatio="xMidYMid meet">
<metadata>
Created by potrace 1.11, written by Peter Selinger 2001-2013
</metadata>
<g transform="translate(0.000000,745.000000) scale(0.100000,-0.100000)"
fill="#000000" stroke="none">
<path d="M4322 7175 c-168 -38 -311 -153 -386 -310 -45 -93 -60 -162 -58 -267
l1 -88 -67 -39 c-53 -31 -391 -221 -592 -334 -19 -10 -116 -65 -215 -122 -99
-56 -200 -113 -224 -126 -24 -13 -51 -28 -60 -34 -14 -9 -96 -55 -189 -107
-33 -18 -34 -18 -120 11 -219 75 -438 26 -597 -133 -120 -120 -177 -265 -169
-431 4 -93 5 -101 32 -178 61 -171 219 -314 404 -363 51 -13 218 -14 271 0 42
10 127 45 150 61 19 13 26 11 76 -17 31 -18 67 -39 81 -48 14 -9 52 -33 85
-52 62 -36 342 -203 1028 -612 l397 -237 -2 -990 -3 -990 -27 -16 c-26 -16
-28 -15 -125 43 -54 32 -102 61 -108 63 -5 2 -40 24 -78 48 -37 23 -69 43 -72
43 -3 0 -53 29 -111 65 -59 36 -107 65 -109 65 -2 0 -390 230 -455 269 -28 18
-325 195 -450 269 -69 40 -158 94 -198 118 -41 24 -78 44 -83 44 -5 0 -9 3 -9
8 0 4 -33 23 -72 42 -59 28 -84 34 -133 34 -177 -2 -297 -173 -240 -344 25
-76 80 -125 250 -224 83 -48 171 -100 197 -116 25 -16 68 -40 95 -55 26 -15
55 -33 63 -40 9 -8 24 -18 35 -22 11 -4 121 -68 245 -142 338 -202 662 -394
885 -526 110 -65 202 -120 204 -121 2 -2 6 -23 8 -46 33 -352 342 -595 678
-531 269 50 473 289 473 553 l0 64 148 84 c82 46 169 95 194 109 25 14 95 53
155 88 61 34 130 73 155 87 277 157 504 286 552 314 33 19 62 34 64 34 3 0 19
10 36 21 l30 22 71 -35 c239 -118 519 -62 696 139 52 58 115 187 131 265 45
223 -63 478 -252 597 l-55 35 0 832 1 832 28 17 c46 27 135 122 168 179 90
158 104 338 38 506 -83 213 -296 362 -517 363 -122 1 -183 -13 -287 -66 l-50
-25 -49 30 c-27 17 -66 40 -86 52 -20 11 -96 57 -168 101 -73 44 -145 88 -162
98 -16 9 -42 25 -59 35 -16 9 -55 33 -87 53 -32 20 -203 122 -379 228 l-322
193 3 83 c9 260 -136 479 -380 571 -87 33 -228 41 -323 19z m-127 -1582 c-3
-274 -8 -653 -10 -843 -2 -190 -4 -357 -4 -372 l-1 -28 -106 65 c-58 36 -107
65 -109 65 -2 0 -24 14 -48 30 -25 17 -48 30 -52 30 -3 0 -25 13 -48 29 -23
15 -46 30 -52 32 -5 2 -89 51 -185 109 -96 58 -179 107 -185 110 -5 3 -143 85
-305 182 l-295 176 -1 59 -2 59 116 64 c64 36 142 79 174 97 32 18 89 50 126
71 37 22 92 53 122 70 30 17 237 134 460 260 223 127 406 231 408 231 1 1 0
-223 -3 -496z m605 431 c36 -21 77 -46 92 -54 15 -8 287 -172 606 -364 l580
-350 -2 -64 -1 -64 -45 -26 c-25 -14 -63 -35 -85 -48 -45 -25 -228 -128 -290
-164 -34 -19 -152 -85 -330 -185 -22 -13 -168 -95 -324 -184 -156 -89 -287
-161 -291 -161 -3 0 -5 84 -4 188 11 998 16 1453 15 1485 -1 21 2 37 6 34 4
-2 37 -21 73 -43z m1614 -1320 c14 -6 16 -87 16 -819 l0 -813 -47 -31 c-159
-102 -256 -269 -267 -455 -2 -31 -5 -58 -7 -60 -4 -4 -226 -128 -319 -179 -30
-17 -67 -38 -82 -49 -14 -10 -28 -18 -31 -18 -4 0 -108 -59 -552 -310 -110
-62 -216 -122 -235 -132 -19 -11 -58 -33 -86 -49 -49 -28 -52 -28 -83 -13
l-31 15 0 977 0 977 123 69 c67 38 221 125 342 194 121 68 240 136 265 150
175 99 524 295 565 317 28 16 92 52 142 82 51 29 94 53 96 53 2 0 42 22 88 50
46 27 85 50 86 50 1 0 8 -3 17 -6z"/>
<path d="M619 2516 c-144 -42 -261 -133 -338 -263 -88 -150 -104 -339 -42
-498 93 -238 312 -382 566 -370 96 4 152 18 231 58 l49 25 155 -95 c85 -52
281 -172 435 -265 154 -94 372 -227 485 -296 113 -69 306 -187 430 -262 124
-75 245 -149 270 -165 88 -56 170 -68 254 -38 189 68 229 326 69 448 -26 21
-273 174 -548 341 -275 166 -513 312 -530 322 -16 11 -192 118 -390 238 l-360
219 -1 50 c-3 165 -58 291 -178 410 -149 147 -355 199 -557 141z"/>
</g>
</svg>
