<?xml version="1.0" encoding="UTF-8"?>
<svg width="139px" height="89px" viewBox="0 0 139 89" version="1.1" xmlns="http://www.w3.org/2000/svg" xmlns:xlink="http://www.w3.org/1999/xlink">
    <!-- Generator: Sketch 43.2 (39069) - http://www.bohemiancoding.com/sketch -->
    <title>Illustration</title>
    <desc>Created with Sketch.</desc>
    <defs>
        <path d="M115.178912,70.9921566 C115.340112,71.6014221 116.145244,71.7340219 116.493643,71.2096895 L121.028901,64.3743022 C121.304501,63.9591696 121.9051,63.9357696 122.211899,64.3283689 L128.315821,72.1404878 C128.563688,72.4576872 129.022153,72.5140204 129.340219,72.2661542 L131.306682,70.7295571 C131.621282,70.4842909 131.679348,70.031025 131.439282,69.7138256 L125.432427,61.7925069 C125.134294,61.3981743 125.305027,60.8287754 125.770426,60.6632424 L133.514945,57.9115808 C134.107744,57.7001145 134.17361,56.8871827 133.621545,56.5838499 L109.08279,43.0924749 C108.520325,42.7830755 107.861659,43.2987412 108.025459,43.9184067 L115.178912,70.9921566 Z" id="path-1"></path>
        <filter x="-25.0%" y="-15.3%" width="157.7%" height="151.0%" filterUnits="objectBoundingBox" id="filter-2">
            <feOffset dx="1" dy="3" in="SourceAlpha" result="shadowOffsetOuter1"></feOffset>
            <feGaussianBlur stdDeviation="2" in="shadowOffsetOuter1" result="shadowBlurOuter1"></feGaussianBlur>
            <feColorMatrix values="0 0 0 0 0   0 0 0 0 0   0 0 0 0 0  0 0 0 0.4 0" type="matrix" in="shadowBlurOuter1"></feColorMatrix>
        </filter>
    </defs>
    <g id="Large" stroke="none" stroke-width="1" fill="none" fill-rule="evenodd">
        <g id="Dialog" transform="translate(-431.000000, -214.000000)">
            <g id="Group-6" transform="translate(410.000000, 196.000000)">
                <g id="Illustration" transform="translate(21.000000, 19.000000)">
                    <g id="Page-1">
                        <path d="M28,30.5679 L2,30.5679 C0.896,30.5679 0,29.6719 0,28.5679 L0,22.5679 C0,21.4639 0.896,20.5679 2,20.5679 L28,20.5679 C29.104,20.5679 30,21.4639 30,22.5679 L30,28.5679 C30,29.6719 29.104,30.5679 28,30.5679" id="Fill-1" fill="#FFFFFF"></path>
                        <path d="M28,48.5679 L2,48.5679 C0.896,48.5679 0,47.6719 0,46.5679 L0,40.5679 C0,39.4639 0.896,38.5679 2,38.5679 L28,38.5679 C29.104,38.5679 30,39.4639 30,40.5679 L30,46.5679 C30,47.6719 29.104,48.5679 28,48.5679" id="Fill-3" fill="#B192D0"></path>
                        <path d="M28,66.5679 L2,66.5679 C0.896,66.5679 0,65.6719 0,64.5679 L0,58.5679 C0,57.4639 0.896,56.5679 2,56.5679 L28,56.5679 C29.104,56.5679 30,57.4639 30,58.5679 L30,64.5679 C30,65.6719 29.104,66.5679 28,66.5679" id="Fill-5" fill="#B192D0"></path>
                        <path d="M43,20.5679 L43,86.5679" id="Stroke-7" stroke="#B192D0" stroke-width="2" stroke-linecap="round"></path>
                        <path d="M16.9736,20.188 C41.4996,-12.932 91.1316,-1.432 91.1316,33.618" id="Stroke-9" stroke="#FFFFFF" stroke-width="3" stroke-linecap="round" stroke-linejoin="round" stroke-dasharray="0,7"></path>
                    </g>
                    <g id="Page-1" transform="translate(56.000000, 28.000000)">
                        <path d="M4.67532468,21 C2.60976623,21 0.935064935,19.209 0.935064935,17 L0.935064935,5 C0.935064935,2.791 2.60976623,1 4.67532468,1 L67.3246753,1 C69.3902338,1 71.0649351,2.791 71.0649351,5 L71.0649351,17 C71.0649351,19.209 69.3902338,21 67.3246753,21 L4.67532468,21 Z" id="Fill-1" fill="#74489D"></path>
                        <path d="M4.67532468,2 C3.12872727,2 1.87012987,3.346 1.87012987,5 L1.87012987,17 C1.87012987,18.654 3.12872727,20 4.67532468,20 L67.3246753,20 C68.8712727,20 70.1298701,18.654 70.1298701,17 L70.1298701,5 C70.1298701,3.346 68.8712727,2 67.3246753,2 L4.67532468,2 Z M67.3246753,22 L4.67532468,22 C2.09735065,22 0,19.757 0,17 L0,5 C0,2.243 2.09735065,0 4.67532468,0 L67.3246753,0 C69.9026494,0 72,2.243 72,5 L72,17 C72,19.757 69.9026494,22 67.3246753,22 L67.3246753,22 Z" id="Fill-3" fill="#FFFFFF"></path>
                    </g>
                    <g id="Fill-1">
                        <use fill="black" fill-opacity="1" filter="url(#filter-2)" xlink:href="#path-1"></use>
                        <use fill="#FFFFFF" fill-rule="evenodd" xlink:href="#path-1"></use>
                    </g>
                </g>
            </g>
        </g>
    </g>
</svg>