<svg width="93" height="63" viewBox="0 0 93 63" xmlns="http://www.w3.org/2000/svg">
    <path d="M76.643 61.412c-.212.379-.74.69-1.17.69H60.494c-.432 0-.61-.311-.398-.69l15.718-28.055c.212-.378.217-1.002.012-1.385L60.084 2.696c-.206-.383-.02-.696.411-.696h14.977c.432 0 .954.313 1.16.696l15.741 29.276c.207.383.2 1.007-.012 1.385L76.643 61.412zm-24.568-8.01s4.978 7.882 5.133 8.123c.154.242-.039.643-.341.643H29.249C12.879 61.918 0 47.662 0 31.043 0 13.926 13.802 0 30.767 0s30.767 13.926 30.767 31.043c0 9.294-3.886 16.388-9.46 22.36zm-21.308-5.97c8.961 0 16.227-7.331 16.227-16.373 0-9.043-7.266-16.373-16.227-16.373-8.962 0-16.227 7.33-16.227 16.373 0 9.042 7.265 16.372 16.227 16.372z" fill="#E5E5E5" fill-rule="evenodd"/>
</svg>
