<?xml version="1.0" encoding="utf-8"?>
<!-- Generator: Adobe Illustrator 21.0.2, SVG Export Plug-In . SVG Version: 6.00 Build 0)  -->
<svg version="1.0" id="Layer_1" xmlns="http://www.w3.org/2000/svg" xmlns:xlink="http://www.w3.org/1999/xlink" x="0px" y="0px"
	 viewBox="0 0 355 573" style="enable-background:new 0 0 355 573;" xml:space="preserve">
<style type="text/css">
	.st0{clip-path:url(#SVGID_2_);}
	.st1{clip-path:url(#SVGID_4_);fill:#E5E5E5;}
	.st2{clip-path:url(#SVGID_6_);}
	.st3{clip-path:url(#SVGID_8_);fill:#7CBE42;}
	.st4{clip-path:url(#SVGID_10_);}
	.st5{clip-path:url(#SVGID_12_);fill:#49C8F5;}
	.st6{clip-path:url(#SVGID_14_);}
	.st7{clip-path:url(#SVGID_16_);fill:#F36E5D;}
	.st8{clip-path:url(#SVGID_18_);}
	.st9{clip-path:url(#SVGID_20_);fill:#F3C118;}
	.st10{clip-path:url(#SVGID_22_);}
	.st11{clip-path:url(#SVGID_24_);fill:#FFFFFF;}
	.st12{clip-path:url(#SVGID_26_);}
	.st13{clip-path:url(#SVGID_28_);fill:#FFFFFF;}
	.st14{clip-path:url(#SVGID_30_);}
	.st15{clip-path:url(#SVGID_32_);fill:#FFFFFF;}
	.st16{clip-path:url(#SVGID_34_);}
	.st17{clip-path:url(#SVGID_36_);fill:#414141;}
	.st18{clip-path:url(#SVGID_38_);}
	.st19{clip-path:url(#SVGID_40_);fill:#414141;}
	.st20{clip-path:url(#SVGID_42_);}
	.st21{clip-path:url(#SVGID_44_);fill:#3F4346;}
	.st22{clip-path:url(#SVGID_46_);}
	.st23{clip-path:url(#SVGID_48_);fill:#B81E71;}
	.st24{clip-path:url(#SVGID_50_);}
	.st25{clip-path:url(#SVGID_52_);fill:#FFFFFF;}
	.st26{clip-path:url(#SVGID_54_);}
	.st27{clip-path:url(#SVGID_56_);fill:#FFFFFF;}
	.st28{clip-path:url(#SVGID_58_);}
	.st29{clip-path:url(#SVGID_60_);fill:#3F4346;}
	.st30{clip-path:url(#SVGID_62_);}
	.st31{clip-path:url(#SVGID_64_);fill:#3F4346;}
	.st32{clip-path:url(#SVGID_66_);}
	.st33{opacity:0.7;clip-path:url(#SVGID_68_);fill:#E5E5E5;}
</style>
<g>
	<defs>
		<path id="SVGID_1_" d="M0,0h355v573H0V0z M1,572h353V1H1V572z"/>
	</defs>
	<clipPath id="SVGID_2_">
		<use xlink:href="#SVGID_1_"  style="overflow:visible;"/>
	</clipPath>
	<g class="st0">
		<defs>
			<rect id="SVGID_3_" width="355" height="573"/>
		</defs>
		<clipPath id="SVGID_4_">
			<use xlink:href="#SVGID_3_"  style="overflow:visible;"/>
		</clipPath>
		<rect x="-5" y="-5" class="st1" width="365" height="583"/>
	</g>
</g>
<g>
	<defs>
		<circle id="SVGID_5_" cx="65" cy="66" r="45"/>
	</defs>
	<clipPath id="SVGID_6_">
		<use xlink:href="#SVGID_5_"  style="overflow:visible;"/>
	</clipPath>
	<g class="st2">
		<defs>
			<rect id="SVGID_7_" width="355" height="573"/>
		</defs>
		<clipPath id="SVGID_8_">
			<use xlink:href="#SVGID_7_"  style="overflow:visible;"/>
		</clipPath>
		<rect x="15" y="16" class="st3" width="100" height="100"/>
	</g>
</g>
<g>
	<defs>
		<circle id="SVGID_9_" cx="65" cy="397" r="45"/>
	</defs>
	<clipPath id="SVGID_10_">
		<use xlink:href="#SVGID_9_"  style="overflow:visible;"/>
	</clipPath>
	<g class="st4">
		<defs>
			<rect id="SVGID_11_" width="355" height="573"/>
		</defs>
		<clipPath id="SVGID_12_">
			<use xlink:href="#SVGID_11_"  style="overflow:visible;"/>
		</clipPath>
		<rect x="15" y="347" class="st5" width="100" height="100"/>
	</g>
</g>
<g>
	<defs>
		<circle id="SVGID_13_" cx="65" cy="506" r="45"/>
	</defs>
	<clipPath id="SVGID_14_">
		<use xlink:href="#SVGID_13_"  style="overflow:visible;"/>
	</clipPath>
	<g class="st6">
		<defs>
			<rect id="SVGID_15_" width="355" height="573"/>
		</defs>
		<clipPath id="SVGID_16_">
			<use xlink:href="#SVGID_15_"  style="overflow:visible;"/>
		</clipPath>
		<rect x="15" y="456" class="st7" width="100" height="100"/>
	</g>
</g>
<g>
	<defs>
		<circle id="SVGID_17_" cx="64" cy="176" r="45"/>
	</defs>
	<clipPath id="SVGID_18_">
		<use xlink:href="#SVGID_17_"  style="overflow:visible;"/>
	</clipPath>
	<g class="st8">
		<defs>
			<rect id="SVGID_19_" width="355" height="573"/>
		</defs>
		<clipPath id="SVGID_20_">
			<use xlink:href="#SVGID_19_"  style="overflow:visible;"/>
		</clipPath>
		<rect x="14" y="126" class="st9" width="100" height="100"/>
	</g>
</g>
<g>
	<defs>
		<path id="SVGID_21_" d="M62.8,58h4.5v2.2h-4.5V58z M69.5,68H74v3.4h-4.5V68z M62.8,68h4.5v3.4h-4.5V68z M56.2,68h4.5v3.4h-4.5V68z
			 M69.5,62.5H74v3.4h-4.5V62.5z M62.8,62.5h4.5v3.4h-4.5V62.5z M56.2,62.5h4.5v3.4h-4.5V62.5z M67.3,79.2h8.9V60.2h-7.8V54
			l-3.3-1.4L61.8,54v6.2H54v18.9h8.9v-5.5h4.5V79.2z M82.8,79.2c0.6,0,1.2,0.2,1.6,0.6c0.4,0.4,0.6,1,0.6,1.6c0,0.6-0.2,1.1-0.6,1.6
			c-0.4,0.4-1,0.7-1.6,0.7H47.3c-0.6,0-1.2-0.2-1.6-0.7c-0.4-0.4-0.6-1-0.6-1.6c0-0.6,0.2-1.2,0.6-1.6c0.4-0.4,1-0.6,1.6-0.6h2.2
			v-20c0-0.9,0.3-1.7,1-2.3c0.7-0.7,1.4-1,2.3-1h4.5v-2.6c0-0.7,0.2-1.3,0.6-1.9c0.4-0.6,0.9-1,1.5-1.2l4.5-1.8
			c0.2-0.1,0.4-0.1,0.6-0.2c0.2,0,0.4-0.1,0.7-0.1c0.2,0,0.4,0,0.6,0.1c0.2,0,0.4,0.1,0.6,0.2l4.5,1.8c0.6,0.3,1.1,0.7,1.5,1.2
			c0.4,0.6,0.6,1.2,0.6,1.9v2.6h4.5c0.9,0,1.7,0.3,2.3,1c0.7,0.7,1,1.4,1,2.3v20H82.8z"/>
	</defs>
	<clipPath id="SVGID_22_">
		<use xlink:href="#SVGID_21_"  style="overflow:visible;"/>
	</clipPath>
	<g class="st10">
		<defs>
			<rect id="SVGID_23_" width="355" height="573"/>
		</defs>
		<clipPath id="SVGID_24_">
			<use xlink:href="#SVGID_23_"  style="overflow:visible;"/>
		</clipPath>
		<rect x="40.1" y="43.1" class="st11" width="50" height="45.5"/>
	</g>
</g>
<g>
	<defs>
		<path id="SVGID_25_" d="M55.6,407c0.1-0.1,0.2-0.1,0.3-0.1c0.1,0,0.2-0.1,0.4-0.1c0.3,0,0.6,0.1,0.8,0.3c0.2,0.2,0.3,0.5,0.3,0.8
			c0,0.2,0,0.4-0.1,0.6c-0.1,0.2-0.2,0.3-0.4,0.4l-3.3,2.2c-0.1,0.1-0.2,0.1-0.3,0.2c-0.1,0-0.2,0.1-0.4,0.1c-0.3,0-0.6-0.1-0.8-0.3
			c-0.2-0.2-0.3-0.5-0.3-0.8c0-0.2,0.1-0.4,0.2-0.6c0.1-0.2,0.2-0.3,0.4-0.4L55.6,407z M55,404.3L55,404.3c0,0,0,0.1,0,0.2
			c0,0.1,0,0.1,0,0.2c0,0.2-0.1,0.4-0.2,0.6c-0.1,0.2-0.3,0.3-0.6,0.4l-6.6,2.2c-0.1,0-0.1,0-0.2,0c-0.1,0-0.1,0-0.2,0
			c-0.3,0-0.6-0.1-0.8-0.3c-0.2-0.2-0.3-0.5-0.3-0.8c0-0.3,0.1-0.5,0.2-0.7c0.1-0.2,0.3-0.3,0.6-0.4l6.6-2.2c0.1,0,0.1,0,0.2-0.1
			c0.1,0,0.1,0,0.2,0c0.2,0,0.4,0.1,0.6,0.2C54.8,403.8,55,404,55,404.3z M47.3,402.4h4.5c0.3,0,0.5-0.1,0.8-0.3
			c0.2-0.2,0.3-0.5,0.3-0.8c0-0.3-0.1-0.5-0.3-0.8c-0.2-0.2-0.5-0.3-0.8-0.3h-4.5c-0.3,0-0.6,0.1-0.8,0.3c-0.2,0.2-0.3,0.5-0.3,0.8
			c0,0.3,0.1,0.6,0.3,0.8C46.7,402.3,47,402.4,47.3,402.4z M71.2,396.4c0,0.5-0.2,0.9-0.5,1.2c-0.3,0.3-0.7,0.5-1.2,0.5
			c-0.5,0-0.9-0.2-1.2-0.5c-0.3-0.3-0.5-0.7-0.5-1.2c0-0.4,0.2-0.8,0.5-1.2s0.7-0.5,1.2-0.5c0.4,0,0.8,0.2,1.2,0.5
			S71.2,396,71.2,396.4z M69.5,405.7c1.1,0,2.2-0.2,3.2-0.5c1-0.3,2-0.8,2.9-1.4c0.9-0.6,1.6-1.3,2.3-2.1c0.7-0.8,1.2-1.7,1.6-2.8
			c-0.6-0.3-1.2-0.7-1.7-1.1c-0.6-0.4-1.1-0.8-1.6-1.3l1.1-0.9c0.7-0.6,0.8-1.7,0.3-3.5c-0.5-1.7-1.3-2.1-2.4-1.3l-1.6,1.3
			c-0.8-1.2-0.9-2.5-0.3-3.8c0.6-1.3,1.3-2.4,2.1-3.2l-0.5-0.3c-1.3,1.4-2.7,2.5-4.2,3.3c-1.5,0.8-2.9,1.5-4.3,1.9
			c-1.4,0.4-2.7,0.6-3.9,0.6c-1.2,0-2.2-0.1-3-0.3c-0.3,0.7-0.5,1.4-0.6,2.1c-0.2,0.7-0.2,1.5-0.2,2.2v0.6c0.2-0.1,0.3-0.2,0.5-0.3
			c0.2-0.1,0.4-0.1,0.6-0.1c0.5,0,0.9,0.2,1.2,0.5c0.3,0.3,0.5,0.7,0.5,1.2c0,0.5-0.2,0.9-0.5,1.2c-0.3,0.3-0.7,0.5-1.2,0.5
			c-0.1,0-0.2,0-0.3,0c-0.1,0-0.2,0-0.3,0c0.2,0.7,0.5,1.4,0.9,2.1c0.4,0.6,0.8,1.2,1.3,1.8c0.2-0.3,0.5-0.5,0.8-0.8
			c0.3-0.2,0.7-0.4,1-0.6c0.9-0.4,1.8-0.5,2.6-0.3c0.8,0.2,1.3,0.5,1.6,1.1c0.2,0.6,0.1,1.2-0.3,1.8s-1.1,1.2-2,1.5
			c0.7,0.3,1.4,0.6,2.2,0.7C67.9,405.6,68.7,405.7,69.5,405.7z M85.1,394.6c0,1.5-0.2,2.9-0.6,4.3c-0.4,1.4-1,2.6-1.7,3.8
			c-0.7,1.2-1.6,2.3-2.6,3.2c-1,1-2.1,1.8-3.4,2.4c0.7,0.6,1.2,1.2,1.8,1.9c0.5,0.7,1,1.5,1.3,2.4c0.1,0.1,0.1,0.3,0.2,0.4
			c0,0.2,0.1,0.3,0.1,0.5c0,0.6-0.2,1.2-0.7,1.6c-0.4,0.4-1,0.6-1.6,0.6c-0.5,0-0.9-0.1-1.3-0.4c-0.4-0.3-0.6-0.7-0.8-1.1
			c-0.5-1.2-1.3-2.2-2.4-2.9c-1.1-0.8-2.4-1.2-3.7-1.2c-1.4,0-2.7,0.4-3.8,1.2c-1.1,0.8-1.9,1.8-2.4,3c-0.2,0.4-0.4,0.7-0.8,0.9
			c-0.4,0.2-0.8,0.4-1.2,0.4c-0.6,0-1.2-0.2-1.6-0.6c-0.4-0.4-0.6-1-0.6-1.6c0-0.1,0-0.3,0-0.4c0-0.1,0.1-0.3,0.1-0.4
			c0.3-0.8,0.8-1.6,1.3-2.3c0.5-0.7,1.1-1.4,1.7-2c-1.2-0.7-2.3-1.5-3.4-2.4c-1-1-1.9-2-2.6-3.2c-0.7-1.2-1.3-2.5-1.7-3.8
			c-0.4-1.4-0.6-2.8-0.6-4.3c0-2.1,0.4-4.1,1.2-6c0.8-1.9,1.9-3.5,3.3-4.9c1.4-1.4,3.1-2.5,4.9-3.3c1.9-0.8,3.9-1.2,6.1-1.2
			c2.1,0,4.1,0.4,6,1.2c1.9,0.8,3.5,1.9,4.9,3.3c1.4,1.4,2.5,3.1,3.3,4.9C84.7,390.4,85.1,392.4,85.1,394.6L85.1,394.6z"/>
	</defs>
	<clipPath id="SVGID_26_">
		<use xlink:href="#SVGID_25_"  style="overflow:visible;"/>
	</clipPath>
	<g class="st12">
		<defs>
			<rect id="SVGID_27_" width="355" height="573"/>
		</defs>
		<clipPath id="SVGID_28_">
			<use xlink:href="#SVGID_27_"  style="overflow:visible;"/>
		</clipPath>
		<rect x="41.2" y="374" class="st13" width="48.9" height="46.8"/>
	</g>
</g>
<g>
	<defs>
		<path id="SVGID_29_" d="M66.9,169.8c-1.5,0-2.7,0.5-3.7,1.5c-1,1-1.5,2.3-1.5,3.7c0,1.5,0.5,2.7,1.5,3.7c1,1,2.3,1.5,3.7,1.5
			c1.5,0,2.7-0.5,3.7-1.5c1-1,1.5-2.3,1.5-3.7c0-1.5-0.5-2.7-1.5-3.7C69.6,170.3,68.4,169.8,66.9,169.8z M78.5,189.2
			c0.6,0,1.1,0.2,1.6,0.6c0.4,0.4,0.7,1,0.7,1.6c0,0.6-0.2,1.1-0.7,1.6c-0.4,0.4-1,0.7-1.6,0.7H54.1c-0.6,0-1.2-0.2-1.6-0.7
			c-0.4-0.4-0.6-1-0.6-1.6c0-0.6,0.2-1.2,0.6-1.6c0.4-0.4,1-0.6,1.6-0.6h1.1v-1.4c0-0.2,0-0.5,0-0.7c0-0.2,0.1-0.5,0.1-0.7l-4.2-7
			c-0.3-0.4-0.5-0.9-0.7-1.4c-0.2-0.5-0.3-1-0.4-1.5L46.8,162v-0.4c0-0.8,0.3-1.4,0.8-2s1.2-0.8,2-0.8c0.6,0,1.2,0.2,1.7,0.6
			c0.5,0.4,0.8,0.9,1,1.5l3.1,14.5c0.1,0.2,0.1,0.4,0.2,0.6c0.1,0.2,0.2,0.4,0.3,0.6l3.3,5.5c0.1-0.1,0.2-0.1,0.3-0.1
			c0.1,0,0.2-0.1,0.4-0.1c-0.8-0.9-1.5-1.9-2-3c-0.5-1.1-0.7-2.4-0.7-3.7c0-1.4,0.3-2.6,0.8-3.8c0.5-1.2,1.2-2.2,2.1-3.1
			c0.9-0.9,1.9-1.6,3.1-2.1c1.2-0.5,2.4-0.8,3.8-0.8c1.3,0,2.6,0.3,3.8,0.8c1.2,0.5,2.2,1.2,3.1,2.1c0.9,0.9,1.6,1.9,2.1,3.1
			c0.5,1.2,0.8,2.4,0.8,3.8c0,1.3-0.2,2.5-0.7,3.7c-0.5,1.1-1.1,2.1-1.9,3c1.3,0.5,2.4,1.3,3.2,2.4c0.8,1.1,1.3,2.4,1.3,3.9V189.2z"
			/>
	</defs>
	<clipPath id="SVGID_30_">
		<use xlink:href="#SVGID_29_"  style="overflow:visible;"/>
	</clipPath>
	<g class="st14">
		<defs>
			<rect id="SVGID_31_" width="355" height="573"/>
		</defs>
		<clipPath id="SVGID_32_">
			<use xlink:href="#SVGID_31_"  style="overflow:visible;"/>
		</clipPath>
		<rect x="41.8" y="153.8" class="st15" width="43.9" height="44.8"/>
	</g>
</g>
<g>
	<defs>
		<path id="SVGID_33_" d="M285,57.5v0.6c0,0.2,0,0.3-0.1,0.4c0,0.1-0.1,0.2-0.1,0.3l-4.8,9.6c-0.1,0.1-0.2,0.3-0.3,0.4
			c-0.1,0.1-0.3,0.1-0.5,0.1h-1l4.8-9.5c0.1-0.1,0.1-0.3,0.2-0.4s0.2-0.2,0.2-0.3h-6c-0.1,0-0.2,0-0.2-0.1c-0.1-0.1-0.1-0.2-0.1-0.2
			v-1H285z M275.2,67.9V69H269v-1.1h2.5v-7.8c0-0.2,0-0.5,0-0.7l-2,1.8c-0.1,0.1-0.1,0.1-0.2,0.1c-0.1,0-0.1,0-0.2,0
			c-0.1,0-0.1,0-0.2-0.1c-0.1,0-0.1-0.1-0.1-0.1l-0.4-0.6l3.4-3h1.2v10.4H275.2z M265.7,56.8c0.2,0.4,0.4,0.8,0.5,1.2
			c0.1,0.4,0.1,0.8,0,1.2s-0.2,0.8-0.4,1.2c-0.2,0.4-0.5,0.7-0.8,1l-0.4-0.3c-0.1,0-0.1-0.1-0.1-0.2c0-0.1,0-0.1,0.1-0.2
			c0.1-0.2,0.3-0.4,0.4-0.6c0.1-0.2,0.2-0.5,0.2-0.8c0-0.3,0-0.6,0-0.9s-0.2-0.6-0.3-0.9c-0.1-0.1-0.1-0.2-0.1-0.3
			c0-0.1,0.1-0.2,0.2-0.2L265.7,56.8z M262.5,57.2V69H261V57.2H262.5z M258.7,57.2V69h-1.4V57.2H258.7z M249,62
			c0.4-0.4,0.9-0.8,1.4-1c0.5-0.2,1.1-0.3,1.7-0.3c0.5,0,0.9,0.1,1.2,0.2c0.4,0.1,0.6,0.4,0.9,0.6c0.2,0.3,0.4,0.6,0.5,1
			s0.2,0.8,0.2,1.2V69h-0.6c-0.1,0-0.2,0-0.3-0.1c-0.1,0-0.1-0.1-0.2-0.3l-0.2-0.8c-0.2,0.2-0.4,0.4-0.6,0.5
			c-0.2,0.2-0.4,0.3-0.6,0.4c-0.2,0.1-0.5,0.2-0.7,0.2s-0.5,0.1-0.8,0.1c-0.3,0-0.6,0-0.9-0.1c-0.3-0.1-0.5-0.2-0.7-0.4
			c-0.2-0.2-0.4-0.4-0.5-0.7c-0.1-0.3-0.2-0.6-0.2-1c0-0.3,0.1-0.6,0.3-0.9c0.2-0.3,0.5-0.6,0.9-0.8c0.4-0.2,0.9-0.4,1.5-0.6
			c0.6-0.1,1.4-0.2,2.3-0.3v-0.6c0-0.6-0.1-1.1-0.4-1.4c-0.3-0.3-0.7-0.5-1.2-0.5c-0.4,0-0.6,0-0.9,0.1c-0.2,0.1-0.4,0.2-0.6,0.3
			c-0.2,0.1-0.3,0.2-0.4,0.3c-0.1,0.1-0.2,0.1-0.4,0.1c-0.1,0-0.2,0-0.2-0.1c-0.1-0.1-0.1-0.1-0.2-0.2L249,62z M253.6,65.4
			c-0.7,0-1.2,0.1-1.7,0.2s-0.8,0.2-1.1,0.3c-0.3,0.1-0.5,0.3-0.6,0.5c-0.1,0.2-0.2,0.4-0.2,0.6c0,0.2,0,0.4,0.1,0.6
			c0.1,0.2,0.2,0.3,0.3,0.4c0.1,0.1,0.3,0.2,0.4,0.2s0.3,0.1,0.5,0.1c0.3,0,0.5,0,0.7-0.1c0.2-0.1,0.4-0.1,0.6-0.2
			c0.2-0.1,0.4-0.2,0.5-0.3s0.3-0.3,0.5-0.5V65.4z M243.2,58.8v4h4.7v1.3h-4.7V69h-1.6V57.5h7.1v1.3H243.2z M235.8,61.2v0.5
			c0,0.2-0.1,0.3-0.3,0.3l-0.9,0.1c0.2,0.4,0.3,0.7,0.3,1.2c0,0.4-0.1,0.8-0.2,1.1s-0.4,0.6-0.6,0.8c-0.3,0.2-0.6,0.4-1,0.5
			c-0.4,0.1-0.8,0.2-1.2,0.2c-0.4,0-0.7,0-1.1-0.1c-0.2,0.1-0.3,0.2-0.4,0.3c-0.1,0.1-0.1,0.2-0.1,0.4c0,0.2,0.1,0.3,0.2,0.4
			s0.4,0.2,0.6,0.2c0.3,0,0.5,0.1,0.9,0.1s0.7,0,1,0.1s0.7,0.1,1,0.1c0.3,0.1,0.6,0.2,0.9,0.3s0.5,0.3,0.6,0.6
			c0.2,0.2,0.2,0.5,0.2,0.9c0,0.3-0.1,0.7-0.3,1c-0.2,0.3-0.4,0.6-0.7,0.9c-0.3,0.3-0.7,0.5-1.2,0.6c-0.5,0.2-1,0.2-1.6,0.2
			s-1.1-0.1-1.6-0.2c-0.4-0.1-0.8-0.3-1.1-0.5c-0.3-0.2-0.5-0.4-0.7-0.7c-0.1-0.3-0.2-0.5-0.2-0.8c0-0.4,0.1-0.7,0.4-1
			c0.3-0.3,0.6-0.5,1-0.7c-0.2-0.1-0.4-0.2-0.6-0.4s-0.2-0.4-0.2-0.7c0-0.1,0-0.2,0.1-0.4c0-0.1,0.1-0.3,0.2-0.4
			c0.1-0.1,0.2-0.2,0.3-0.4c0.1-0.1,0.3-0.2,0.4-0.3c-0.4-0.2-0.7-0.5-0.9-0.9s-0.3-0.8-0.3-1.3c0-0.4,0.1-0.8,0.2-1.1
			c0.2-0.3,0.4-0.6,0.6-0.8c0.3-0.2,0.6-0.4,1-0.5c0.4-0.1,0.8-0.2,1.2-0.2c0.4,0,0.7,0,1,0.1c0.3,0.1,0.6,0.2,0.8,0.3H235.8z
			 M234.3,69.4c0-0.2-0.1-0.4-0.2-0.5c-0.1-0.1-0.3-0.2-0.5-0.3s-0.4-0.1-0.7-0.1c-0.3,0-0.5-0.1-0.8-0.1s-0.6,0-0.9,0
			c-0.3,0-0.6,0-0.8-0.1c-0.3,0.1-0.5,0.3-0.7,0.5c-0.2,0.2-0.3,0.5-0.3,0.7c0,0.2,0,0.4,0.1,0.5c0.1,0.2,0.2,0.3,0.4,0.4
			c0.2,0.1,0.4,0.2,0.7,0.3s0.6,0.1,1,0.1c0.4,0,0.7,0,1-0.1s0.6-0.2,0.8-0.3c0.2-0.1,0.4-0.3,0.5-0.5
			C234.3,69.8,234.3,69.7,234.3,69.4z M231.8,65c0.3,0,0.5,0,0.8-0.1c0.2-0.1,0.4-0.2,0.6-0.3c0.1-0.1,0.3-0.3,0.3-0.5
			c0.1-0.2,0.1-0.4,0.1-0.7c0-0.5-0.2-0.9-0.5-1.2s-0.7-0.4-1.3-0.4c-0.6,0-1,0.1-1.3,0.4s-0.5,0.7-0.5,1.2c0,0.2,0,0.5,0.1,0.7
			c0.1,0.2,0.2,0.4,0.3,0.5c0.1,0.1,0.3,0.3,0.6,0.3C231.2,65,231.5,65,231.8,65z M223.3,68c0.8,0,1.4-0.3,1.8-0.8
			c0.4-0.5,0.6-1.3,0.6-2.2c0-1-0.2-1.7-0.6-2.3c-0.4-0.5-1-0.8-1.8-0.8c-0.4,0-0.8,0.1-1.1,0.2s-0.6,0.3-0.8,0.6
			c-0.2,0.3-0.3,0.6-0.4,1c-0.1,0.4-0.1,0.8-0.1,1.3c0,1,0.2,1.7,0.6,2.2C221.9,67.7,222.5,68,223.3,68z M223.3,60.8
			c0.6,0,1.1,0.1,1.6,0.3s0.9,0.5,1.2,0.8s0.6,0.8,0.8,1.3c0.2,0.5,0.3,1.1,0.3,1.7c0,0.6-0.1,1.2-0.3,1.7c-0.2,0.5-0.4,0.9-0.8,1.3
			s-0.7,0.6-1.2,0.8s-1,0.3-1.6,0.3c-0.6,0-1.1-0.1-1.6-0.3c-0.5-0.2-0.9-0.5-1.2-0.8s-0.6-0.8-0.8-1.3c-0.2-0.5-0.3-1.1-0.3-1.7
			c0-0.6,0.1-1.2,0.3-1.7c0.2-0.5,0.4-1,0.8-1.3s0.7-0.6,1.2-0.8C222.2,60.9,222.7,60.8,223.3,60.8z M217.6,57.2V69h-1.4V57.2H217.6
			z M208,62c0.4-0.4,0.9-0.8,1.4-1c0.5-0.2,1.1-0.3,1.7-0.3c0.5,0,0.9,0.1,1.2,0.2s0.6,0.4,0.9,0.6s0.4,0.6,0.5,1
			c0.1,0.4,0.2,0.8,0.2,1.2V69h-0.6c-0.1,0-0.2,0-0.3-0.1c-0.1,0-0.1-0.1-0.2-0.3l-0.2-0.8c-0.2,0.2-0.4,0.4-0.6,0.5
			c-0.2,0.2-0.4,0.3-0.6,0.4c-0.2,0.1-0.5,0.2-0.7,0.2c-0.3,0.1-0.5,0.1-0.8,0.1c-0.3,0-0.6,0-0.9-0.1s-0.5-0.2-0.7-0.4
			c-0.2-0.2-0.4-0.4-0.5-0.7c-0.1-0.3-0.2-0.6-0.2-1c0-0.3,0.1-0.6,0.3-0.9c0.2-0.3,0.5-0.6,0.9-0.8c0.4-0.2,0.9-0.4,1.5-0.6
			s1.4-0.2,2.3-0.3v-0.6c0-0.6-0.1-1.1-0.4-1.4c-0.3-0.3-0.7-0.5-1.2-0.5c-0.4,0-0.6,0-0.9,0.1c-0.2,0.1-0.4,0.2-0.6,0.3
			c-0.2,0.1-0.3,0.2-0.4,0.3c-0.1,0.1-0.2,0.1-0.4,0.1c-0.1,0-0.2,0-0.2-0.1c-0.1-0.1-0.1-0.1-0.2-0.2L208,62z M212.6,65.4
			c-0.7,0-1.2,0.1-1.7,0.2s-0.8,0.2-1.1,0.3c-0.3,0.1-0.5,0.3-0.6,0.5c-0.1,0.2-0.2,0.4-0.2,0.6c0,0.2,0,0.4,0.1,0.6
			c0.1,0.2,0.2,0.3,0.3,0.4c0.1,0.1,0.3,0.2,0.4,0.2c0.2,0,0.3,0.1,0.5,0.1c0.3,0,0.5,0,0.7-0.1c0.2-0.1,0.4-0.1,0.6-0.2
			c0.2-0.1,0.4-0.2,0.5-0.3s0.3-0.3,0.5-0.5V65.4z M204.9,69.1c-0.6,0-1.1-0.2-1.5-0.5s-0.5-0.9-0.5-1.5v-5h-1c-0.1,0-0.2,0-0.2-0.1
			c-0.1-0.1-0.1-0.1-0.1-0.2v-0.6L203,61l0.3-2.5c0-0.1,0.1-0.1,0.1-0.2c0.1-0.1,0.1-0.1,0.2-0.1h0.7v2.8h2.3v1h-2.3V67
			c0,0.3,0.1,0.6,0.2,0.8c0.2,0.2,0.4,0.2,0.6,0.2c0.1,0,0.3,0,0.4-0.1s0.2-0.1,0.3-0.1s0.1-0.1,0.2-0.1c0.1,0,0.1-0.1,0.1-0.1
			c0.1,0,0.1,0,0.2,0.1l0.4,0.7c-0.2,0.2-0.5,0.4-0.9,0.5C205.6,69.1,205.3,69.1,204.9,69.1z M194.4,62c0.4-0.4,0.9-0.8,1.4-1
			c0.5-0.2,1.1-0.3,1.7-0.3c0.5,0,0.9,0.1,1.2,0.2s0.6,0.4,0.9,0.6s0.4,0.6,0.5,1c0.1,0.4,0.2,0.8,0.2,1.2V69h-0.6
			c-0.1,0-0.2,0-0.3-0.1c-0.1,0-0.1-0.1-0.2-0.3l-0.2-0.8c-0.2,0.2-0.4,0.4-0.6,0.5c-0.2,0.2-0.4,0.3-0.6,0.4
			c-0.2,0.1-0.5,0.2-0.7,0.2c-0.3,0.1-0.5,0.1-0.8,0.1c-0.3,0-0.6,0-0.9-0.1s-0.5-0.2-0.7-0.4c-0.2-0.2-0.4-0.4-0.5-0.7
			c-0.1-0.3-0.2-0.6-0.2-1c0-0.3,0.1-0.6,0.3-0.9c0.2-0.3,0.5-0.6,0.9-0.8c0.4-0.2,0.9-0.4,1.5-0.6s1.4-0.2,2.3-0.3v-0.6
			c0-0.6-0.1-1.1-0.4-1.4c-0.3-0.3-0.7-0.5-1.2-0.5c-0.4,0-0.6,0-0.9,0.1c-0.2,0.1-0.4,0.2-0.6,0.3c-0.2,0.1-0.3,0.2-0.4,0.3
			c-0.1,0.1-0.2,0.1-0.4,0.1c-0.1,0-0.2,0-0.2-0.1c-0.1-0.1-0.1-0.1-0.2-0.2L194.4,62z M199,65.4c-0.7,0-1.2,0.1-1.7,0.2
			s-0.8,0.2-1.1,0.3c-0.3,0.1-0.5,0.3-0.6,0.5c-0.1,0.2-0.2,0.4-0.2,0.6c0,0.2,0,0.4,0.1,0.6c0.1,0.2,0.2,0.3,0.3,0.4
			c0.1,0.1,0.3,0.2,0.4,0.2c0.2,0,0.3,0.1,0.5,0.1c0.3,0,0.5,0,0.7-0.1c0.2-0.1,0.4-0.1,0.6-0.2c0.2-0.1,0.4-0.2,0.5-0.3
			s0.3-0.3,0.5-0.5V65.4z M192.3,66.6c0.1,0,0.2,0,0.2,0.1l0.6,0.7c-0.5,0.5-1,1-1.7,1.3c-0.7,0.3-1.5,0.5-2.4,0.5
			c-0.8,0-1.6-0.1-2.2-0.4c-0.7-0.3-1.2-0.7-1.7-1.2s-0.8-1.1-1.1-1.9c-0.3-0.7-0.4-1.5-0.4-2.4c0-0.9,0.1-1.7,0.4-2.4
			c0.3-0.7,0.7-1.3,1.1-1.9c0.5-0.5,1.1-0.9,1.8-1.2s1.4-0.4,2.3-0.4c0.8,0,1.5,0.1,2.2,0.4c0.6,0.3,1.2,0.6,1.6,1.1l-0.5,0.7
			c0,0.1-0.1,0.1-0.1,0.1c-0.1,0-0.1,0.1-0.2,0.1c-0.1,0-0.2-0.1-0.4-0.2s-0.3-0.2-0.5-0.3c-0.2-0.1-0.5-0.2-0.8-0.3
			s-0.7-0.2-1.2-0.2c-0.6,0-1.1,0.1-1.6,0.3c-0.5,0.2-0.9,0.5-1.3,0.9c-0.4,0.4-0.6,0.9-0.8,1.4c-0.2,0.6-0.3,1.2-0.3,1.9
			c0,0.7,0.1,1.4,0.3,1.9c0.2,0.6,0.5,1,0.8,1.4c0.4,0.4,0.8,0.7,1.3,0.9c0.5,0.2,1,0.3,1.6,0.3c0.3,0,0.6,0,0.9-0.1
			s0.5-0.1,0.8-0.2c0.2-0.1,0.4-0.2,0.6-0.3s0.4-0.3,0.6-0.5C192.1,66.7,192.2,66.6,192.3,66.6z M177.9,67.9
			c-0.2,0.2-0.4,0.4-0.6,0.6c-0.2,0.2-0.5,0.3-0.8,0.4c-0.3,0.1-0.6,0.2-0.9,0.2c-0.3,0.1-0.6,0.1-0.9,0.1c-0.6,0-1.1-0.1-1.5-0.3
			s-0.9-0.5-1.2-0.8c-0.3-0.4-0.6-0.8-0.8-1.4c-0.2-0.5-0.3-1.2-0.3-1.9c0-0.6,0.1-1.1,0.3-1.6c0.2-0.5,0.4-0.9,0.7-1.3
			c0.3-0.4,0.7-0.6,1.2-0.8c0.5-0.2,1-0.3,1.6-0.3c0.5,0,0.9,0.1,1.3,0.2c0.4,0.2,0.8,0.4,1.1,0.7s0.5,0.7,0.7,1.1
			c0.2,0.5,0.3,1,0.3,1.5c0,0.2,0,0.4-0.1,0.4c0,0.1-0.1,0.1-0.3,0.1h-5.4c0,0.5,0.1,1,0.2,1.3c0.1,0.4,0.3,0.7,0.5,0.9
			s0.5,0.4,0.8,0.6c0.3,0.1,0.7,0.2,1,0.2c0.4,0,0.7,0,0.9-0.1c0.3-0.1,0.5-0.2,0.7-0.3c0.2-0.1,0.3-0.2,0.5-0.3
			c0.1-0.1,0.2-0.1,0.3-0.1c0.1,0,0.2,0,0.3,0.1L177.9,67.9z M176.8,64.1c0-0.3,0-0.6-0.1-0.9c-0.1-0.3-0.2-0.5-0.4-0.7
			s-0.4-0.4-0.7-0.5c-0.3-0.1-0.5-0.2-0.9-0.2c-0.7,0-1.2,0.2-1.6,0.6c-0.4,0.4-0.6,0.9-0.7,1.7H176.8z M169.1,62.2
			c-0.1,0.1-0.2,0.2-0.3,0.2c-0.1,0-0.2,0-0.3-0.1c-0.1-0.1-0.2-0.1-0.4-0.2c-0.1-0.1-0.3-0.1-0.5-0.2c-0.2-0.1-0.4-0.1-0.7-0.1
			c-0.2,0-0.5,0-0.6,0.1c-0.2,0.1-0.4,0.1-0.5,0.3c-0.1,0.1-0.2,0.2-0.3,0.4c-0.1,0.1-0.1,0.3-0.1,0.5c0,0.2,0.1,0.4,0.2,0.5
			c0.1,0.1,0.3,0.3,0.5,0.4s0.4,0.2,0.7,0.3s0.5,0.2,0.8,0.2c0.3,0.1,0.5,0.2,0.8,0.3c0.3,0.1,0.5,0.2,0.7,0.4s0.4,0.4,0.5,0.6
			s0.2,0.5,0.2,0.8c0,0.4-0.1,0.7-0.2,1s-0.3,0.6-0.6,0.8c-0.3,0.2-0.6,0.4-1,0.5c-0.4,0.1-0.8,0.2-1.3,0.2c-0.6,0-1.1-0.1-1.5-0.3
			c-0.5-0.2-0.8-0.4-1.2-0.7l0.3-0.5c0-0.1,0.1-0.1,0.2-0.2c0.1,0,0.1-0.1,0.2-0.1c0.1,0,0.2,0,0.3,0.1c0.1,0.1,0.2,0.2,0.4,0.2
			c0.2,0.1,0.3,0.2,0.6,0.2c0.2,0.1,0.5,0.1,0.8,0.1c0.3,0,0.5,0,0.7-0.1c0.2-0.1,0.4-0.2,0.5-0.3c0.1-0.1,0.2-0.3,0.3-0.4
			s0.1-0.3,0.1-0.5c0-0.2-0.1-0.4-0.2-0.6s-0.3-0.3-0.5-0.4s-0.4-0.2-0.7-0.3c-0.3-0.1-0.5-0.2-0.8-0.2c-0.3-0.1-0.5-0.2-0.8-0.3
			c-0.3-0.1-0.5-0.2-0.7-0.4c-0.2-0.2-0.4-0.4-0.5-0.6c-0.1-0.2-0.2-0.5-0.2-0.9c0-0.3,0.1-0.6,0.2-0.9c0.1-0.3,0.3-0.5,0.6-0.8
			c0.2-0.2,0.5-0.4,0.9-0.5c0.4-0.1,0.8-0.2,1.2-0.2c0.5,0,1,0.1,1.4,0.3s0.8,0.4,1.1,0.7L169.1,62.2z M160,62.5
			c0.3-0.6,0.6-1,0.9-1.3c0.4-0.3,0.8-0.5,1.4-0.5c0.2,0,0.3,0,0.5,0.1s0.3,0.1,0.4,0.2l-0.1,1.1c0,0.1-0.1,0.2-0.2,0.2
			c-0.1,0-0.2,0-0.3,0c-0.1,0-0.3,0-0.5,0c-0.3,0-0.5,0-0.7,0.1c-0.2,0.1-0.4,0.2-0.5,0.3c-0.2,0.1-0.3,0.3-0.4,0.5
			c-0.1,0.2-0.2,0.5-0.3,0.7V69h-1.4v-8.1h0.8c0.2,0,0.3,0,0.3,0.1c0.1,0.1,0.1,0.2,0.1,0.3L160,62.5z M156.4,60.9V69h-0.8
			c-0.2,0-0.3-0.1-0.4-0.3l-0.1-0.9c-0.4,0.4-0.7,0.7-1.2,0.9s-0.9,0.4-1.5,0.4c-0.4,0-0.8-0.1-1.2-0.2s-0.6-0.4-0.9-0.6
			c-0.2-0.3-0.4-0.6-0.5-1c-0.1-0.4-0.2-0.8-0.2-1.3v-5.2h1.4v5.2c0,0.6,0.1,1.1,0.4,1.4s0.7,0.5,1.3,0.5c0.4,0,0.8-0.1,1.2-0.3
			c0.4-0.2,0.7-0.5,1-0.8v-6H156.4z M144.1,68c0.8,0,1.4-0.3,1.8-0.8c0.4-0.5,0.6-1.3,0.6-2.2c0-1-0.2-1.7-0.6-2.3
			c-0.4-0.5-1-0.8-1.8-0.8c-0.4,0-0.8,0.1-1.1,0.2s-0.6,0.3-0.8,0.6c-0.2,0.3-0.3,0.6-0.4,1c-0.1,0.4-0.1,0.8-0.1,1.3
			c0,1,0.2,1.7,0.6,2.2C142.7,67.7,143.3,68,144.1,68z M144.1,60.8c0.6,0,1.1,0.1,1.6,0.3s0.9,0.5,1.2,0.8s0.6,0.8,0.8,1.3
			c0.2,0.5,0.3,1.1,0.3,1.7c0,0.6-0.1,1.2-0.3,1.7c-0.2,0.5-0.4,0.9-0.8,1.3s-0.7,0.6-1.2,0.8s-1,0.3-1.6,0.3
			c-0.6,0-1.1-0.1-1.6-0.3c-0.5-0.2-0.9-0.5-1.2-0.8s-0.6-0.8-0.8-1.3s-0.3-1.1-0.3-1.7c0-0.6,0.1-1.2,0.3-1.7s0.4-1,0.8-1.3
			s0.7-0.6,1.2-0.8C142.9,60.9,143.5,60.8,144.1,60.8z M138.5,66.6c0.1,0,0.2,0,0.2,0.1l0.6,0.7c-0.5,0.5-1,1-1.7,1.3
			c-0.7,0.3-1.5,0.5-2.4,0.5c-0.8,0-1.6-0.1-2.2-0.4c-0.7-0.3-1.2-0.7-1.7-1.2s-0.8-1.1-1.1-1.9c-0.3-0.7-0.4-1.5-0.4-2.4
			c0-0.9,0.1-1.7,0.4-2.4c0.3-0.7,0.7-1.3,1.1-1.9c0.5-0.5,1.1-0.9,1.8-1.2s1.4-0.4,2.3-0.4c0.8,0,1.5,0.1,2.2,0.4s1.2,0.6,1.6,1.1
			l-0.5,0.7c0,0.1-0.1,0.1-0.1,0.1c-0.1,0-0.1,0.1-0.2,0.1c-0.1,0-0.2-0.1-0.4-0.2c-0.1-0.1-0.3-0.2-0.5-0.3s-0.5-0.2-0.8-0.3
			s-0.7-0.2-1.2-0.2c-0.6,0-1.1,0.1-1.6,0.3c-0.5,0.2-0.9,0.5-1.3,0.9c-0.4,0.4-0.6,0.9-0.8,1.4c-0.2,0.6-0.3,1.2-0.3,1.9
			c0,0.7,0.1,1.4,0.3,1.9c0.2,0.6,0.5,1,0.8,1.4c0.4,0.4,0.8,0.7,1.3,0.9s1,0.3,1.6,0.3c0.3,0,0.6,0,0.9-0.1c0.3,0,0.5-0.1,0.8-0.2
			s0.4-0.2,0.6-0.3s0.4-0.3,0.6-0.5C138.3,66.7,138.4,66.6,138.5,66.6z"/>
	</defs>
	<clipPath id="SVGID_34_">
		<use xlink:href="#SVGID_33_"  style="overflow:visible;"/>
	</clipPath>
	<g class="st16">
		<defs>
			<rect id="SVGID_35_" width="355" height="573"/>
		</defs>
		<clipPath id="SVGID_36_">
			<use xlink:href="#SVGID_35_"  style="overflow:visible;"/>
		</clipPath>
		<rect x="124.8" y="51.8" class="st17" width="165.2" height="25.2"/>
	</g>
</g>
<g>
	<defs>
		<path id="SVGID_37_" d="M151.3,412.2c0.3-0.4,0.7-0.8,1.2-1c0.4-0.3,1-0.4,1.5-0.4c0.5,0,0.9,0.1,1.3,0.3c0.4,0.2,0.7,0.4,1,0.8
			c0.3,0.3,0.5,0.8,0.6,1.3s0.2,1.1,0.2,1.8c0,0.6-0.1,1.2-0.2,1.7c-0.2,0.5-0.4,1-0.7,1.3s-0.7,0.7-1.1,0.9
			c-0.4,0.2-0.9,0.3-1.5,0.3c-0.5,0-0.9-0.1-1.3-0.3c-0.4-0.2-0.7-0.4-0.9-0.7v3.6h-1.4v-10.8h0.9c0.2,0,0.3,0.1,0.4,0.3
			L151.3,412.2z M151.3,417c0.3,0.4,0.5,0.6,0.9,0.7c0.3,0.1,0.7,0.2,1,0.2c0.8,0,1.3-0.3,1.7-0.8s0.6-1.3,0.6-2.3
			c0-0.5,0-1-0.1-1.4c-0.1-0.4-0.2-0.7-0.4-0.9c-0.2-0.2-0.4-0.4-0.6-0.5s-0.5-0.2-0.9-0.2c-0.5,0-0.9,0.1-1.2,0.3
			c-0.3,0.2-0.7,0.5-1,0.9V417z M142.3,412.2c0.3-0.4,0.7-0.8,1.2-1c0.4-0.3,1-0.4,1.5-0.4c0.5,0,0.9,0.1,1.3,0.3
			c0.4,0.2,0.7,0.4,1,0.8c0.3,0.3,0.5,0.8,0.6,1.3s0.2,1.1,0.2,1.8c0,0.6-0.1,1.2-0.2,1.7c-0.2,0.5-0.4,1-0.7,1.3s-0.7,0.7-1.1,0.9
			c-0.4,0.2-0.9,0.3-1.5,0.3c-0.5,0-0.9-0.1-1.3-0.3c-0.4-0.2-0.7-0.4-0.9-0.7v3.6h-1.4v-10.8h0.9c0.2,0,0.3,0.1,0.4,0.3
			L142.3,412.2z M142.4,417c0.3,0.4,0.5,0.6,0.9,0.7c0.3,0.1,0.7,0.2,1,0.2c0.8,0,1.3-0.3,1.7-0.8s0.6-1.3,0.6-2.3
			c0-0.5,0-1-0.1-1.4c-0.1-0.4-0.2-0.7-0.4-0.9c-0.2-0.2-0.4-0.4-0.6-0.5s-0.5-0.2-0.9-0.2c-0.5,0-0.9,0.1-1.2,0.3
			c-0.3,0.2-0.7,0.5-1,0.9V417z M139.8,419h-1.2c-0.1,0-0.3,0-0.3-0.1c-0.1-0.1-0.1-0.2-0.2-0.3l-1.1-2.8h-5.1l-1.1,2.8
			c0,0.1-0.1,0.2-0.2,0.3s-0.2,0.1-0.3,0.1H129l4.6-11.5h1.6L139.8,419z M136.6,414.7l-1.8-4.7c-0.1-0.1-0.1-0.3-0.2-0.5
			c-0.1-0.2-0.1-0.4-0.2-0.6c-0.1,0.4-0.2,0.8-0.3,1.1l-1.8,4.7H136.6z M313.8,400.1c-0.6,0-1.1-0.2-1.5-0.5
			c-0.3-0.4-0.5-0.9-0.5-1.5v-5h-1c-0.1,0-0.2,0-0.2-0.1c-0.1-0.1-0.1-0.1-0.1-0.2v-0.6l1.3-0.2l0.3-2.5c0-0.1,0.1-0.1,0.1-0.2
			s0.1-0.1,0.2-0.1h0.7v2.8h2.3v1h-2.3v4.9c0,0.3,0.1,0.6,0.2,0.8c0.2,0.2,0.4,0.2,0.6,0.2c0.1,0,0.3,0,0.4-0.1
			c0.1,0,0.2-0.1,0.3-0.1c0.1,0,0.1-0.1,0.2-0.1c0.1,0,0.1-0.1,0.1-0.1c0.1,0,0.1,0,0.2,0.1l0.4,0.7c-0.2,0.2-0.5,0.4-0.9,0.5
			C314.6,400.1,314.2,400.1,313.8,400.1z M309.1,393.2c-0.1,0.1-0.2,0.2-0.3,0.2c-0.1,0-0.2,0-0.3-0.1c-0.1-0.1-0.2-0.1-0.4-0.2
			s-0.3-0.1-0.5-0.2c-0.2-0.1-0.4-0.1-0.7-0.1c-0.2,0-0.5,0-0.6,0.1c-0.2,0.1-0.4,0.1-0.5,0.3c-0.1,0.1-0.2,0.2-0.3,0.4
			c-0.1,0.1-0.1,0.3-0.1,0.5c0,0.2,0.1,0.4,0.2,0.5c0.1,0.1,0.3,0.3,0.5,0.4s0.4,0.2,0.7,0.3s0.5,0.2,0.8,0.2s0.5,0.2,0.8,0.3
			c0.3,0.1,0.5,0.2,0.7,0.4c0.2,0.2,0.4,0.4,0.5,0.6c0.1,0.2,0.2,0.5,0.2,0.8c0,0.4-0.1,0.7-0.2,1s-0.3,0.6-0.6,0.8
			c-0.3,0.2-0.6,0.4-1,0.5c-0.4,0.1-0.8,0.2-1.3,0.2c-0.6,0-1.1-0.1-1.5-0.3c-0.5-0.2-0.8-0.4-1.2-0.7l0.3-0.5
			c0-0.1,0.1-0.1,0.2-0.2c0.1,0,0.1-0.1,0.2-0.1c0.1,0,0.2,0,0.3,0.1c0.1,0.1,0.2,0.2,0.4,0.2c0.2,0.1,0.3,0.2,0.6,0.2
			c0.2,0.1,0.5,0.1,0.8,0.1c0.3,0,0.5,0,0.7-0.1s0.4-0.2,0.5-0.3c0.1-0.1,0.2-0.3,0.3-0.4s0.1-0.3,0.1-0.5c0-0.2-0.1-0.4-0.2-0.6
			c-0.1-0.1-0.3-0.3-0.5-0.4s-0.4-0.2-0.7-0.3s-0.5-0.2-0.8-0.2c-0.3-0.1-0.5-0.2-0.8-0.3c-0.3-0.1-0.5-0.2-0.7-0.4
			s-0.4-0.4-0.5-0.6s-0.2-0.5-0.2-0.9c0-0.3,0.1-0.6,0.2-0.9c0.1-0.3,0.3-0.5,0.6-0.8s0.5-0.4,0.9-0.5c0.4-0.1,0.8-0.2,1.2-0.2
			c0.5,0,1,0.1,1.4,0.3c0.4,0.2,0.8,0.4,1.1,0.7L309.1,393.2z M302.6,398.9c-0.2,0.2-0.4,0.4-0.6,0.6c-0.2,0.2-0.5,0.3-0.8,0.4
			c-0.3,0.1-0.6,0.2-0.9,0.2c-0.3,0.1-0.6,0.1-0.9,0.1c-0.6,0-1.1-0.1-1.5-0.3c-0.5-0.2-0.9-0.5-1.2-0.8s-0.6-0.8-0.8-1.4
			c-0.2-0.5-0.3-1.2-0.3-1.9c0-0.6,0.1-1.1,0.3-1.6c0.2-0.5,0.4-0.9,0.7-1.3c0.3-0.4,0.7-0.6,1.2-0.8c0.5-0.2,1-0.3,1.6-0.3
			c0.5,0,0.9,0.1,1.3,0.2s0.8,0.4,1.1,0.7s0.5,0.7,0.7,1.1c0.2,0.5,0.3,1,0.3,1.5c0,0.2,0,0.4-0.1,0.4c0,0.1-0.1,0.1-0.3,0.1h-5.4
			c0,0.5,0.1,1,0.2,1.3c0.1,0.4,0.3,0.7,0.5,0.9c0.2,0.3,0.5,0.4,0.8,0.6s0.7,0.2,1,0.2c0.4,0,0.7,0,0.9-0.1
			c0.3-0.1,0.5-0.2,0.7-0.3c0.2-0.1,0.3-0.2,0.5-0.3s0.2-0.1,0.3-0.1c0.1,0,0.2,0,0.3,0.1L302.6,398.9z M301.4,395.1
			c0-0.3,0-0.6-0.1-0.9c-0.1-0.3-0.2-0.5-0.4-0.7c-0.2-0.2-0.4-0.4-0.7-0.5c-0.3-0.1-0.5-0.2-0.9-0.2c-0.7,0-1.2,0.2-1.6,0.6
			c-0.4,0.4-0.6,0.9-0.7,1.7H301.4z M293.7,391.9v8.1h-0.8c-0.2,0-0.3-0.1-0.4-0.3l-0.1-0.9c-0.4,0.4-0.7,0.7-1.2,0.9
			c-0.4,0.2-0.9,0.4-1.5,0.4c-0.4,0-0.8-0.1-1.2-0.2c-0.3-0.1-0.6-0.4-0.9-0.6s-0.4-0.6-0.5-1c-0.1-0.4-0.2-0.8-0.2-1.3v-5.2h1.4
			v5.2c0,0.6,0.1,1.1,0.4,1.4c0.3,0.3,0.7,0.5,1.3,0.5c0.4,0,0.8-0.1,1.2-0.3c0.4-0.2,0.7-0.5,1-0.8v-6H293.7z M284.8,391.9v10.8
			h-1.4v-4c-0.3,0.4-0.7,0.7-1.2,1c-0.4,0.2-0.9,0.4-1.5,0.4c-0.5,0-0.9-0.1-1.3-0.3s-0.7-0.4-1-0.8s-0.5-0.8-0.6-1.3
			c-0.1-0.5-0.2-1.1-0.2-1.8c0-0.6,0.1-1.2,0.2-1.7c0.2-0.5,0.4-1,0.7-1.3c0.3-0.4,0.7-0.7,1.1-0.9c0.4-0.2,0.9-0.3,1.5-0.3
			c0.5,0,1,0.1,1.3,0.3c0.4,0.2,0.7,0.4,1,0.8l0.1-0.6c0.1-0.2,0.2-0.3,0.4-0.3H284.8z M283.4,393.8c-0.3-0.3-0.5-0.6-0.9-0.7
			c-0.3-0.1-0.7-0.2-1-0.2c-0.8,0-1.3,0.3-1.7,0.8s-0.6,1.3-0.6,2.3c0,0.5,0,1,0.1,1.4s0.2,0.7,0.4,0.9c0.2,0.2,0.4,0.4,0.6,0.5
			c0.3,0.1,0.5,0.2,0.9,0.2c0.5,0,0.9-0.1,1.2-0.3c0.3-0.2,0.7-0.5,1-0.9V393.8z M276.2,398.9c-0.2,0.2-0.4,0.4-0.6,0.6
			c-0.2,0.2-0.5,0.3-0.8,0.4c-0.3,0.1-0.6,0.2-0.9,0.2c-0.3,0.1-0.6,0.1-0.9,0.1c-0.6,0-1.1-0.1-1.5-0.3s-0.9-0.5-1.2-0.8
			s-0.6-0.8-0.8-1.4c-0.2-0.5-0.3-1.2-0.3-1.9c0-0.6,0.1-1.1,0.3-1.6c0.2-0.5,0.4-0.9,0.7-1.3c0.3-0.4,0.7-0.6,1.2-0.8
			c0.5-0.2,1-0.3,1.6-0.3c0.5,0,0.9,0.1,1.3,0.2s0.8,0.4,1.1,0.7s0.5,0.7,0.7,1.1c0.2,0.5,0.3,1,0.3,1.5c0,0.2,0,0.4-0.1,0.4
			c0,0.1-0.1,0.1-0.3,0.1h-5.4c0,0.5,0.1,1,0.2,1.3c0.1,0.4,0.3,0.7,0.5,0.9c0.2,0.3,0.5,0.4,0.8,0.6s0.7,0.2,1,0.2
			c0.4,0,0.7,0,0.9-0.1s0.5-0.2,0.7-0.3c0.2-0.1,0.3-0.2,0.5-0.3s0.2-0.1,0.3-0.1c0.1,0,0.2,0,0.3,0.1L276.2,398.9z M275.1,395.1
			c0-0.3,0-0.6-0.1-0.9c-0.1-0.3-0.2-0.5-0.4-0.7c-0.2-0.2-0.4-0.4-0.7-0.5c-0.3-0.1-0.5-0.2-0.9-0.2c-0.7,0-1.2,0.2-1.6,0.6
			c-0.4,0.4-0.6,0.9-0.7,1.7H275.1z M269,400h-1.4c-0.3,0-0.5-0.1-0.6-0.3l-3-4.1c-0.1-0.1-0.2-0.2-0.3-0.3
			c-0.1-0.1-0.3-0.1-0.5-0.1H262v4.8h-1.5v-11.5h3.2c0.7,0,1.4,0.1,1.9,0.2c0.5,0.1,1,0.4,1.3,0.6c0.3,0.3,0.6,0.6,0.8,1
			c0.2,0.4,0.2,0.8,0.2,1.3c0,0.4-0.1,0.8-0.2,1.1c-0.1,0.4-0.3,0.7-0.6,0.9c-0.2,0.3-0.5,0.5-0.9,0.7s-0.7,0.3-1.2,0.4
			c0.2,0.1,0.4,0.3,0.5,0.5L269,400z M263.7,394.1c0.4,0,0.8-0.1,1.2-0.2c0.3-0.1,0.6-0.3,0.9-0.5c0.2-0.2,0.4-0.4,0.5-0.7
			c0.1-0.3,0.2-0.6,0.2-0.9c0-0.7-0.2-1.2-0.7-1.5s-1.1-0.5-2-0.5H262v4.3H263.7z M249.4,388.2v6.9h0.4c0.1,0,0.2,0,0.3,0
			c0.1,0,0.1-0.1,0.2-0.2l2.6-2.7c0.1-0.1,0.2-0.2,0.2-0.2c0.1-0.1,0.2-0.1,0.3-0.1h1.3l-3,3.2c-0.1,0.2-0.3,0.3-0.5,0.4
			c0.1,0.1,0.2,0.1,0.3,0.2s0.2,0.2,0.2,0.3l3.2,4h-1.3c-0.1,0-0.2,0-0.3-0.1c-0.1,0-0.2-0.1-0.2-0.2l-2.7-3.3
			c-0.1-0.1-0.2-0.2-0.2-0.2c-0.1,0-0.2-0.1-0.4-0.1h-0.4v3.9h-1.4v-11.8H249.4z M245.9,393.3c0,0.1-0.1,0.1-0.1,0.1
			c0,0-0.1,0-0.2,0c-0.1,0-0.2,0-0.3-0.1c-0.1-0.1-0.2-0.1-0.4-0.2c-0.1-0.1-0.3-0.2-0.5-0.2c-0.2-0.1-0.5-0.1-0.8-0.1
			c-0.4,0-0.8,0.1-1.1,0.2c-0.3,0.1-0.6,0.3-0.8,0.6c-0.2,0.3-0.4,0.6-0.5,1c-0.1,0.4-0.2,0.8-0.2,1.3c0,0.5,0.1,0.9,0.2,1.3
			c0.1,0.4,0.3,0.7,0.5,1c0.2,0.3,0.5,0.5,0.7,0.6c0.3,0.1,0.6,0.2,1,0.2c0.3,0,0.6,0,0.9-0.1s0.4-0.2,0.6-0.3s0.3-0.2,0.4-0.3
			c0.1-0.1,0.2-0.1,0.3-0.1c0.1,0,0.2,0,0.3,0.1l0.4,0.5c-0.2,0.2-0.4,0.4-0.6,0.6c-0.2,0.2-0.5,0.3-0.7,0.4
			c-0.3,0.1-0.5,0.2-0.8,0.2c-0.3,0-0.6,0.1-0.9,0.1c-0.5,0-1-0.1-1.4-0.3c-0.4-0.2-0.8-0.5-1.1-0.8c-0.3-0.4-0.6-0.8-0.8-1.3
			c-0.2-0.5-0.3-1.1-0.3-1.8c0-0.6,0.1-1.2,0.3-1.7s0.4-1,0.7-1.3c0.3-0.4,0.7-0.7,1.2-0.9c0.5-0.2,1-0.3,1.6-0.3
			c0.6,0,1.1,0.1,1.5,0.3c0.4,0.2,0.8,0.4,1.2,0.8L245.9,393.3z M232.1,393c0.4-0.4,0.9-0.8,1.4-1c0.5-0.2,1.1-0.3,1.7-0.3
			c0.5,0,0.9,0.1,1.2,0.2s0.6,0.4,0.9,0.6c0.2,0.3,0.4,0.6,0.5,1c0.1,0.4,0.2,0.8,0.2,1.2v5.2h-0.6c-0.1,0-0.2,0-0.3-0.1
			c-0.1,0-0.1-0.1-0.2-0.3l-0.2-0.8c-0.2,0.2-0.4,0.4-0.6,0.5c-0.2,0.2-0.4,0.3-0.6,0.4s-0.5,0.2-0.7,0.2c-0.3,0.1-0.5,0.1-0.8,0.1
			c-0.3,0-0.6,0-0.9-0.1s-0.5-0.2-0.7-0.4s-0.4-0.4-0.5-0.7c-0.1-0.3-0.2-0.6-0.2-1c0-0.3,0.1-0.6,0.3-0.9c0.2-0.3,0.5-0.6,0.9-0.8
			c0.4-0.2,0.9-0.4,1.5-0.6c0.6-0.1,1.4-0.2,2.3-0.3v-0.6c0-0.6-0.1-1.1-0.4-1.4s-0.7-0.5-1.2-0.5c-0.4,0-0.6,0-0.9,0.1
			c-0.2,0.1-0.4,0.2-0.6,0.3c-0.2,0.1-0.3,0.2-0.4,0.3c-0.1,0.1-0.2,0.1-0.4,0.1c-0.1,0-0.2,0-0.2-0.1c-0.1-0.1-0.1-0.1-0.2-0.2
			L232.1,393z M236.7,396.4c-0.7,0-1.2,0.1-1.7,0.2c-0.5,0.1-0.8,0.2-1.1,0.3s-0.5,0.3-0.6,0.5c-0.1,0.2-0.2,0.4-0.2,0.6
			c0,0.2,0,0.4,0.1,0.6c0.1,0.2,0.2,0.3,0.3,0.4s0.3,0.2,0.4,0.2c0.2,0,0.3,0.1,0.5,0.1c0.3,0,0.5,0,0.7-0.1
			c0.2-0.1,0.4-0.1,0.6-0.2c0.2-0.1,0.4-0.2,0.5-0.3s0.3-0.3,0.5-0.5V396.4z M224.8,393.1c0.3-0.4,0.7-0.7,1.2-0.9
			c0.4-0.2,0.9-0.4,1.5-0.4c0.5,0,0.9,0.1,1.3,0.3c0.4,0.2,0.7,0.4,1,0.8c0.3,0.3,0.5,0.8,0.6,1.3c0.1,0.5,0.2,1,0.2,1.7
			c0,0.7-0.1,1.3-0.2,1.8s-0.4,1-0.7,1.4c-0.3,0.4-0.7,0.7-1.1,0.9c-0.4,0.2-0.9,0.3-1.5,0.3c-0.5,0-1-0.1-1.3-0.3
			c-0.4-0.2-0.7-0.5-1-0.9l-0.1,0.7c0,0.2-0.2,0.3-0.4,0.3h-0.9v-11.8h1.4V393.1z M224.8,398c0.3,0.4,0.5,0.6,0.9,0.7
			c0.3,0.1,0.7,0.2,1,0.2c0.8,0,1.3-0.3,1.8-0.8s0.6-1.3,0.6-2.4c0-1-0.2-1.7-0.5-2.2c-0.4-0.5-0.9-0.7-1.5-0.7
			c-0.5,0-0.9,0.1-1.2,0.3c-0.3,0.2-0.7,0.5-1,0.9V398z M221.1,388.2V400h-0.8c-0.2,0-0.3-0.1-0.4-0.3l-0.1-1
			c-0.3,0.4-0.7,0.8-1.2,1c-0.4,0.3-1,0.4-1.5,0.4c-0.5,0-0.9-0.1-1.3-0.3c-0.4-0.2-0.7-0.4-1-0.8c-0.3-0.3-0.5-0.8-0.6-1.3
			c-0.1-0.5-0.2-1.1-0.2-1.8c0-0.6,0.1-1.2,0.2-1.7c0.2-0.5,0.4-1,0.7-1.3c0.3-0.4,0.7-0.7,1.1-0.9c0.4-0.2,0.9-0.3,1.5-0.3
			c0.5,0,0.9,0.1,1.3,0.3c0.4,0.2,0.7,0.4,0.9,0.7v-4.5H221.1z M219.7,393.8c-0.3-0.4-0.6-0.6-0.9-0.7c-0.3-0.1-0.7-0.2-1-0.2
			c-0.8,0-1.3,0.3-1.7,0.8c-0.4,0.5-0.6,1.3-0.6,2.3c0,0.5,0,1,0.1,1.4s0.2,0.7,0.4,0.9c0.2,0.2,0.4,0.4,0.6,0.5
			c0.3,0.1,0.5,0.2,0.9,0.2c0.5,0,0.9-0.1,1.2-0.3c0.3-0.2,0.7-0.5,1-0.9V393.8z M212.5,398.9c-0.2,0.2-0.4,0.4-0.6,0.6
			c-0.2,0.2-0.5,0.3-0.8,0.4c-0.3,0.1-0.6,0.2-0.9,0.2c-0.3,0.1-0.6,0.1-0.9,0.1c-0.6,0-1.1-0.1-1.5-0.3s-0.9-0.5-1.2-0.8
			c-0.3-0.4-0.6-0.8-0.8-1.4s-0.3-1.2-0.3-1.9c0-0.6,0.1-1.1,0.3-1.6c0.2-0.5,0.4-0.9,0.7-1.3c0.3-0.4,0.7-0.6,1.2-0.8
			c0.5-0.2,1-0.3,1.6-0.3c0.5,0,0.9,0.1,1.3,0.2s0.8,0.4,1.1,0.7s0.5,0.7,0.7,1.1c0.2,0.5,0.3,1,0.3,1.5c0,0.2,0,0.4-0.1,0.4
			c0,0.1-0.1,0.1-0.3,0.1h-5.4c0,0.5,0.1,1,0.2,1.3c0.1,0.4,0.3,0.7,0.5,0.9c0.2,0.3,0.5,0.4,0.8,0.6s0.7,0.2,1,0.2
			c0.4,0,0.7,0,0.9-0.1c0.3-0.1,0.5-0.2,0.7-0.3c0.2-0.1,0.3-0.2,0.5-0.3c0.1-0.1,0.2-0.1,0.3-0.1c0.1,0,0.2,0,0.3,0.1L212.5,398.9z
			 M211.4,395.1c0-0.3,0-0.6-0.1-0.9c-0.1-0.3-0.2-0.5-0.4-0.7s-0.4-0.4-0.7-0.5c-0.3-0.1-0.5-0.2-0.9-0.2c-0.7,0-1.2,0.2-1.6,0.6
			c-0.4,0.4-0.6,0.9-0.7,1.7H211.4z M204.1,398.9c-0.2,0.2-0.4,0.4-0.6,0.6c-0.2,0.2-0.5,0.3-0.8,0.4c-0.3,0.1-0.6,0.2-0.9,0.2
			c-0.3,0.1-0.6,0.1-0.9,0.1c-0.6,0-1.1-0.1-1.5-0.3s-0.9-0.5-1.2-0.8s-0.6-0.8-0.8-1.4s-0.3-1.2-0.3-1.9c0-0.6,0.1-1.1,0.3-1.6
			c0.2-0.5,0.4-0.9,0.7-1.3c0.3-0.4,0.7-0.6,1.2-0.8c0.5-0.2,1-0.3,1.6-0.3c0.5,0,0.9,0.1,1.3,0.2c0.4,0.2,0.8,0.4,1.1,0.7
			s0.5,0.7,0.7,1.1c0.2,0.5,0.3,1,0.3,1.5c0,0.2,0,0.4-0.1,0.4c0,0.1-0.1,0.1-0.3,0.1h-5.4c0,0.5,0.1,1,0.2,1.3s0.3,0.7,0.5,0.9
			c0.2,0.3,0.5,0.4,0.8,0.6c0.3,0.1,0.7,0.2,1,0.2c0.4,0,0.7,0,0.9-0.1c0.3-0.1,0.5-0.2,0.7-0.3c0.2-0.1,0.3-0.2,0.5-0.3
			c0.1-0.1,0.2-0.1,0.3-0.1c0.1,0,0.2,0,0.3,0.1L204.1,398.9z M202.9,395.1c0-0.3,0-0.6-0.1-0.9c-0.1-0.3-0.2-0.5-0.4-0.7
			s-0.4-0.4-0.7-0.5c-0.3-0.1-0.5-0.2-0.9-0.2c-0.7,0-1.2,0.2-1.6,0.6c-0.4,0.4-0.6,0.9-0.7,1.7H202.9z M191,389.8v4h4.7v1.3H191
			v4.9h-1.6v-11.5h7.1v1.3H191z M181.8,400.1c-0.6,0-1.1-0.2-1.5-0.5c-0.3-0.4-0.5-0.9-0.5-1.5v-5h-1c-0.1,0-0.2,0-0.2-0.1
			s-0.1-0.1-0.1-0.2v-0.6l1.3-0.2l0.3-2.5c0-0.1,0.1-0.1,0.1-0.2s0.1-0.1,0.2-0.1h0.7v2.8h2.3v1h-2.3v4.9c0,0.3,0.1,0.6,0.2,0.8
			s0.4,0.2,0.6,0.2c0.1,0,0.3,0,0.4-0.1s0.2-0.1,0.3-0.1c0.1,0,0.1-0.1,0.2-0.1c0.1,0,0.1-0.1,0.1-0.1c0.1,0,0.1,0,0.2,0.1l0.4,0.7
			c-0.2,0.2-0.5,0.4-0.9,0.5C182.5,400.1,182.2,400.1,181.8,400.1z M171.9,393.1c0.2-0.2,0.4-0.4,0.6-0.5c0.2-0.2,0.4-0.3,0.6-0.4
			c0.2-0.1,0.5-0.2,0.7-0.3c0.2-0.1,0.5-0.1,0.8-0.1c0.4,0,0.8,0.1,1.2,0.2s0.6,0.4,0.8,0.6s0.4,0.6,0.5,1c0.1,0.4,0.2,0.8,0.2,1.3
			v5.2h-1.4v-5.2c0-0.6-0.1-1.1-0.4-1.4c-0.3-0.3-0.7-0.5-1.3-0.5c-0.4,0-0.8,0.1-1.2,0.3c-0.4,0.2-0.7,0.5-1,0.8v6h-1.4v-8.1h0.9
			c0.2,0,0.3,0.1,0.4,0.3L171.9,393.1z M168.6,398.9c-0.2,0.2-0.4,0.4-0.6,0.6c-0.2,0.2-0.5,0.3-0.8,0.4c-0.3,0.1-0.6,0.2-0.9,0.2
			c-0.3,0.1-0.6,0.1-0.9,0.1c-0.6,0-1.1-0.1-1.5-0.3s-0.9-0.5-1.2-0.8s-0.6-0.8-0.8-1.4s-0.3-1.2-0.3-1.9c0-0.6,0.1-1.1,0.3-1.6
			c0.2-0.5,0.4-0.9,0.7-1.3c0.3-0.4,0.7-0.6,1.2-0.8c0.5-0.2,1-0.3,1.6-0.3c0.5,0,0.9,0.1,1.3,0.2s0.8,0.4,1.1,0.7s0.5,0.7,0.7,1.1
			c0.2,0.5,0.3,1,0.3,1.5c0,0.2,0,0.4-0.1,0.4c0,0.1-0.1,0.1-0.3,0.1H163c0,0.5,0.1,1,0.2,1.3s0.3,0.7,0.5,0.9
			c0.2,0.3,0.5,0.4,0.8,0.6c0.3,0.1,0.7,0.2,1,0.2c0.4,0,0.7,0,0.9-0.1s0.5-0.2,0.7-0.3c0.2-0.1,0.3-0.2,0.5-0.3
			c0.1-0.1,0.2-0.1,0.3-0.1c0.1,0,0.2,0,0.3,0.1L168.6,398.9z M167.5,395.1c0-0.3,0-0.6-0.1-0.9c-0.1-0.3-0.2-0.5-0.4-0.7
			s-0.4-0.4-0.7-0.5c-0.3-0.1-0.5-0.2-0.9-0.2c-0.7,0-1.2,0.2-1.6,0.6c-0.4,0.4-0.6,0.9-0.7,1.7H167.5z M159.8,388.2V400H159
			c-0.2,0-0.3-0.1-0.4-0.3l-0.1-1c-0.3,0.4-0.7,0.8-1.2,1c-0.4,0.3-1,0.4-1.5,0.4c-0.5,0-0.9-0.1-1.3-0.3c-0.4-0.2-0.7-0.4-1-0.8
			c-0.3-0.3-0.5-0.8-0.6-1.3c-0.1-0.5-0.2-1.1-0.2-1.8c0-0.6,0.1-1.2,0.2-1.7c0.2-0.5,0.4-1,0.7-1.3c0.3-0.4,0.7-0.7,1.1-0.9
			c0.4-0.2,0.9-0.3,1.5-0.3c0.5,0,0.9,0.1,1.3,0.3c0.4,0.2,0.7,0.4,0.9,0.7v-4.5H159.8z M158.4,393.8c-0.3-0.4-0.6-0.6-0.9-0.7
			c-0.3-0.1-0.7-0.2-1-0.2c-0.8,0-1.3,0.3-1.7,0.8s-0.6,1.3-0.6,2.3c0,0.5,0,1,0.1,1.4s0.2,0.7,0.4,0.9c0.2,0.2,0.4,0.4,0.6,0.5
			c0.3,0.1,0.5,0.2,0.9,0.2c0.5,0,0.9-0.1,1.2-0.3c0.3-0.2,0.7-0.5,1-0.9V393.8z M150.8,391.9v8.1H150c-0.2,0-0.3-0.1-0.4-0.3
			l-0.1-0.9c-0.4,0.4-0.7,0.7-1.2,0.9c-0.4,0.2-0.9,0.4-1.5,0.4c-0.4,0-0.8-0.1-1.2-0.2c-0.3-0.1-0.6-0.4-0.9-0.6
			c-0.2-0.3-0.4-0.6-0.5-1c-0.1-0.4-0.2-0.8-0.2-1.3v-5.2h1.4v5.2c0,0.6,0.1,1.1,0.4,1.4c0.3,0.3,0.7,0.5,1.3,0.5
			c0.4,0,0.8-0.1,1.2-0.3c0.4-0.2,0.7-0.5,1-0.8v-6H150.8z M140.9,400.1c-0.6,0-1.1-0.2-1.5-0.5c-0.3-0.4-0.5-0.9-0.5-1.5v-5h-1
			c-0.1,0-0.2,0-0.2-0.1s-0.1-0.1-0.1-0.2v-0.6l1.3-0.2l0.3-2.5c0-0.1,0.1-0.1,0.1-0.2s0.1-0.1,0.2-0.1h0.7v2.8h2.3v1h-2.3v4.9
			c0,0.3,0.1,0.6,0.2,0.8s0.4,0.2,0.6,0.2c0.1,0,0.3,0,0.4-0.1s0.2-0.1,0.3-0.1c0.1,0,0.1-0.1,0.2-0.1c0.1,0,0.1-0.1,0.1-0.1
			c0.1,0,0.1,0,0.2,0.1l0.4,0.7c-0.2,0.2-0.5,0.4-0.9,0.5C141.7,400.1,141.3,400.1,140.9,400.1z M136.3,390.3c0,0.1-0.1,0.1-0.2,0.2
			c-0.1,0-0.1,0.1-0.2,0.1c-0.1,0-0.2,0-0.3-0.1c-0.1-0.1-0.3-0.2-0.5-0.3c-0.2-0.1-0.4-0.2-0.7-0.3s-0.6-0.1-0.9-0.1
			c-0.3,0-0.7,0-0.9,0.1c-0.3,0.1-0.5,0.2-0.7,0.4s-0.3,0.3-0.4,0.6c-0.1,0.2-0.1,0.4-0.1,0.7c0,0.3,0.1,0.6,0.2,0.8
			s0.4,0.4,0.6,0.5c0.3,0.1,0.6,0.3,0.9,0.4c0.3,0.1,0.7,0.2,1,0.3c0.3,0.1,0.7,0.2,1,0.4s0.6,0.3,0.9,0.6c0.3,0.2,0.5,0.5,0.6,0.8
			c0.2,0.3,0.2,0.7,0.2,1.2c0,0.5-0.1,1-0.3,1.4s-0.4,0.8-0.7,1.1c-0.3,0.3-0.7,0.6-1.2,0.8c-0.5,0.2-1,0.3-1.6,0.3
			c-0.7,0-1.4-0.1-2-0.4s-1.1-0.6-1.6-1.1l0.4-0.7c0-0.1,0.1-0.1,0.2-0.1c0.1,0,0.1-0.1,0.2-0.1c0.1,0,0.1,0,0.2,0.1
			c0.1,0.1,0.2,0.1,0.3,0.2c0.1,0.1,0.2,0.2,0.4,0.3s0.3,0.2,0.5,0.3c0.2,0.1,0.4,0.2,0.6,0.2c0.2,0.1,0.5,0.1,0.8,0.1
			c0.4,0,0.7-0.1,1-0.2c0.3-0.1,0.5-0.2,0.7-0.4c0.2-0.2,0.4-0.4,0.5-0.7c0.1-0.3,0.2-0.5,0.2-0.9c0-0.3-0.1-0.6-0.2-0.9
			c-0.2-0.2-0.4-0.4-0.6-0.6c-0.3-0.1-0.5-0.3-0.9-0.4c-0.3-0.1-0.7-0.2-1-0.3c-0.3-0.1-0.7-0.2-1-0.4c-0.3-0.1-0.6-0.3-0.9-0.6
			c-0.3-0.2-0.5-0.5-0.6-0.9s-0.2-0.8-0.2-1.3c0-0.4,0.1-0.8,0.2-1.2s0.4-0.7,0.7-1s0.7-0.5,1.1-0.7c0.4-0.2,0.9-0.3,1.5-0.3
			c0.6,0,1.2,0.1,1.7,0.3c0.5,0.2,1,0.5,1.4,0.9L136.3,390.3z"/>
	</defs>
	<clipPath id="SVGID_38_">
		<use xlink:href="#SVGID_37_"  style="overflow:visible;"/>
	</clipPath>
	<g class="st18">
		<defs>
			<rect id="SVGID_39_" width="355" height="573"/>
		</defs>
		<clipPath id="SVGID_40_">
			<use xlink:href="#SVGID_39_"  style="overflow:visible;"/>
		</clipPath>
		<rect x="124" y="383.2" class="st19" width="196.8" height="43.5"/>
	</g>
</g>
<g>
	<defs>
		<path id="SVGID_41_" d="M230.2,176.5c0.3-0.6,0.6-1,0.9-1.3c0.4-0.3,0.8-0.5,1.4-0.5c0.2,0,0.3,0,0.5,0.1c0.2,0,0.3,0.1,0.4,0.2
			l-0.1,1.1c0,0.1-0.1,0.2-0.2,0.2c-0.1,0-0.2,0-0.3,0c-0.1,0-0.3,0-0.5,0c-0.3,0-0.5,0-0.7,0.1c-0.2,0.1-0.4,0.2-0.5,0.3
			s-0.3,0.3-0.4,0.5c-0.1,0.2-0.2,0.5-0.3,0.7v5.1h-1.4v-8.1h0.8c0.2,0,0.3,0,0.3,0.1c0.1,0.1,0.1,0.2,0.1,0.3L230.2,176.5z
			 M226.9,181.9c-0.2,0.2-0.4,0.4-0.6,0.6c-0.2,0.2-0.5,0.3-0.8,0.4c-0.3,0.1-0.6,0.2-0.9,0.2c-0.3,0.1-0.6,0.1-0.9,0.1
			c-0.6,0-1.1-0.1-1.5-0.3s-0.9-0.5-1.2-0.8c-0.3-0.4-0.6-0.8-0.8-1.4c-0.2-0.5-0.3-1.2-0.3-1.9c0-0.6,0.1-1.1,0.3-1.6
			c0.2-0.5,0.4-0.9,0.7-1.3c0.3-0.4,0.7-0.6,1.2-0.8c0.5-0.2,1-0.3,1.6-0.3c0.5,0,0.9,0.1,1.3,0.2c0.4,0.2,0.8,0.4,1.1,0.7
			s0.5,0.7,0.7,1.1c0.2,0.5,0.3,1,0.3,1.5c0,0.2,0,0.4-0.1,0.4c0,0.1-0.1,0.1-0.3,0.1h-5.4c0,0.5,0.1,1,0.2,1.3
			c0.1,0.4,0.3,0.7,0.5,0.9c0.2,0.3,0.5,0.4,0.8,0.6c0.3,0.1,0.7,0.2,1,0.2c0.4,0,0.7,0,0.9-0.1s0.5-0.2,0.7-0.3s0.3-0.2,0.5-0.3
			s0.2-0.1,0.3-0.1c0.1,0,0.2,0,0.3,0.1L226.9,181.9z M225.8,178.1c0-0.3,0-0.6-0.1-0.9c-0.1-0.3-0.2-0.5-0.4-0.7
			c-0.2-0.2-0.4-0.4-0.7-0.5c-0.3-0.1-0.5-0.2-0.9-0.2c-0.7,0-1.2,0.2-1.6,0.6c-0.4,0.4-0.6,0.9-0.7,1.7H225.8z M217.2,183.1
			c-0.6,0-1.1-0.2-1.5-0.5c-0.3-0.4-0.5-0.9-0.5-1.5v-5h-1c-0.1,0-0.2,0-0.2-0.1c-0.1-0.1-0.1-0.1-0.1-0.2v-0.6l1.3-0.2l0.3-2.5
			c0-0.1,0.1-0.1,0.1-0.2s0.1-0.1,0.2-0.1h0.7v2.8h2.3v1h-2.3v4.9c0,0.3,0.1,0.6,0.2,0.8c0.2,0.2,0.4,0.2,0.6,0.2
			c0.1,0,0.3,0,0.4-0.1s0.2-0.1,0.3-0.1s0.1-0.1,0.2-0.1c0.1,0,0.1-0.1,0.1-0.1c0.1,0,0.1,0,0.2,0.1l0.4,0.7
			c-0.2,0.2-0.5,0.4-0.9,0.5S217.5,183.1,217.2,183.1z M212.5,176.2c-0.1,0.1-0.2,0.2-0.3,0.2c-0.1,0-0.2,0-0.3-0.1
			c-0.1-0.1-0.2-0.1-0.4-0.2c-0.1-0.1-0.3-0.1-0.5-0.2c-0.2-0.1-0.4-0.1-0.7-0.1c-0.2,0-0.5,0-0.6,0.1c-0.2,0.1-0.4,0.1-0.5,0.3
			c-0.1,0.1-0.2,0.2-0.3,0.4c-0.1,0.1-0.1,0.3-0.1,0.5c0,0.2,0.1,0.4,0.2,0.5c0.1,0.1,0.3,0.3,0.5,0.4c0.2,0.1,0.4,0.2,0.7,0.3
			c0.3,0.1,0.5,0.2,0.8,0.2c0.3,0.1,0.5,0.2,0.8,0.3c0.3,0.1,0.5,0.2,0.7,0.4s0.4,0.4,0.5,0.6c0.1,0.2,0.2,0.5,0.2,0.8
			c0,0.4-0.1,0.7-0.2,1s-0.3,0.6-0.6,0.8c-0.3,0.2-0.6,0.4-1,0.5c-0.4,0.1-0.8,0.2-1.3,0.2c-0.6,0-1.1-0.1-1.5-0.3
			c-0.5-0.2-0.8-0.4-1.2-0.7l0.3-0.5c0-0.1,0.1-0.1,0.2-0.2s0.1-0.1,0.2-0.1c0.1,0,0.2,0,0.3,0.1c0.1,0.1,0.2,0.2,0.4,0.2
			c0.2,0.1,0.3,0.2,0.6,0.2c0.2,0.1,0.5,0.1,0.8,0.1c0.3,0,0.5,0,0.7-0.1c0.2-0.1,0.4-0.2,0.5-0.3c0.1-0.1,0.2-0.3,0.3-0.4
			s0.1-0.3,0.1-0.5c0-0.2-0.1-0.4-0.2-0.6c-0.1-0.1-0.3-0.3-0.5-0.4s-0.4-0.2-0.7-0.3s-0.5-0.2-0.8-0.2c-0.3-0.1-0.5-0.2-0.8-0.3
			c-0.3-0.1-0.5-0.2-0.7-0.4c-0.2-0.2-0.4-0.4-0.5-0.6c-0.1-0.2-0.2-0.5-0.2-0.9c0-0.3,0.1-0.6,0.2-0.9c0.1-0.3,0.3-0.5,0.6-0.8
			c0.2-0.2,0.5-0.4,0.9-0.5c0.4-0.1,0.8-0.2,1.2-0.2c0.5,0,1,0.1,1.4,0.3c0.4,0.2,0.8,0.4,1.1,0.7L212.5,176.2z M202.1,182
			c0.8,0,1.4-0.3,1.8-0.8c0.4-0.5,0.6-1.3,0.6-2.2c0-1-0.2-1.7-0.6-2.3c-0.4-0.5-1-0.8-1.8-0.8c-0.4,0-0.8,0.1-1.1,0.2
			s-0.6,0.3-0.8,0.6c-0.2,0.3-0.3,0.6-0.4,1c-0.1,0.4-0.1,0.8-0.1,1.3c0,1,0.2,1.7,0.6,2.2C200.7,181.7,201.3,182,202.1,182z
			 M202.1,174.8c0.6,0,1.1,0.1,1.6,0.3c0.5,0.2,0.9,0.5,1.2,0.8s0.6,0.8,0.8,1.3s0.3,1.1,0.3,1.7c0,0.6-0.1,1.2-0.3,1.7
			s-0.4,0.9-0.8,1.3s-0.7,0.6-1.2,0.8c-0.5,0.2-1,0.3-1.6,0.3c-0.6,0-1.1-0.1-1.6-0.3s-0.9-0.5-1.2-0.8s-0.6-0.8-0.8-1.3
			s-0.3-1.1-0.3-1.7c0-0.6,0.1-1.2,0.3-1.7s0.4-1,0.8-1.3s0.7-0.6,1.2-0.8S201.5,174.8,202.1,174.8z M198,183h-1.4
			c-0.3,0-0.5-0.1-0.6-0.3l-3-4.1c-0.1-0.1-0.2-0.2-0.3-0.3s-0.3-0.1-0.5-0.1H191v4.8h-1.5v-11.5h3.2c0.7,0,1.4,0.1,1.9,0.2
			s1,0.4,1.3,0.6c0.3,0.3,0.6,0.6,0.8,1s0.2,0.8,0.2,1.3c0,0.4-0.1,0.8-0.2,1.1c-0.1,0.4-0.3,0.7-0.6,0.9c-0.2,0.3-0.5,0.5-0.9,0.7
			s-0.7,0.3-1.2,0.4c0.2,0.1,0.4,0.3,0.5,0.5L198,183z M192.7,177.1c0.4,0,0.8-0.1,1.2-0.2c0.3-0.1,0.6-0.3,0.9-0.5
			c0.2-0.2,0.4-0.4,0.5-0.7c0.1-0.3,0.2-0.6,0.2-0.9c0-0.7-0.2-1.2-0.7-1.5s-1.1-0.5-2-0.5H191v4.3H192.7z M181.8,183.1
			c-0.6,0-1.1-0.2-1.5-0.5c-0.3-0.4-0.5-0.9-0.5-1.5v-5h-1c-0.1,0-0.2,0-0.2-0.1c-0.1-0.1-0.1-0.1-0.1-0.2v-0.6l1.3-0.2l0.3-2.5
			c0-0.1,0.1-0.1,0.1-0.2s0.1-0.1,0.2-0.1h0.7v2.8h2.3v1h-2.3v4.9c0,0.3,0.1,0.6,0.2,0.8c0.2,0.2,0.4,0.2,0.6,0.2
			c0.1,0,0.3,0,0.4-0.1s0.2-0.1,0.3-0.1s0.1-0.1,0.2-0.1c0.1,0,0.1-0.1,0.1-0.1c0.1,0,0.1,0,0.2,0.1l0.4,0.7
			c-0.2,0.2-0.5,0.4-0.9,0.5S182.2,183.1,181.8,183.1z M171.9,176.1c0.2-0.2,0.4-0.4,0.6-0.5s0.4-0.3,0.6-0.4
			c0.2-0.1,0.5-0.2,0.7-0.3c0.2-0.1,0.5-0.1,0.8-0.1c0.4,0,0.8,0.1,1.2,0.2s0.6,0.4,0.8,0.6s0.4,0.6,0.5,1c0.1,0.4,0.2,0.8,0.2,1.3
			v5.2h-1.4v-5.2c0-0.6-0.1-1.1-0.4-1.4c-0.3-0.3-0.7-0.5-1.3-0.5c-0.4,0-0.8,0.1-1.2,0.3c-0.4,0.2-0.7,0.5-1,0.8v6h-1.4v-8.1h0.9
			c0.2,0,0.3,0.1,0.4,0.3L171.9,176.1z M168.6,181.9c-0.2,0.2-0.4,0.4-0.6,0.6c-0.2,0.2-0.5,0.3-0.8,0.4c-0.3,0.1-0.6,0.2-0.9,0.2
			c-0.3,0.1-0.6,0.1-0.9,0.1c-0.6,0-1.1-0.1-1.5-0.3s-0.9-0.5-1.2-0.8s-0.6-0.8-0.8-1.4c-0.2-0.5-0.3-1.2-0.3-1.9
			c0-0.6,0.1-1.1,0.3-1.6c0.2-0.5,0.4-0.9,0.7-1.3c0.3-0.4,0.7-0.6,1.2-0.8c0.5-0.2,1-0.3,1.6-0.3c0.5,0,0.9,0.1,1.3,0.2
			c0.4,0.2,0.8,0.4,1.1,0.7s0.5,0.7,0.7,1.1c0.2,0.5,0.3,1,0.3,1.5c0,0.2,0,0.4-0.1,0.4s-0.1,0.1-0.3,0.1H163c0,0.5,0.1,1,0.2,1.3
			s0.3,0.7,0.5,0.9s0.5,0.4,0.8,0.6c0.3,0.1,0.7,0.2,1,0.2c0.4,0,0.7,0,0.9-0.1s0.5-0.2,0.7-0.3c0.2-0.1,0.3-0.2,0.5-0.3
			c0.1-0.1,0.2-0.1,0.3-0.1c0.1,0,0.2,0,0.3,0.1L168.6,181.9z M167.5,178.1c0-0.3,0-0.6-0.1-0.9c-0.1-0.3-0.2-0.5-0.4-0.7
			s-0.4-0.4-0.7-0.5c-0.3-0.1-0.5-0.2-0.9-0.2c-0.7,0-1.2,0.2-1.6,0.6c-0.4,0.4-0.6,0.9-0.7,1.7H167.5z M159.8,171.2V183H159
			c-0.2,0-0.3-0.1-0.4-0.3l-0.1-1c-0.3,0.4-0.7,0.8-1.2,1c-0.4,0.3-1,0.4-1.5,0.4c-0.5,0-0.9-0.1-1.3-0.3c-0.4-0.2-0.7-0.4-1-0.8
			c-0.3-0.3-0.5-0.8-0.6-1.3c-0.1-0.5-0.2-1.1-0.2-1.8c0-0.6,0.1-1.2,0.2-1.7c0.2-0.5,0.4-1,0.7-1.3c0.3-0.4,0.7-0.7,1.1-0.9
			c0.4-0.2,0.9-0.3,1.5-0.3c0.5,0,0.9,0.1,1.3,0.3c0.4,0.2,0.7,0.4,0.9,0.7v-4.5H159.8z M158.4,176.8c-0.3-0.4-0.6-0.6-0.9-0.7
			c-0.3-0.1-0.7-0.2-1-0.2c-0.8,0-1.3,0.3-1.7,0.8s-0.6,1.3-0.6,2.3c0,0.5,0,1,0.1,1.4s0.2,0.7,0.4,0.9c0.2,0.2,0.4,0.4,0.6,0.5
			c0.3,0.1,0.5,0.2,0.9,0.2c0.5,0,0.9-0.1,1.2-0.3c0.3-0.2,0.7-0.5,1-0.9V176.8z M150.8,174.9v8.1H150c-0.2,0-0.3-0.1-0.4-0.3
			l-0.1-0.9c-0.4,0.4-0.7,0.7-1.2,0.9c-0.4,0.2-0.9,0.4-1.5,0.4c-0.4,0-0.8-0.1-1.2-0.2s-0.6-0.4-0.9-0.6c-0.2-0.3-0.4-0.6-0.5-1
			s-0.2-0.8-0.2-1.3v-5.2h1.4v5.2c0,0.6,0.1,1.1,0.4,1.4s0.7,0.5,1.3,0.5c0.4,0,0.8-0.1,1.2-0.3c0.4-0.2,0.7-0.5,1-0.8v-6H150.8z
			 M140.9,183.1c-0.6,0-1.1-0.2-1.5-0.5c-0.3-0.4-0.5-0.9-0.5-1.5v-5h-1c-0.1,0-0.2,0-0.2-0.1c-0.1-0.1-0.1-0.1-0.1-0.2v-0.6
			l1.3-0.2l0.3-2.5c0-0.1,0.1-0.1,0.1-0.2s0.1-0.1,0.2-0.1h0.7v2.8h2.3v1h-2.3v4.9c0,0.3,0.1,0.6,0.2,0.8c0.2,0.2,0.4,0.2,0.6,0.2
			c0.1,0,0.3,0,0.4-0.1s0.2-0.1,0.3-0.1c0.1,0,0.1-0.1,0.2-0.1c0.1,0,0.1-0.1,0.1-0.1c0.1,0,0.1,0,0.2,0.1l0.4,0.7
			c-0.2,0.2-0.5,0.4-0.9,0.5C141.7,183.1,141.3,183.1,140.9,183.1z M136.3,173.3c0,0.1-0.1,0.1-0.2,0.2s-0.1,0.1-0.2,0.1
			c-0.1,0-0.2,0-0.3-0.1c-0.1-0.1-0.3-0.2-0.5-0.3c-0.2-0.1-0.4-0.2-0.7-0.3s-0.6-0.1-0.9-0.1c-0.3,0-0.7,0-0.9,0.1
			c-0.3,0.1-0.5,0.2-0.7,0.4s-0.3,0.3-0.4,0.6c-0.1,0.2-0.1,0.4-0.1,0.7c0,0.3,0.1,0.6,0.2,0.8s0.4,0.4,0.6,0.5
			c0.3,0.1,0.6,0.3,0.9,0.4c0.3,0.1,0.7,0.2,1,0.3c0.3,0.1,0.7,0.2,1,0.4s0.6,0.3,0.9,0.6c0.3,0.2,0.5,0.5,0.6,0.8
			c0.2,0.3,0.2,0.7,0.2,1.2c0,0.5-0.1,1-0.3,1.4s-0.4,0.8-0.7,1.1c-0.3,0.3-0.7,0.6-1.2,0.8s-1,0.3-1.6,0.3c-0.7,0-1.4-0.1-2-0.4
			s-1.1-0.6-1.6-1.1l0.4-0.7c0-0.1,0.1-0.1,0.2-0.1c0.1,0,0.1-0.1,0.2-0.1c0.1,0,0.1,0,0.2,0.1c0.1,0.1,0.2,0.1,0.3,0.2
			s0.2,0.2,0.4,0.3c0.1,0.1,0.3,0.2,0.5,0.3s0.4,0.2,0.6,0.2c0.2,0.1,0.5,0.1,0.8,0.1c0.4,0,0.7-0.1,1-0.2c0.3-0.1,0.5-0.2,0.7-0.4
			c0.2-0.2,0.4-0.4,0.5-0.7c0.1-0.3,0.2-0.5,0.2-0.9c0-0.3-0.1-0.6-0.2-0.9c-0.2-0.2-0.4-0.4-0.6-0.6c-0.3-0.1-0.5-0.3-0.9-0.4
			c-0.3-0.1-0.7-0.2-1-0.3c-0.3-0.1-0.7-0.2-1-0.4c-0.3-0.1-0.6-0.3-0.9-0.6c-0.3-0.2-0.5-0.5-0.6-0.9s-0.2-0.8-0.2-1.3
			c0-0.4,0.1-0.8,0.2-1.2s0.4-0.7,0.7-1s0.7-0.5,1.1-0.7s0.9-0.3,1.5-0.3c0.6,0,1.2,0.1,1.7,0.3s1,0.5,1.4,0.9L136.3,173.3z"/>
	</defs>
	<clipPath id="SVGID_42_">
		<use xlink:href="#SVGID_41_"  style="overflow:visible;"/>
	</clipPath>
	<g class="st20">
		<defs>
			<rect id="SVGID_43_" width="355" height="573"/>
		</defs>
		<clipPath id="SVGID_44_">
			<use xlink:href="#SVGID_43_"  style="overflow:visible;"/>
		</clipPath>
		<rect x="124.5" y="166.2" class="st21" width="113.9" height="21.9"/>
	</g>
</g>
<g>
	<defs>
		<circle id="SVGID_45_" cx="65" cy="287" r="45"/>
	</defs>
	<clipPath id="SVGID_46_">
		<use xlink:href="#SVGID_45_"  style="overflow:visible;"/>
	</clipPath>
	<g class="st22">
		<defs>
			<rect id="SVGID_47_" width="355" height="573"/>
		</defs>
		<clipPath id="SVGID_48_">
			<use xlink:href="#SVGID_47_"  style="overflow:visible;"/>
		</clipPath>
		<rect x="15" y="237" class="st23" width="100" height="100"/>
	</g>
</g>
<g>
	<defs>
		<path id="SVGID_49_" d="M69,295.7c0.4,0,0.8-0.2,1.2-0.5c0.3-0.3,0.5-0.7,0.5-1.2c0-0.4-0.2-0.8-0.5-1.2c-0.3-0.3-0.7-0.5-1.2-0.5
			c-0.5,0-0.9,0.2-1.2,0.5c-0.3,0.3-0.5,0.7-0.5,1.2c0,0.5,0.2,0.9,0.5,1.2C68.1,295.5,68.5,295.7,69,295.7z M69,290.2
			c1.1,0,2,0.4,2.7,1.1c0.8,0.8,1.1,1.7,1.1,2.7c0,1.1-0.4,2-1.1,2.8c-0.8,0.8-1.7,1.1-2.7,1.1c-1.1,0-2-0.4-2.8-1.1
			c-0.8-0.8-1.1-1.7-1.1-2.8c0-1.1,0.4-2,1.1-2.7C67,290.5,67.9,290.2,69,290.2z M62.1,291.6c0.1-0.1,0.2-0.2,0.4-0.3
			c0.1-0.1,0.3-0.1,0.4-0.1c0.3,0,0.6,0.1,0.8,0.3c0.2,0.2,0.3,0.5,0.3,0.8c0,0.2,0,0.3-0.1,0.4c-0.1,0.1-0.1,0.2-0.3,0.4l-3.3,3.3
			c-0.1,0.1-0.2,0.2-0.4,0.3c-0.1,0.1-0.3,0.1-0.4,0.1s-0.3,0-0.4-0.1c-0.1-0.1-0.2-0.1-0.4-0.3l-1.1-1.1c-0.1-0.1-0.1-0.2-0.2-0.3
			c0-0.1-0.1-0.3-0.1-0.4c0-0.3,0.1-0.5,0.3-0.8c0.2-0.2,0.5-0.3,0.8-0.3c0.1,0,0.3,0,0.4,0.1c0.1,0.1,0.2,0.1,0.4,0.2l0.3,0.3
			L62.1,291.6z M62.1,282.7c0.1-0.1,0.2-0.2,0.4-0.2c0.1-0.1,0.3-0.1,0.4-0.1c0.3,0,0.6,0.1,0.8,0.3c0.2,0.2,0.3,0.5,0.3,0.8
			c0,0.2,0,0.3-0.1,0.4c-0.1,0.1-0.1,0.3-0.3,0.3l-3.3,3.4c-0.1,0.1-0.2,0.2-0.4,0.2c-0.1,0.1-0.3,0.1-0.4,0.1s-0.3,0-0.4-0.1
			c-0.1-0.1-0.2-0.1-0.4-0.2l-1.1-1.1c-0.1-0.1-0.1-0.2-0.2-0.3c0-0.1-0.1-0.3-0.1-0.4c0-0.3,0.1-0.6,0.3-0.8
			c0.2-0.2,0.5-0.3,0.8-0.3c0.1,0,0.3,0,0.4,0.1c0.1,0.1,0.2,0.1,0.4,0.2l0.3,0.3L62.1,282.7z M70.9,282.7c0.1-0.1,0.2-0.2,0.4-0.2
			c0.1-0.1,0.3-0.1,0.4-0.1c0.3,0,0.5,0.1,0.8,0.3c0.2,0.2,0.3,0.5,0.3,0.8c0,0.2,0,0.3-0.1,0.4c-0.1,0.1-0.1,0.3-0.2,0.3l-3.3,3.4
			c-0.1,0.1-0.2,0.2-0.4,0.2c-0.1,0.1-0.3,0.1-0.4,0.1c-0.1,0-0.3,0-0.4-0.1c-0.1-0.1-0.3-0.1-0.4-0.2l-1.1-1.1
			c-0.1-0.1-0.1-0.2-0.2-0.3c-0.1-0.1-0.1-0.3-0.1-0.4c0-0.3,0.1-0.6,0.3-0.8c0.2-0.2,0.5-0.3,0.8-0.3c0.1,0,0.3,0,0.4,0.1
			c0.1,0.1,0.2,0.1,0.3,0.2l0.3,0.3L70.9,282.7z M76.2,300.2v-23.3H74c0,0.9-0.3,1.7-1,2.3c-0.7,0.7-1.4,1-2.4,1H59.5
			c-0.9,0-1.7-0.3-2.4-1c-0.7-0.7-1-1.4-1-2.3H54v23.3H76.2z M60.6,273.5v2.2h8.9v-2.2H60.6z M77.3,272.4c0.9,0,1.7,0.3,2.3,1
			c0.7,0.7,1,1.4,1,2.3v25.5c0,0.9-0.3,1.7-1,2.4c-0.7,0.7-1.4,1-2.3,1H52.8c-0.9,0-1.7-0.3-2.3-1c-0.7-0.7-1-1.4-1-2.4v-25.5
			c0-0.9,0.3-1.7,1-2.3c0.7-0.7,1.4-1,2.3-1h3.3c0-0.9,0.3-1.7,1-2.4c0.7-0.7,1.4-1,2.4-1h11.1c0.9,0,1.7,0.3,2.4,1
			c0.7,0.7,1,1.4,1,2.4H77.3z"/>
	</defs>
	<clipPath id="SVGID_50_">
		<use xlink:href="#SVGID_49_"  style="overflow:visible;"/>
	</clipPath>
	<g class="st24">
		<defs>
			<rect id="SVGID_51_" width="355" height="573"/>
		</defs>
		<clipPath id="SVGID_52_">
			<use xlink:href="#SVGID_51_"  style="overflow:visible;"/>
		</clipPath>
		<rect x="44.5" y="264" class="st25" width="41.1" height="45.6"/>
	</g>
</g>
<g>
	<defs>
		<path id="SVGID_53_" d="M69,513.7c0.4,0,0.8-0.2,1.2-0.5c0.3-0.3,0.5-0.7,0.5-1.2c0-0.4-0.2-0.8-0.5-1.2c-0.3-0.3-0.7-0.5-1.2-0.5
			c-0.5,0-0.9,0.2-1.2,0.5c-0.3,0.3-0.5,0.7-0.5,1.2c0,0.5,0.2,0.9,0.5,1.2C68.1,513.5,68.5,513.7,69,513.7z M69,508.2
			c1.1,0,2,0.4,2.7,1.1c0.8,0.8,1.1,1.7,1.1,2.7c0,1.1-0.4,2-1.1,2.8c-0.8,0.8-1.7,1.1-2.7,1.1c-1.1,0-2-0.4-2.8-1.1
			c-0.8-0.8-1.1-1.7-1.1-2.8c0-1.1,0.4-2,1.1-2.7C67,508.5,67.9,508.2,69,508.2z M62.1,509.6c0.1-0.1,0.2-0.2,0.4-0.3
			c0.1-0.1,0.3-0.1,0.4-0.1c0.3,0,0.6,0.1,0.8,0.3c0.2,0.2,0.3,0.5,0.3,0.8c0,0.2,0,0.3-0.1,0.4c-0.1,0.1-0.1,0.2-0.3,0.4l-3.3,3.3
			c-0.1,0.1-0.2,0.2-0.4,0.3c-0.1,0.1-0.3,0.1-0.4,0.1s-0.3,0-0.4-0.1s-0.2-0.1-0.4-0.3l-1.1-1.1c-0.1-0.1-0.1-0.2-0.2-0.3
			c0-0.1-0.1-0.3-0.1-0.4c0-0.3,0.1-0.5,0.3-0.8c0.2-0.2,0.5-0.3,0.8-0.3c0.1,0,0.3,0,0.4,0.1c0.1,0.1,0.2,0.1,0.4,0.2l0.3,0.3
			L62.1,509.6z M62.1,500.7c0.1-0.1,0.2-0.2,0.4-0.2c0.1-0.1,0.3-0.1,0.4-0.1c0.3,0,0.6,0.1,0.8,0.3c0.2,0.2,0.3,0.5,0.3,0.8
			c0,0.2,0,0.3-0.1,0.4c-0.1,0.1-0.1,0.3-0.3,0.3l-3.3,3.4c-0.1,0.1-0.2,0.2-0.4,0.2c-0.1,0.1-0.3,0.1-0.4,0.1s-0.3,0-0.4-0.1
			s-0.2-0.1-0.4-0.2l-1.1-1.1c-0.1-0.1-0.1-0.2-0.2-0.3c0-0.1-0.1-0.3-0.1-0.4c0-0.3,0.1-0.6,0.3-0.8c0.2-0.2,0.5-0.3,0.8-0.3
			c0.1,0,0.3,0,0.4,0.1c0.1,0.1,0.2,0.1,0.4,0.2l0.3,0.3L62.1,500.7z M70.9,500.7c0.1-0.1,0.2-0.2,0.4-0.2c0.1-0.1,0.3-0.1,0.4-0.1
			c0.3,0,0.5,0.1,0.8,0.3c0.2,0.2,0.3,0.5,0.3,0.8c0,0.2,0,0.3-0.1,0.4c-0.1,0.1-0.1,0.3-0.2,0.3l-3.3,3.4c-0.1,0.1-0.2,0.2-0.4,0.2
			c-0.1,0.1-0.3,0.1-0.4,0.1c-0.1,0-0.3,0-0.4-0.1c-0.1-0.1-0.3-0.1-0.4-0.2l-1.1-1.1c-0.1-0.1-0.1-0.2-0.2-0.3
			c-0.1-0.1-0.1-0.3-0.1-0.4c0-0.3,0.1-0.6,0.3-0.8c0.2-0.2,0.5-0.3,0.8-0.3c0.1,0,0.3,0,0.4,0.1c0.1,0.1,0.2,0.1,0.3,0.2l0.3,0.3
			L70.9,500.7z M76.2,518.2v-23.3H74c0,0.9-0.3,1.7-1,2.3c-0.7,0.7-1.4,1-2.4,1H59.5c-0.9,0-1.7-0.3-2.4-1c-0.7-0.7-1-1.4-1-2.3H54
			v23.3H76.2z M60.6,491.5v2.2h8.9v-2.2H60.6z M77.3,490.4c0.9,0,1.7,0.3,2.3,1c0.7,0.7,1,1.4,1,2.3v25.5c0,0.9-0.3,1.7-1,2.4
			c-0.7,0.7-1.4,1-2.3,1H52.8c-0.9,0-1.7-0.3-2.3-1c-0.7-0.7-1-1.4-1-2.4v-25.5c0-0.9,0.3-1.7,1-2.3c0.7-0.7,1.4-1,2.3-1h3.3
			c0-0.9,0.3-1.7,1-2.4c0.7-0.7,1.4-1,2.4-1h11.1c0.9,0,1.7,0.3,2.4,1c0.7,0.7,1,1.4,1,2.4H77.3z"/>
	</defs>
	<clipPath id="SVGID_54_">
		<use xlink:href="#SVGID_53_"  style="overflow:visible;"/>
	</clipPath>
	<g class="st26">
		<defs>
			<rect id="SVGID_55_" width="355" height="573"/>
		</defs>
		<clipPath id="SVGID_56_">
			<use xlink:href="#SVGID_55_"  style="overflow:visible;"/>
		</clipPath>
		<rect x="44.5" y="482" class="st27" width="41.1" height="45.6"/>
	</g>
</g>
<g>
	<defs>
		<path id="SVGID_57_" d="M297.5,287.2c0.3-0.4,0.7-0.8,1.2-1c0.4-0.3,1-0.4,1.5-0.4c0.5,0,0.9,0.1,1.3,0.3c0.4,0.2,0.7,0.4,1,0.8
			c0.3,0.3,0.5,0.8,0.6,1.3c0.1,0.5,0.2,1.1,0.2,1.8c0,0.6-0.1,1.2-0.2,1.7s-0.4,1-0.7,1.3s-0.7,0.7-1.1,0.9
			c-0.4,0.2-0.9,0.3-1.5,0.3c-0.5,0-0.9-0.1-1.3-0.3c-0.4-0.2-0.7-0.4-0.9-0.7v3.6h-1.4v-10.8h0.9c0.2,0,0.3,0.1,0.4,0.3
			L297.5,287.2z M297.6,292c0.3,0.4,0.5,0.6,0.9,0.7c0.3,0.1,0.7,0.2,1,0.2c0.8,0,1.3-0.3,1.7-0.8c0.4-0.5,0.6-1.3,0.6-2.3
			c0-0.5,0-1-0.1-1.4c-0.1-0.4-0.2-0.7-0.4-0.9s-0.4-0.4-0.6-0.5s-0.5-0.2-0.9-0.2c-0.5,0-0.9,0.1-1.2,0.3c-0.3,0.2-0.7,0.5-1,0.9
			V292z M288.5,287.2c0.3-0.4,0.7-0.8,1.2-1c0.4-0.3,1-0.4,1.5-0.4c0.5,0,0.9,0.1,1.3,0.3c0.4,0.2,0.7,0.4,1,0.8
			c0.3,0.3,0.5,0.8,0.6,1.3c0.1,0.5,0.2,1.1,0.2,1.8c0,0.6-0.1,1.2-0.2,1.7s-0.4,1-0.7,1.3s-0.7,0.7-1.1,0.9s-0.9,0.3-1.5,0.3
			c-0.5,0-0.9-0.1-1.3-0.3c-0.4-0.2-0.7-0.4-0.9-0.7v3.6h-1.4v-10.8h0.9c0.2,0,0.3,0.1,0.4,0.3L288.5,287.2z M288.6,292
			c0.3,0.4,0.5,0.6,0.9,0.7c0.3,0.1,0.7,0.2,1,0.2c0.8,0,1.3-0.3,1.7-0.8c0.4-0.5,0.6-1.3,0.6-2.3c0-0.5,0-1-0.1-1.4
			c-0.1-0.4-0.2-0.7-0.4-0.9s-0.4-0.4-0.6-0.5c-0.3-0.1-0.5-0.2-0.9-0.2c-0.5,0-0.9,0.1-1.2,0.3s-0.7,0.5-1,0.9V292z M286,294h-1.2
			c-0.1,0-0.3,0-0.3-0.1s-0.1-0.2-0.2-0.3l-1.1-2.8h-5.1l-1.1,2.8c0,0.1-0.1,0.2-0.2,0.3s-0.2,0.1-0.3,0.1h-1.2l4.6-11.5h1.6
			L286,294z M282.8,289.7l-1.8-4.7c-0.1-0.1-0.1-0.3-0.2-0.5c-0.1-0.2-0.1-0.4-0.2-0.6c-0.1,0.4-0.2,0.8-0.3,1.1l-1.8,4.7H282.8z
			 M269.6,294.1c-0.6,0-1.1-0.2-1.5-0.5c-0.3-0.4-0.5-0.9-0.5-1.5v-5h-1c-0.1,0-0.2,0-0.2-0.1c-0.1-0.1-0.1-0.1-0.1-0.2v-0.6
			l1.3-0.2l0.3-2.5c0-0.1,0.1-0.1,0.1-0.2s0.1-0.1,0.2-0.1h0.7v2.8h2.3v1H269v4.9c0,0.3,0.1,0.6,0.2,0.8c0.2,0.2,0.4,0.2,0.6,0.2
			c0.1,0,0.3,0,0.4-0.1c0.1,0,0.2-0.1,0.3-0.1c0.1,0,0.1-0.1,0.2-0.1c0.1,0,0.1-0.1,0.1-0.1c0.1,0,0.1,0,0.2,0.1l0.4,0.7
			c-0.2,0.2-0.5,0.4-0.9,0.5C270.3,294.1,269.9,294.1,269.6,294.1z M259.6,287.1c0.2-0.2,0.4-0.4,0.6-0.5s0.4-0.3,0.6-0.4
			c0.2-0.1,0.5-0.2,0.7-0.3c0.2-0.1,0.5-0.1,0.8-0.1c0.4,0,0.8,0.1,1.2,0.2c0.3,0.1,0.6,0.4,0.8,0.6c0.2,0.3,0.4,0.6,0.5,1
			c0.1,0.4,0.2,0.8,0.2,1.3v5.2h-1.4v-5.2c0-0.6-0.1-1.1-0.4-1.4c-0.3-0.3-0.7-0.5-1.3-0.5c-0.4,0-0.8,0.1-1.2,0.3
			c-0.4,0.2-0.7,0.5-1,0.8v6h-1.4v-8.1h0.9c0.2,0,0.3,0.1,0.4,0.3L259.6,287.1z M256.4,292.9c-0.2,0.2-0.4,0.4-0.6,0.6
			c-0.2,0.2-0.5,0.3-0.8,0.4c-0.3,0.1-0.6,0.2-0.9,0.2c-0.3,0.1-0.6,0.1-0.9,0.1c-0.6,0-1.1-0.1-1.5-0.3s-0.9-0.5-1.2-0.8
			c-0.3-0.4-0.6-0.8-0.8-1.4c-0.2-0.5-0.3-1.2-0.3-1.9c0-0.6,0.1-1.1,0.3-1.6c0.2-0.5,0.4-0.9,0.7-1.3c0.3-0.4,0.7-0.6,1.2-0.8
			c0.5-0.2,1-0.3,1.6-0.3c0.5,0,0.9,0.1,1.3,0.2c0.4,0.2,0.8,0.4,1.1,0.7s0.5,0.7,0.7,1.1c0.2,0.5,0.3,1,0.3,1.5
			c0,0.2,0,0.4-0.1,0.4s-0.1,0.1-0.3,0.1h-5.4c0,0.5,0.1,1,0.2,1.3c0.1,0.4,0.3,0.7,0.5,0.9s0.5,0.4,0.8,0.6c0.3,0.1,0.7,0.2,1,0.2
			c0.4,0,0.7,0,0.9-0.1s0.5-0.2,0.7-0.3c0.2-0.1,0.3-0.2,0.5-0.3c0.1-0.1,0.2-0.1,0.3-0.1c0.1,0,0.2,0,0.3,0.1L256.4,292.9z
			 M255.2,289.1c0-0.3,0-0.6-0.1-0.9c-0.1-0.3-0.2-0.5-0.4-0.7c-0.2-0.2-0.4-0.4-0.7-0.5c-0.3-0.1-0.5-0.2-0.9-0.2
			c-0.7,0-1.2,0.2-1.6,0.6c-0.4,0.4-0.6,0.9-0.7,1.7H255.2z M236.6,294v-8.1h0.9c0.2,0,0.3,0.1,0.4,0.3l0.1,0.8
			c0.3-0.4,0.6-0.7,1-0.9c0.4-0.2,0.8-0.4,1.3-0.4c0.5,0,1,0.2,1.3,0.5c0.3,0.3,0.6,0.7,0.7,1.2c0.1-0.3,0.3-0.5,0.5-0.8
			c0.2-0.2,0.4-0.4,0.6-0.5c0.2-0.1,0.5-0.2,0.7-0.3c0.3-0.1,0.5-0.1,0.8-0.1c0.4,0,0.8,0.1,1.1,0.2c0.3,0.1,0.6,0.3,0.8,0.6
			c0.2,0.3,0.4,0.6,0.5,1c0.1,0.4,0.2,0.8,0.2,1.3v5.2h-1.4v-5.2c0-0.6-0.1-1.1-0.4-1.4s-0.7-0.5-1.2-0.5c-0.2,0-0.5,0-0.7,0.1
			c-0.2,0.1-0.4,0.2-0.6,0.4s-0.3,0.4-0.4,0.6c-0.1,0.2-0.1,0.5-0.1,0.8v5.2h-1.4v-5.2c0-0.7-0.1-1.1-0.4-1.5
			c-0.3-0.3-0.6-0.5-1.1-0.5c-0.4,0-0.7,0.1-1,0.3c-0.3,0.2-0.6,0.4-0.8,0.8v6H236.6z M233.4,294.1c-0.6,0-1.1-0.2-1.5-0.5
			s-0.5-0.9-0.5-1.5v-5h-1c-0.1,0-0.2,0-0.2-0.1c-0.1-0.1-0.1-0.1-0.1-0.2v-0.6l1.3-0.2l0.3-2.5c0-0.1,0.1-0.1,0.1-0.2
			s0.1-0.1,0.2-0.1h0.7v2.8h2.3v1h-2.3v4.9c0,0.3,0.1,0.6,0.2,0.8c0.2,0.2,0.4,0.2,0.6,0.2c0.1,0,0.3,0,0.4-0.1s0.2-0.1,0.3-0.1
			s0.1-0.1,0.2-0.1c0.1,0,0.1-0.1,0.1-0.1c0.1,0,0.1,0,0.2,0.1l0.4,0.7c-0.2,0.2-0.5,0.4-0.9,0.5
			C234.1,294.1,233.8,294.1,233.4,294.1z M226.4,287.5c0.3-0.6,0.6-1,0.9-1.3c0.4-0.3,0.8-0.5,1.4-0.5c0.2,0,0.3,0,0.5,0.1
			c0.2,0,0.3,0.1,0.4,0.2l-0.1,1.1c0,0.1-0.1,0.2-0.2,0.2c-0.1,0-0.2,0-0.3,0c-0.1,0-0.3,0-0.5,0c-0.3,0-0.5,0-0.7,0.1
			s-0.4,0.2-0.5,0.3s-0.3,0.3-0.4,0.5c-0.1,0.2-0.2,0.5-0.3,0.7v5.1h-1.4v-8.1h0.8c0.2,0,0.3,0,0.3,0.1c0.1,0.1,0.1,0.2,0.1,0.3
			L226.4,287.5z M216.9,287c0.4-0.4,0.9-0.8,1.4-1c0.5-0.2,1.1-0.3,1.7-0.3c0.5,0,0.9,0.1,1.2,0.2c0.4,0.1,0.6,0.4,0.9,0.6
			c0.2,0.3,0.4,0.6,0.5,1s0.2,0.8,0.2,1.2v5.2h-0.6c-0.1,0-0.2,0-0.3-0.1c-0.1,0-0.1-0.1-0.2-0.3l-0.2-0.8c-0.2,0.2-0.4,0.4-0.6,0.5
			c-0.2,0.2-0.4,0.3-0.6,0.4c-0.2,0.1-0.5,0.2-0.7,0.2s-0.5,0.1-0.8,0.1c-0.3,0-0.6,0-0.9-0.1s-0.5-0.2-0.7-0.4
			c-0.2-0.2-0.4-0.4-0.5-0.7c-0.1-0.3-0.2-0.6-0.2-1c0-0.3,0.1-0.6,0.3-0.9c0.2-0.3,0.5-0.6,0.9-0.8c0.4-0.2,0.9-0.4,1.5-0.6
			c0.6-0.1,1.4-0.2,2.3-0.3v-0.6c0-0.6-0.1-1.1-0.4-1.4s-0.7-0.5-1.2-0.5c-0.4,0-0.6,0-0.9,0.1c-0.2,0.1-0.4,0.2-0.6,0.3
			c-0.2,0.1-0.3,0.2-0.4,0.3c-0.1,0.1-0.2,0.1-0.4,0.1c-0.1,0-0.2,0-0.2-0.1c-0.1-0.1-0.1-0.1-0.2-0.2L216.9,287z M221.5,290.4
			c-0.7,0-1.2,0.1-1.7,0.2c-0.5,0.1-0.8,0.2-1.1,0.3c-0.3,0.1-0.5,0.3-0.6,0.5c-0.1,0.2-0.2,0.4-0.2,0.6c0,0.2,0,0.4,0.1,0.6
			c0.1,0.2,0.2,0.3,0.3,0.4s0.3,0.2,0.4,0.2s0.3,0.1,0.5,0.1c0.3,0,0.5,0,0.7-0.1c0.2-0.1,0.4-0.1,0.6-0.2s0.4-0.2,0.5-0.3
			s0.3-0.3,0.5-0.5V290.4z M209.5,287.2c0.3-0.4,0.7-0.8,1.2-1c0.4-0.3,1-0.4,1.5-0.4c0.5,0,0.9,0.1,1.3,0.3c0.4,0.2,0.7,0.4,1,0.8
			c0.3,0.3,0.5,0.8,0.6,1.3c0.1,0.5,0.2,1.1,0.2,1.8c0,0.6-0.1,1.2-0.2,1.7c-0.2,0.5-0.4,1-0.7,1.3s-0.7,0.7-1.1,0.9
			c-0.4,0.2-0.9,0.3-1.5,0.3c-0.5,0-0.9-0.1-1.3-0.3c-0.4-0.2-0.7-0.4-0.9-0.7v3.6h-1.4v-10.8h0.9c0.2,0,0.3,0.1,0.4,0.3
			L209.5,287.2z M209.6,292c0.3,0.4,0.5,0.6,0.9,0.7c0.3,0.1,0.7,0.2,1,0.2c0.8,0,1.3-0.3,1.7-0.8c0.4-0.5,0.6-1.3,0.6-2.3
			c0-0.5,0-1-0.1-1.4c-0.1-0.4-0.2-0.7-0.4-0.9c-0.2-0.2-0.4-0.4-0.6-0.5c-0.3-0.1-0.5-0.2-0.9-0.2c-0.5,0-0.9,0.1-1.2,0.3
			s-0.7,0.5-1,0.9V292z M206.3,292.9c-0.2,0.2-0.4,0.4-0.6,0.6c-0.2,0.2-0.5,0.3-0.8,0.4c-0.3,0.1-0.6,0.2-0.9,0.2
			c-0.3,0.1-0.6,0.1-0.9,0.1c-0.6,0-1.1-0.1-1.5-0.3s-0.9-0.5-1.2-0.8c-0.3-0.4-0.6-0.8-0.8-1.4c-0.2-0.5-0.3-1.2-0.3-1.9
			c0-0.6,0.1-1.1,0.3-1.6c0.2-0.5,0.4-0.9,0.7-1.3c0.3-0.4,0.7-0.6,1.2-0.8c0.5-0.2,1-0.3,1.6-0.3c0.5,0,0.9,0.1,1.3,0.2
			c0.4,0.2,0.8,0.4,1.1,0.7s0.5,0.7,0.7,1.1c0.2,0.5,0.3,1,0.3,1.5c0,0.2,0,0.4-0.1,0.4c0,0.1-0.1,0.1-0.3,0.1h-5.4
			c0,0.5,0.1,1,0.2,1.3c0.1,0.4,0.3,0.7,0.5,0.9s0.5,0.4,0.8,0.6c0.3,0.1,0.7,0.2,1,0.2c0.4,0,0.7,0,0.9-0.1
			c0.3-0.1,0.5-0.2,0.7-0.3c0.2-0.1,0.3-0.2,0.5-0.3c0.1-0.1,0.2-0.1,0.3-0.1c0.1,0,0.2,0,0.3,0.1L206.3,292.9z M205.1,289.1
			c0-0.3,0-0.6-0.1-0.9c-0.1-0.3-0.2-0.5-0.4-0.7s-0.4-0.4-0.7-0.5c-0.3-0.1-0.5-0.2-0.9-0.2c-0.7,0-1.2,0.2-1.6,0.6
			c-0.4,0.4-0.6,0.9-0.7,1.7H205.1z M196.3,288.3c0-0.7-0.1-1.3-0.3-1.9s-0.5-1-0.8-1.4c-0.4-0.4-0.8-0.7-1.3-0.9s-1.1-0.3-1.7-0.3
			h-2.7v9h2.7c0.6,0,1.2-0.1,1.7-0.3s0.9-0.5,1.3-0.9c0.4-0.4,0.6-0.8,0.8-1.4C196.2,289.6,196.3,289,196.3,288.3z M197.9,288.3
			c0,0.9-0.1,1.6-0.4,2.3s-0.7,1.3-1.2,1.8c-0.5,0.5-1.1,0.9-1.8,1.2c-0.7,0.3-1.5,0.4-2.3,0.4H188v-11.5h4.3c0.8,0,1.6,0.1,2.3,0.4
			s1.3,0.7,1.8,1.2s0.9,1.1,1.2,1.8C197.8,286.6,197.9,287.4,197.9,288.3z M181.7,292.9c-0.2,0.2-0.4,0.4-0.6,0.6
			c-0.2,0.2-0.5,0.3-0.8,0.4c-0.3,0.1-0.6,0.2-0.9,0.2c-0.3,0.1-0.6,0.1-0.9,0.1c-0.6,0-1.1-0.1-1.5-0.3s-0.9-0.5-1.2-0.8
			c-0.3-0.4-0.6-0.8-0.8-1.4c-0.2-0.5-0.3-1.2-0.3-1.9c0-0.6,0.1-1.1,0.3-1.6c0.2-0.5,0.4-0.9,0.7-1.3c0.3-0.4,0.7-0.6,1.2-0.8
			c0.5-0.2,1-0.3,1.6-0.3c0.5,0,0.9,0.1,1.3,0.2c0.4,0.2,0.8,0.4,1.1,0.7s0.5,0.7,0.7,1.1c0.2,0.5,0.3,1,0.3,1.5
			c0,0.2,0,0.4-0.1,0.4s-0.1,0.1-0.3,0.1h-5.4c0,0.5,0.1,1,0.2,1.3c0.1,0.4,0.3,0.7,0.5,0.9c0.2,0.3,0.5,0.4,0.8,0.6
			c0.3,0.1,0.7,0.2,1,0.2c0.4,0,0.7,0,0.9-0.1s0.5-0.2,0.7-0.3s0.3-0.2,0.5-0.3s0.2-0.1,0.3-0.1c0.1,0,0.2,0,0.3,0.1L181.7,292.9z
			 M180.5,289.1c0-0.3,0-0.6-0.1-0.9c-0.1-0.3-0.2-0.5-0.4-0.7c-0.2-0.2-0.4-0.4-0.7-0.5c-0.3-0.1-0.5-0.2-0.9-0.2
			c-0.7,0-1.2,0.2-1.6,0.6c-0.4,0.4-0.6,0.9-0.7,1.7H180.5z M173.3,287.3c0,0.1-0.1,0.1-0.1,0.1c0,0-0.1,0-0.2,0
			c-0.1,0-0.2,0-0.3-0.1c-0.1-0.1-0.2-0.1-0.4-0.2c-0.1-0.1-0.3-0.2-0.5-0.2c-0.2-0.1-0.5-0.1-0.8-0.1c-0.4,0-0.8,0.1-1.1,0.2
			s-0.6,0.3-0.8,0.6c-0.2,0.3-0.4,0.6-0.5,1s-0.2,0.8-0.2,1.3c0,0.5,0.1,0.9,0.2,1.3c0.1,0.4,0.3,0.7,0.5,1c0.2,0.3,0.5,0.5,0.7,0.6
			c0.3,0.1,0.6,0.2,1,0.2c0.3,0,0.6,0,0.9-0.1s0.4-0.2,0.6-0.3s0.3-0.2,0.4-0.3c0.1-0.1,0.2-0.1,0.3-0.1c0.1,0,0.2,0,0.3,0.1
			l0.4,0.5c-0.2,0.2-0.4,0.4-0.6,0.6c-0.2,0.2-0.5,0.3-0.7,0.4c-0.3,0.1-0.5,0.2-0.8,0.2s-0.6,0.1-0.9,0.1c-0.5,0-1-0.1-1.4-0.3
			c-0.4-0.2-0.8-0.5-1.1-0.8c-0.3-0.4-0.6-0.8-0.8-1.3c-0.2-0.5-0.3-1.1-0.3-1.8c0-0.6,0.1-1.2,0.3-1.7s0.4-1,0.7-1.3
			c0.3-0.4,0.7-0.7,1.2-0.9c0.5-0.2,1-0.3,1.6-0.3c0.6,0,1.1,0.1,1.5,0.3c0.4,0.2,0.8,0.4,1.2,0.8L173.3,287.3z M160,287.1
			c0.2-0.2,0.4-0.4,0.6-0.5c0.2-0.2,0.4-0.3,0.6-0.4c0.2-0.1,0.5-0.2,0.7-0.3c0.2-0.1,0.5-0.1,0.8-0.1c0.4,0,0.8,0.1,1.2,0.2
			s0.6,0.4,0.8,0.6s0.4,0.6,0.5,1c0.1,0.4,0.2,0.8,0.2,1.3v5.2H164v-5.2c0-0.6-0.1-1.1-0.4-1.4c-0.3-0.3-0.7-0.5-1.3-0.5
			c-0.4,0-0.8,0.1-1.2,0.3c-0.4,0.2-0.7,0.5-1,0.8v6h-1.4v-8.1h0.9c0.2,0,0.3,0.1,0.4,0.3L160,287.1z M156.8,292.9
			c-0.2,0.2-0.4,0.4-0.6,0.6c-0.2,0.2-0.5,0.3-0.8,0.4c-0.3,0.1-0.6,0.2-0.9,0.2c-0.3,0.1-0.6,0.1-0.9,0.1c-0.6,0-1.1-0.1-1.5-0.3
			s-0.9-0.5-1.2-0.8c-0.3-0.4-0.6-0.8-0.8-1.4c-0.2-0.5-0.3-1.2-0.3-1.9c0-0.6,0.1-1.1,0.3-1.6c0.2-0.5,0.4-0.9,0.7-1.3
			c0.3-0.4,0.7-0.6,1.2-0.8c0.5-0.2,1-0.3,1.6-0.3c0.5,0,0.9,0.1,1.3,0.2c0.4,0.2,0.8,0.4,1.1,0.7s0.5,0.7,0.7,1.1
			c0.2,0.5,0.3,1,0.3,1.5c0,0.2,0,0.4-0.1,0.4c0,0.1-0.1,0.1-0.3,0.1h-5.4c0,0.5,0.1,1,0.2,1.3c0.1,0.4,0.3,0.7,0.5,0.9
			s0.5,0.4,0.8,0.6c0.3,0.1,0.7,0.2,1,0.2c0.4,0,0.7,0,0.9-0.1c0.3-0.1,0.5-0.2,0.7-0.3c0.2-0.1,0.3-0.2,0.5-0.3
			c0.1-0.1,0.2-0.1,0.3-0.1c0.1,0,0.2,0,0.3,0.1L156.8,292.9z M155.7,289.1c0-0.3,0-0.6-0.1-0.9c-0.1-0.3-0.2-0.5-0.4-0.7
			s-0.4-0.4-0.7-0.5c-0.3-0.1-0.5-0.2-0.9-0.2c-0.7,0-1.2,0.2-1.6,0.6c-0.4,0.4-0.6,0.9-0.7,1.7H155.7z M148.2,283.4
			c0,0.1,0,0.3-0.1,0.4s-0.1,0.2-0.2,0.3c-0.1,0.1-0.2,0.2-0.3,0.2c-0.1,0.1-0.3,0.1-0.4,0.1s-0.3,0-0.4-0.1
			c-0.1-0.1-0.2-0.1-0.3-0.2s-0.2-0.2-0.2-0.3s-0.1-0.2-0.1-0.4s0-0.3,0.1-0.4s0.1-0.2,0.2-0.3c0.1-0.1,0.2-0.2,0.3-0.2
			c0.1-0.1,0.2-0.1,0.4-0.1s0.3,0,0.4,0.1c0.1,0.1,0.2,0.1,0.3,0.2c0.1,0.1,0.2,0.2,0.2,0.3S148.2,283.2,148.2,283.4z M147.9,285.9
			v8.1h-1.4v-8.1H147.9z M144.4,287.3c0,0.1-0.1,0.1-0.1,0.1c0,0-0.1,0-0.2,0c-0.1,0-0.2,0-0.3-0.1c-0.1-0.1-0.2-0.1-0.4-0.2
			c-0.1-0.1-0.3-0.2-0.5-0.2c-0.2-0.1-0.5-0.1-0.8-0.1c-0.4,0-0.8,0.1-1.1,0.2s-0.6,0.3-0.8,0.6c-0.2,0.3-0.4,0.6-0.5,1
			s-0.2,0.8-0.2,1.3c0,0.5,0.1,0.9,0.2,1.3c0.1,0.4,0.3,0.7,0.5,1c0.2,0.3,0.5,0.5,0.7,0.6c0.3,0.1,0.6,0.2,1,0.2
			c0.3,0,0.6,0,0.9-0.1s0.4-0.2,0.6-0.3c0.1-0.1,0.3-0.2,0.4-0.3c0.1-0.1,0.2-0.1,0.3-0.1c0.1,0,0.2,0,0.3,0.1l0.4,0.5
			c-0.2,0.2-0.4,0.4-0.6,0.6c-0.2,0.2-0.5,0.3-0.7,0.4c-0.3,0.1-0.5,0.2-0.8,0.2c-0.3,0-0.6,0.1-0.9,0.1c-0.5,0-1-0.1-1.4-0.3
			c-0.4-0.2-0.8-0.5-1.1-0.8c-0.3-0.4-0.6-0.8-0.8-1.3c-0.2-0.5-0.3-1.1-0.3-1.8c0-0.6,0.1-1.2,0.3-1.7s0.4-1,0.7-1.3
			c0.3-0.4,0.7-0.7,1.2-0.9c0.5-0.2,1-0.3,1.6-0.3c0.6,0,1.1,0.1,1.5,0.3c0.4,0.2,0.8,0.4,1.2,0.8L144.4,287.3z M136.3,284.3
			c0,0.1-0.1,0.1-0.2,0.2s-0.1,0.1-0.2,0.1c-0.1,0-0.2,0-0.3-0.1c-0.1-0.1-0.3-0.2-0.5-0.3c-0.2-0.1-0.4-0.2-0.7-0.3
			s-0.6-0.1-0.9-0.1c-0.3,0-0.7,0-0.9,0.1c-0.3,0.1-0.5,0.2-0.7,0.4s-0.3,0.3-0.4,0.6c-0.1,0.2-0.1,0.4-0.1,0.7
			c0,0.3,0.1,0.6,0.2,0.8s0.4,0.4,0.6,0.5c0.3,0.1,0.6,0.3,0.9,0.4c0.3,0.1,0.7,0.2,1,0.3c0.3,0.1,0.7,0.2,1,0.4s0.6,0.3,0.9,0.6
			c0.3,0.2,0.5,0.5,0.6,0.8c0.2,0.3,0.2,0.7,0.2,1.2c0,0.5-0.1,1-0.3,1.4s-0.4,0.8-0.7,1.1c-0.3,0.3-0.7,0.6-1.2,0.8s-1,0.3-1.6,0.3
			c-0.7,0-1.4-0.1-2-0.4s-1.1-0.6-1.6-1.1l0.4-0.7c0-0.1,0.1-0.1,0.2-0.1c0.1,0,0.1-0.1,0.2-0.1c0.1,0,0.1,0,0.2,0.1
			c0.1,0.1,0.2,0.1,0.3,0.2s0.2,0.2,0.4,0.3c0.1,0.1,0.3,0.2,0.5,0.3s0.4,0.2,0.6,0.2c0.2,0.1,0.5,0.1,0.8,0.1c0.4,0,0.7-0.1,1-0.2
			c0.3-0.1,0.5-0.2,0.7-0.4c0.2-0.2,0.4-0.4,0.5-0.7c0.1-0.3,0.2-0.5,0.2-0.9c0-0.3-0.1-0.6-0.2-0.9c-0.2-0.2-0.4-0.4-0.6-0.6
			c-0.3-0.1-0.5-0.3-0.9-0.4c-0.3-0.1-0.7-0.2-1-0.3c-0.3-0.1-0.7-0.2-1-0.4c-0.3-0.1-0.6-0.3-0.9-0.6c-0.3-0.2-0.5-0.5-0.6-0.9
			s-0.2-0.8-0.2-1.3c0-0.4,0.1-0.8,0.2-1.2s0.4-0.7,0.7-1s0.7-0.5,1.1-0.7s0.9-0.3,1.5-0.3c0.6,0,1.2,0.1,1.7,0.3s1,0.5,1.4,0.9
			L136.3,284.3z"/>
	</defs>
	<clipPath id="SVGID_58_">
		<use xlink:href="#SVGID_57_"  style="overflow:visible;"/>
	</clipPath>
	<g class="st28">
		<defs>
			<rect id="SVGID_59_" width="355" height="573"/>
		</defs>
		<clipPath id="SVGID_60_">
			<use xlink:href="#SVGID_59_"  style="overflow:visible;"/>
		</clipPath>
		<rect x="124.5" y="277.3" class="st29" width="183.8" height="24.4"/>
	</g>
</g>
<g>
	<defs>
		<path id="SVGID_61_" d="M297.5,510.2c0.3-0.4,0.7-0.8,1.2-1c0.4-0.3,1-0.4,1.5-0.4c0.5,0,0.9,0.1,1.3,0.3c0.4,0.2,0.7,0.4,1,0.8
			c0.3,0.3,0.5,0.8,0.6,1.3c0.1,0.5,0.2,1.1,0.2,1.8c0,0.6-0.1,1.2-0.2,1.7c-0.2,0.5-0.4,1-0.7,1.3c-0.3,0.4-0.7,0.7-1.1,0.9
			c-0.4,0.2-0.9,0.3-1.5,0.3c-0.5,0-0.9-0.1-1.3-0.3c-0.4-0.2-0.7-0.4-0.9-0.7v3.6h-1.4v-10.8h0.9c0.2,0,0.3,0.1,0.4,0.3
			L297.5,510.2z M297.6,515c0.3,0.4,0.5,0.6,0.9,0.7c0.3,0.1,0.7,0.2,1,0.2c0.8,0,1.3-0.3,1.7-0.8c0.4-0.5,0.6-1.3,0.6-2.3
			c0-0.5,0-1-0.1-1.4c-0.1-0.4-0.2-0.7-0.4-0.9s-0.4-0.4-0.6-0.5s-0.5-0.2-0.9-0.2c-0.5,0-0.9,0.1-1.2,0.3c-0.3,0.2-0.7,0.5-1,0.9
			V515z M288.5,510.2c0.3-0.4,0.7-0.8,1.2-1c0.4-0.3,1-0.4,1.5-0.4c0.5,0,0.9,0.1,1.3,0.3c0.4,0.2,0.7,0.4,1,0.8
			c0.3,0.3,0.5,0.8,0.6,1.3c0.1,0.5,0.2,1.1,0.2,1.8c0,0.6-0.1,1.2-0.2,1.7c-0.2,0.5-0.4,1-0.7,1.3c-0.3,0.4-0.7,0.7-1.1,0.9
			s-0.9,0.3-1.5,0.3c-0.5,0-0.9-0.1-1.3-0.3c-0.4-0.2-0.7-0.4-0.9-0.7v3.6h-1.4v-10.8h0.9c0.2,0,0.3,0.1,0.4,0.3L288.5,510.2z
			 M288.6,515c0.3,0.4,0.5,0.6,0.9,0.7s0.7,0.2,1,0.2c0.8,0,1.3-0.3,1.7-0.8c0.4-0.5,0.6-1.3,0.6-2.3c0-0.5,0-1-0.1-1.4
			c-0.1-0.4-0.2-0.7-0.4-0.9s-0.4-0.4-0.6-0.5c-0.3-0.1-0.5-0.2-0.9-0.2c-0.5,0-0.9,0.1-1.2,0.3s-0.7,0.5-1,0.9V515z M286,517h-1.2
			c-0.1,0-0.3,0-0.3-0.1s-0.1-0.2-0.2-0.3l-1.1-2.8h-5.1l-1.1,2.8c0,0.1-0.1,0.2-0.2,0.3s-0.2,0.1-0.3,0.1h-1.2l4.6-11.5h1.6
			L286,517z M282.8,512.7l-1.8-4.7c-0.1-0.1-0.1-0.3-0.2-0.5c-0.1-0.2-0.1-0.4-0.2-0.6c-0.1,0.4-0.2,0.8-0.3,1.1l-1.8,4.7H282.8z
			 M269.6,517.1c-0.6,0-1.1-0.2-1.5-0.5c-0.3-0.4-0.5-0.9-0.5-1.5v-5h-1c-0.1,0-0.2,0-0.2-0.1c-0.1-0.1-0.1-0.1-0.1-0.2v-0.6
			l1.3-0.2l0.3-2.5c0-0.1,0.1-0.1,0.1-0.2c0.1-0.1,0.1-0.1,0.2-0.1h0.7v2.8h2.3v1H269v4.9c0,0.3,0.1,0.6,0.2,0.8
			c0.2,0.2,0.4,0.2,0.6,0.2c0.1,0,0.3,0,0.4-0.1c0.1,0,0.2-0.1,0.3-0.1c0.1,0,0.1-0.1,0.2-0.1c0.1,0,0.1-0.1,0.1-0.1
			c0.1,0,0.1,0,0.2,0.1l0.4,0.7c-0.2,0.2-0.5,0.4-0.9,0.5C270.3,517.1,269.9,517.1,269.6,517.1z M259.6,510.1
			c0.2-0.2,0.4-0.4,0.6-0.5c0.2-0.2,0.4-0.3,0.6-0.4c0.2-0.1,0.5-0.2,0.7-0.3c0.2-0.1,0.5-0.1,0.8-0.1c0.4,0,0.8,0.1,1.2,0.2
			c0.3,0.1,0.6,0.4,0.8,0.6c0.2,0.3,0.4,0.6,0.5,1c0.1,0.4,0.2,0.8,0.2,1.3v5.2h-1.4v-5.2c0-0.6-0.1-1.1-0.4-1.4
			c-0.3-0.3-0.7-0.5-1.3-0.5c-0.4,0-0.8,0.1-1.2,0.3c-0.4,0.2-0.7,0.5-1,0.8v6h-1.4v-8.1h0.9c0.2,0,0.3,0.1,0.4,0.3L259.6,510.1z
			 M256.4,515.9c-0.2,0.2-0.4,0.4-0.6,0.6c-0.2,0.2-0.5,0.3-0.8,0.4s-0.6,0.2-0.9,0.2c-0.3,0.1-0.6,0.1-0.9,0.1
			c-0.6,0-1.1-0.1-1.5-0.3s-0.9-0.5-1.2-0.8c-0.3-0.4-0.6-0.8-0.8-1.4c-0.2-0.5-0.3-1.2-0.3-1.9c0-0.6,0.1-1.1,0.3-1.6
			c0.2-0.5,0.4-0.9,0.7-1.3c0.3-0.4,0.7-0.6,1.2-0.8c0.5-0.2,1-0.3,1.6-0.3c0.5,0,0.9,0.1,1.3,0.2c0.4,0.2,0.8,0.4,1.1,0.7
			s0.5,0.7,0.7,1.1c0.2,0.5,0.3,1,0.3,1.5c0,0.2,0,0.4-0.1,0.4c0,0.1-0.1,0.1-0.3,0.1h-5.4c0,0.5,0.1,1,0.2,1.3
			c0.1,0.4,0.3,0.7,0.5,0.9c0.2,0.3,0.5,0.4,0.8,0.6c0.3,0.1,0.7,0.2,1,0.2c0.4,0,0.7,0,0.9-0.1c0.3-0.1,0.5-0.2,0.7-0.3
			c0.2-0.1,0.3-0.2,0.5-0.3c0.1-0.1,0.2-0.1,0.3-0.1c0.1,0,0.2,0,0.3,0.1L256.4,515.9z M255.2,512.1c0-0.3,0-0.6-0.1-0.9
			c-0.1-0.3-0.2-0.5-0.4-0.7c-0.2-0.2-0.4-0.4-0.7-0.5c-0.3-0.1-0.5-0.2-0.9-0.2c-0.7,0-1.2,0.2-1.6,0.6c-0.4,0.4-0.6,0.9-0.7,1.7
			H255.2z M236.6,517v-8.1h0.9c0.2,0,0.3,0.1,0.4,0.3l0.1,0.8c0.3-0.4,0.6-0.7,1-0.9c0.4-0.2,0.8-0.4,1.3-0.4c0.5,0,1,0.2,1.3,0.5
			s0.6,0.7,0.7,1.2c0.1-0.3,0.3-0.5,0.5-0.8c0.2-0.2,0.4-0.4,0.6-0.5c0.2-0.1,0.5-0.2,0.7-0.3c0.3-0.1,0.5-0.1,0.8-0.1
			c0.4,0,0.8,0.1,1.1,0.2c0.3,0.1,0.6,0.3,0.8,0.6c0.2,0.3,0.4,0.6,0.5,1c0.1,0.4,0.2,0.8,0.2,1.3v5.2h-1.4v-5.2
			c0-0.6-0.1-1.1-0.4-1.4s-0.7-0.5-1.2-0.5c-0.2,0-0.5,0-0.7,0.1c-0.2,0.1-0.4,0.2-0.6,0.4s-0.3,0.4-0.4,0.6
			c-0.1,0.2-0.1,0.5-0.1,0.8v5.2h-1.4v-5.2c0-0.7-0.1-1.1-0.4-1.5c-0.3-0.3-0.6-0.5-1.1-0.5c-0.4,0-0.7,0.1-1,0.3
			c-0.3,0.2-0.6,0.4-0.8,0.8v6H236.6z M233.4,517.1c-0.6,0-1.1-0.2-1.5-0.5c-0.3-0.4-0.5-0.9-0.5-1.5v-5h-1c-0.1,0-0.2,0-0.2-0.1
			c-0.1-0.1-0.1-0.1-0.1-0.2v-0.6l1.3-0.2l0.3-2.5c0-0.1,0.1-0.1,0.1-0.2c0.1-0.1,0.1-0.1,0.2-0.1h0.7v2.8h2.3v1h-2.3v4.9
			c0,0.3,0.1,0.6,0.2,0.8c0.2,0.2,0.4,0.2,0.6,0.2c0.1,0,0.3,0,0.4-0.1c0.1,0,0.2-0.1,0.3-0.1c0.1,0,0.1-0.1,0.2-0.1
			c0.1,0,0.1-0.1,0.1-0.1c0.1,0,0.1,0,0.2,0.1l0.4,0.7c-0.2,0.2-0.5,0.4-0.9,0.5C234.1,517.1,233.8,517.1,233.4,517.1z M226.4,510.5
			c0.3-0.6,0.6-1,0.9-1.3c0.4-0.3,0.8-0.5,1.4-0.5c0.2,0,0.3,0,0.5,0.1c0.2,0,0.3,0.1,0.4,0.2l-0.1,1.1c0,0.1-0.1,0.2-0.2,0.2
			c-0.1,0-0.2,0-0.3,0c-0.1,0-0.3,0-0.5,0c-0.3,0-0.5,0-0.7,0.1s-0.4,0.2-0.5,0.3s-0.3,0.3-0.4,0.5c-0.1,0.2-0.2,0.5-0.3,0.7v5.1
			h-1.4v-8.1h0.8c0.2,0,0.3,0,0.3,0.1c0.1,0.1,0.1,0.2,0.1,0.3L226.4,510.5z M216.9,510c0.4-0.4,0.9-0.8,1.4-1
			c0.5-0.2,1.1-0.3,1.7-0.3c0.5,0,0.9,0.1,1.2,0.2c0.4,0.1,0.6,0.4,0.9,0.6c0.2,0.3,0.4,0.6,0.5,1s0.2,0.8,0.2,1.2v5.2h-0.6
			c-0.1,0-0.2,0-0.3-0.1c-0.1,0-0.1-0.1-0.2-0.3l-0.2-0.8c-0.2,0.2-0.4,0.4-0.6,0.5c-0.2,0.2-0.4,0.3-0.6,0.4s-0.5,0.2-0.7,0.2
			c-0.3,0.1-0.5,0.1-0.8,0.1c-0.3,0-0.6,0-0.9-0.1c-0.3-0.1-0.5-0.2-0.7-0.4c-0.2-0.2-0.4-0.4-0.5-0.7c-0.1-0.3-0.2-0.6-0.2-1
			c0-0.3,0.1-0.6,0.3-0.9c0.2-0.3,0.5-0.6,0.9-0.8c0.4-0.2,0.9-0.4,1.5-0.6c0.6-0.1,1.4-0.2,2.3-0.3v-0.6c0-0.6-0.1-1.1-0.4-1.4
			s-0.7-0.5-1.2-0.5c-0.4,0-0.6,0-0.9,0.1c-0.2,0.1-0.4,0.2-0.6,0.3c-0.2,0.1-0.3,0.2-0.4,0.3c-0.1,0.1-0.2,0.1-0.4,0.1
			c-0.1,0-0.2,0-0.2-0.1c-0.1-0.1-0.1-0.1-0.2-0.2L216.9,510z M221.5,513.4c-0.7,0-1.2,0.1-1.7,0.2c-0.5,0.1-0.8,0.2-1.1,0.3
			c-0.3,0.1-0.5,0.3-0.6,0.5s-0.2,0.4-0.2,0.6c0,0.2,0,0.4,0.1,0.6c0.1,0.2,0.2,0.3,0.3,0.4c0.1,0.1,0.3,0.2,0.4,0.2
			s0.3,0.1,0.5,0.1c0.3,0,0.5,0,0.7-0.1c0.2-0.1,0.4-0.1,0.6-0.2c0.2-0.1,0.4-0.2,0.5-0.3c0.2-0.1,0.3-0.3,0.5-0.5V513.4z
			 M209.5,510.2c0.3-0.4,0.7-0.8,1.2-1c0.4-0.3,1-0.4,1.5-0.4c0.5,0,0.9,0.1,1.3,0.3c0.4,0.2,0.7,0.4,1,0.8c0.3,0.3,0.5,0.8,0.6,1.3
			c0.1,0.5,0.2,1.1,0.2,1.8c0,0.6-0.1,1.2-0.2,1.7c-0.2,0.5-0.4,1-0.7,1.3c-0.3,0.4-0.7,0.7-1.1,0.9c-0.4,0.2-0.9,0.3-1.5,0.3
			c-0.5,0-0.9-0.1-1.3-0.3c-0.4-0.2-0.7-0.4-0.9-0.7v3.6h-1.4v-10.8h0.9c0.2,0,0.3,0.1,0.4,0.3L209.5,510.2z M209.6,515
			c0.3,0.4,0.5,0.6,0.9,0.7s0.7,0.2,1,0.2c0.8,0,1.3-0.3,1.7-0.8c0.4-0.5,0.6-1.3,0.6-2.3c0-0.5,0-1-0.1-1.4
			c-0.1-0.4-0.2-0.7-0.4-0.9c-0.2-0.2-0.4-0.4-0.6-0.5c-0.3-0.1-0.5-0.2-0.9-0.2c-0.5,0-0.9,0.1-1.2,0.3s-0.7,0.5-1,0.9V515z
			 M206.3,515.9c-0.2,0.2-0.4,0.4-0.6,0.6c-0.2,0.2-0.5,0.3-0.8,0.4s-0.6,0.2-0.9,0.2s-0.6,0.1-0.9,0.1c-0.6,0-1.1-0.1-1.5-0.3
			s-0.9-0.5-1.2-0.8c-0.3-0.4-0.6-0.8-0.8-1.4c-0.2-0.5-0.3-1.2-0.3-1.9c0-0.6,0.1-1.1,0.3-1.6c0.2-0.5,0.4-0.9,0.7-1.3
			c0.3-0.4,0.7-0.6,1.2-0.8c0.5-0.2,1-0.3,1.6-0.3c0.5,0,0.9,0.1,1.3,0.2c0.4,0.2,0.8,0.4,1.1,0.7s0.5,0.7,0.7,1.1
			c0.2,0.5,0.3,1,0.3,1.5c0,0.2,0,0.4-0.1,0.4c0,0.1-0.1,0.1-0.3,0.1h-5.4c0,0.5,0.1,1,0.2,1.3c0.1,0.4,0.3,0.7,0.5,0.9
			c0.2,0.3,0.5,0.4,0.8,0.6c0.3,0.1,0.7,0.2,1,0.2c0.4,0,0.7,0,0.9-0.1c0.3-0.1,0.5-0.2,0.7-0.3c0.2-0.1,0.3-0.2,0.5-0.3
			c0.1-0.1,0.2-0.1,0.3-0.1c0.1,0,0.2,0,0.3,0.1L206.3,515.9z M205.1,512.1c0-0.3,0-0.6-0.1-0.9c-0.1-0.3-0.2-0.5-0.4-0.7
			s-0.4-0.4-0.7-0.5c-0.3-0.1-0.5-0.2-0.9-0.2c-0.7,0-1.2,0.2-1.6,0.6s-0.6,0.9-0.7,1.7H205.1z M196.3,511.3c0-0.7-0.1-1.3-0.3-1.9
			s-0.5-1-0.8-1.4c-0.4-0.4-0.8-0.7-1.3-0.9s-1.1-0.3-1.7-0.3h-2.7v9h2.7c0.6,0,1.2-0.1,1.7-0.3s0.9-0.5,1.3-0.9
			c0.4-0.4,0.6-0.8,0.8-1.4C196.2,512.6,196.3,512,196.3,511.3z M197.9,511.3c0,0.9-0.1,1.6-0.4,2.3c-0.3,0.7-0.7,1.3-1.2,1.8
			s-1.1,0.9-1.8,1.2s-1.5,0.4-2.3,0.4H188v-11.5h4.3c0.8,0,1.6,0.1,2.3,0.4s1.3,0.7,1.8,1.2s0.9,1.1,1.2,1.8
			C197.8,509.6,197.9,510.4,197.9,511.3z M181.7,515.9c-0.2,0.2-0.4,0.4-0.6,0.6c-0.2,0.2-0.5,0.3-0.8,0.4s-0.6,0.2-0.9,0.2
			c-0.3,0.1-0.6,0.1-0.9,0.1c-0.6,0-1.1-0.1-1.5-0.3s-0.9-0.5-1.2-0.8c-0.3-0.4-0.6-0.8-0.8-1.4c-0.2-0.5-0.3-1.2-0.3-1.9
			c0-0.6,0.1-1.1,0.3-1.6c0.2-0.5,0.4-0.9,0.7-1.3c0.3-0.4,0.7-0.6,1.2-0.8c0.5-0.2,1-0.3,1.6-0.3c0.5,0,0.9,0.1,1.3,0.2
			c0.4,0.2,0.8,0.4,1.1,0.7s0.5,0.7,0.7,1.1c0.2,0.5,0.3,1,0.3,1.5c0,0.2,0,0.4-0.1,0.4c0,0.1-0.1,0.1-0.3,0.1h-5.4
			c0,0.5,0.1,1,0.2,1.3c0.1,0.4,0.3,0.7,0.5,0.9c0.2,0.3,0.5,0.4,0.8,0.6c0.3,0.1,0.7,0.2,1,0.2c0.4,0,0.7,0,0.9-0.1
			c0.3-0.1,0.5-0.2,0.7-0.3c0.2-0.1,0.3-0.2,0.5-0.3c0.1-0.1,0.2-0.1,0.3-0.1c0.1,0,0.2,0,0.3,0.1L181.7,515.9z M180.5,512.1
			c0-0.3,0-0.6-0.1-0.9c-0.1-0.3-0.2-0.5-0.4-0.7c-0.2-0.2-0.4-0.4-0.7-0.5c-0.3-0.1-0.5-0.2-0.9-0.2c-0.7,0-1.2,0.2-1.6,0.6
			c-0.4,0.4-0.6,0.9-0.7,1.7H180.5z M173.3,510.3c0,0.1-0.1,0.1-0.1,0.1c0,0-0.1,0-0.2,0c-0.1,0-0.2,0-0.3-0.1
			c-0.1-0.1-0.2-0.1-0.4-0.2c-0.1-0.1-0.3-0.2-0.5-0.2c-0.2-0.1-0.5-0.1-0.8-0.1c-0.4,0-0.8,0.1-1.1,0.2s-0.6,0.3-0.8,0.6
			c-0.2,0.3-0.4,0.6-0.5,1s-0.2,0.8-0.2,1.3c0,0.5,0.1,0.9,0.2,1.3s0.3,0.7,0.5,1c0.2,0.3,0.5,0.5,0.7,0.6c0.3,0.1,0.6,0.2,1,0.2
			c0.3,0,0.6,0,0.9-0.1c0.2-0.1,0.4-0.2,0.6-0.3c0.1-0.1,0.3-0.2,0.4-0.3c0.1-0.1,0.2-0.1,0.3-0.1c0.1,0,0.2,0,0.3,0.1l0.4,0.5
			c-0.2,0.2-0.4,0.4-0.6,0.6s-0.5,0.3-0.7,0.4c-0.3,0.1-0.5,0.2-0.8,0.2c-0.3,0-0.6,0.1-0.9,0.1c-0.5,0-1-0.1-1.4-0.3
			c-0.4-0.2-0.8-0.5-1.1-0.8c-0.3-0.4-0.6-0.8-0.8-1.3c-0.2-0.5-0.3-1.1-0.3-1.8c0-0.6,0.1-1.2,0.3-1.7s0.4-1,0.7-1.3
			c0.3-0.4,0.7-0.7,1.2-0.9c0.5-0.2,1-0.3,1.6-0.3c0.6,0,1.1,0.1,1.5,0.3c0.4,0.2,0.8,0.4,1.2,0.8L173.3,510.3z M160,510.1
			c0.2-0.2,0.4-0.4,0.6-0.5c0.2-0.2,0.4-0.3,0.6-0.4c0.2-0.1,0.5-0.2,0.7-0.3c0.2-0.1,0.5-0.1,0.8-0.1c0.4,0,0.8,0.1,1.2,0.2
			s0.6,0.4,0.8,0.6s0.4,0.6,0.5,1c0.1,0.4,0.2,0.8,0.2,1.3v5.2H164v-5.2c0-0.6-0.1-1.1-0.4-1.4c-0.3-0.3-0.7-0.5-1.3-0.5
			c-0.4,0-0.8,0.1-1.2,0.3c-0.4,0.2-0.7,0.5-1,0.8v6h-1.4v-8.1h0.9c0.2,0,0.3,0.1,0.4,0.3L160,510.1z M156.8,515.9
			c-0.2,0.2-0.4,0.4-0.6,0.6c-0.2,0.2-0.5,0.3-0.8,0.4s-0.6,0.2-0.9,0.2s-0.6,0.1-0.9,0.1c-0.6,0-1.1-0.1-1.5-0.3s-0.9-0.5-1.2-0.8
			c-0.3-0.4-0.6-0.8-0.8-1.4c-0.2-0.5-0.3-1.2-0.3-1.9c0-0.6,0.1-1.1,0.3-1.6c0.2-0.5,0.4-0.9,0.7-1.3c0.3-0.4,0.7-0.6,1.2-0.8
			c0.5-0.2,1-0.3,1.6-0.3c0.5,0,0.9,0.1,1.3,0.2c0.4,0.2,0.8,0.4,1.1,0.7s0.5,0.7,0.7,1.1c0.2,0.5,0.3,1,0.3,1.5
			c0,0.2,0,0.4-0.1,0.4c0,0.1-0.1,0.1-0.3,0.1h-5.4c0,0.5,0.1,1,0.2,1.3c0.1,0.4,0.3,0.7,0.5,0.9c0.2,0.3,0.5,0.4,0.8,0.6
			c0.3,0.1,0.7,0.2,1,0.2c0.4,0,0.7,0,0.9-0.1c0.3-0.1,0.5-0.2,0.7-0.3c0.2-0.1,0.3-0.2,0.5-0.3c0.1-0.1,0.2-0.1,0.3-0.1
			c0.1,0,0.2,0,0.3,0.1L156.8,515.9z M155.7,512.1c0-0.3,0-0.6-0.1-0.9c-0.1-0.3-0.2-0.5-0.4-0.7s-0.4-0.4-0.7-0.5
			c-0.3-0.1-0.5-0.2-0.9-0.2c-0.7,0-1.2,0.2-1.6,0.6s-0.6,0.9-0.7,1.7H155.7z M148.2,506.4c0,0.1,0,0.3-0.1,0.4s-0.1,0.2-0.2,0.3
			c-0.1,0.1-0.2,0.2-0.3,0.2c-0.1,0.1-0.3,0.1-0.4,0.1s-0.3,0-0.4-0.1c-0.1-0.1-0.2-0.1-0.3-0.2s-0.2-0.2-0.2-0.3s-0.1-0.2-0.1-0.4
			s0-0.3,0.1-0.4c0.1-0.1,0.1-0.2,0.2-0.3s0.2-0.2,0.3-0.2c0.1-0.1,0.2-0.1,0.4-0.1s0.3,0,0.4,0.1c0.1,0.1,0.2,0.1,0.3,0.2
			c0.1,0.1,0.2,0.2,0.2,0.3C148.2,506.1,148.2,506.2,148.2,506.4z M147.9,508.9v8.1h-1.4v-8.1H147.9z M144.4,510.3
			c0,0.1-0.1,0.1-0.1,0.1c0,0-0.1,0-0.2,0c-0.1,0-0.2,0-0.3-0.1c-0.1-0.1-0.2-0.1-0.4-0.2c-0.1-0.1-0.3-0.2-0.5-0.2
			c-0.2-0.1-0.5-0.1-0.8-0.1c-0.4,0-0.8,0.1-1.1,0.2s-0.6,0.3-0.8,0.6c-0.2,0.3-0.4,0.6-0.5,1s-0.2,0.8-0.2,1.3
			c0,0.5,0.1,0.9,0.2,1.3s0.3,0.7,0.5,1c0.2,0.3,0.5,0.5,0.7,0.6c0.3,0.1,0.6,0.2,1,0.2c0.3,0,0.6,0,0.9-0.1
			c0.2-0.1,0.4-0.2,0.6-0.3c0.1-0.1,0.3-0.2,0.4-0.3c0.1-0.1,0.2-0.1,0.3-0.1c0.1,0,0.2,0,0.3,0.1l0.4,0.5c-0.2,0.2-0.4,0.4-0.6,0.6
			s-0.5,0.3-0.7,0.4s-0.5,0.2-0.8,0.2c-0.3,0-0.6,0.1-0.9,0.1c-0.5,0-1-0.1-1.4-0.3c-0.4-0.2-0.8-0.5-1.1-0.8
			c-0.3-0.4-0.6-0.8-0.8-1.3c-0.2-0.5-0.3-1.1-0.3-1.8c0-0.6,0.1-1.2,0.3-1.7s0.4-1,0.7-1.3c0.3-0.4,0.7-0.7,1.2-0.9
			c0.5-0.2,1-0.3,1.6-0.3c0.6,0,1.1,0.1,1.5,0.3c0.4,0.2,0.8,0.4,1.2,0.8L144.4,510.3z M136.3,507.3c0,0.1-0.1,0.1-0.2,0.2
			c-0.1,0-0.1,0.1-0.2,0.1c-0.1,0-0.2,0-0.3-0.1c-0.1-0.1-0.3-0.2-0.5-0.3c-0.2-0.1-0.4-0.2-0.7-0.3s-0.6-0.1-0.9-0.1
			c-0.3,0-0.7,0-0.9,0.1c-0.3,0.1-0.5,0.2-0.7,0.4s-0.3,0.3-0.4,0.6c-0.1,0.2-0.1,0.4-0.1,0.7c0,0.3,0.1,0.6,0.2,0.8
			s0.4,0.4,0.6,0.5s0.6,0.3,0.9,0.4c0.3,0.1,0.7,0.2,1,0.3c0.3,0.1,0.7,0.2,1,0.4s0.6,0.3,0.9,0.6c0.3,0.2,0.5,0.5,0.6,0.8
			c0.2,0.3,0.2,0.7,0.2,1.2c0,0.5-0.1,1-0.3,1.4s-0.4,0.8-0.7,1.1c-0.3,0.3-0.7,0.6-1.2,0.8c-0.5,0.2-1,0.3-1.6,0.3
			c-0.7,0-1.4-0.1-2-0.4s-1.1-0.6-1.6-1.1l0.4-0.7c0-0.1,0.1-0.1,0.2-0.1c0.1,0,0.1-0.1,0.2-0.1c0.1,0,0.1,0,0.2,0.1
			c0.1,0.1,0.2,0.1,0.3,0.2s0.2,0.2,0.4,0.3c0.1,0.1,0.3,0.2,0.5,0.3s0.4,0.2,0.6,0.2c0.2,0.1,0.5,0.1,0.8,0.1c0.4,0,0.7-0.1,1-0.2
			c0.3-0.1,0.5-0.2,0.7-0.4c0.2-0.2,0.4-0.4,0.5-0.7c0.1-0.3,0.2-0.5,0.2-0.9c0-0.3-0.1-0.6-0.2-0.9c-0.2-0.2-0.4-0.4-0.6-0.6
			c-0.3-0.1-0.5-0.3-0.9-0.4c-0.3-0.1-0.7-0.2-1-0.3c-0.3-0.1-0.7-0.2-1-0.4c-0.3-0.1-0.6-0.3-0.9-0.6c-0.3-0.2-0.5-0.5-0.6-0.9
			s-0.2-0.8-0.2-1.3c0-0.4,0.1-0.8,0.2-1.2s0.4-0.7,0.7-1c0.3-0.3,0.7-0.5,1.1-0.7s0.9-0.3,1.5-0.3c0.6,0,1.2,0.1,1.7,0.3
			s1,0.5,1.4,0.9L136.3,507.3z"/>
	</defs>
	<clipPath id="SVGID_62_">
		<use xlink:href="#SVGID_61_"  style="overflow:visible;"/>
	</clipPath>
	<g class="st30">
		<defs>
			<rect id="SVGID_63_" width="355" height="573"/>
		</defs>
		<clipPath id="SVGID_64_">
			<use xlink:href="#SVGID_63_"  style="overflow:visible;"/>
		</clipPath>
		<rect x="124.5" y="500.3" class="st31" width="183.8" height="24.4"/>
	</g>
</g>
<g>
	<defs>
		<rect id="SVGID_65_" width="355" height="572"/>
	</defs>
	<clipPath id="SVGID_66_">
		<use xlink:href="#SVGID_65_"  style="overflow:visible;"/>
	</clipPath>
	<g class="st32">
		<defs>
			<rect id="SVGID_67_" width="355" height="573"/>
		</defs>
		<clipPath id="SVGID_68_">
			<use xlink:href="#SVGID_67_"  style="overflow:visible;"/>
		</clipPath>
		<rect x="-5" y="-5" class="st33" width="365" height="582"/>
	</g>
</g>
</svg>
