<svg xmlns="http://www.w3.org/2000/svg" viewBox="0 0 98 20" width="98" height="20">
    <g fill="#4362ad">
        <path d="M14.2 18.8c0 .1 0 .3-.1.7 0 .3-.2.3-.4.2-1.2-.2-1.9-.6-2.9-1.3-.9-.7-1.7-1.3-2.9-1.3H6.8C2 17.1.3 13 .3 8.9S2.3.5 7 .5c4.8 0 6.5 4.2 6.5 8.3 0 2.9-1 6.2-3.8 7.6.9.3 1.6.9 2.4 1.3.6.3 1.1.5 1.8.6.1.2.3.2.3.5zM6.9 1.9c-3.6 0-4.9 4-4.9 7s1 7 4.8 7c3.6 0 4.9-4.1 4.9-7 0-3.1-1-7-4.8-7zM24.8 16.5c0 .3-.1.4-.4.4h-.7c-.2 0-.4-.1-.4-.4v-.8c-1.1 1-2.4 1.5-3.7 1.5-1.2 0-2.1-.3-2.6-.9-.7-.7-1.1-1.9-1.1-3.3V6c0-.3.1-.4.4-.4h.7c.2 0 .4.1.4.4v6.7c0 1.2.2 2 .7 2.6.3.4 1 .7 1.9.7 1.1 0 2.5-.8 3.3-1.6V6c0-.3.1-.4.4-.4h.7c.2 0 .4.1.4.4v10.5zM29 3.9c-.5 0-1-.4-1-.9s.5-1 1-1 1 .4 1 .9c0 .6-.4 1-1 1zm.8 12.6c0 .3-.1.4-.4.4h-.7c-.2 0-.4-.1-.4-.4V6c0-.3.1-.4.4-.4h.7c.2 0 .4.1.4.4v10.5zM41.4 16.1c0 .2 0 .3-.2.4-1 .4-2.1.6-3 .6-3.7 0-5.4-2.5-5.4-5.9 0-3.3 2-5.9 5.5-5.9 1 0 2.2.3 2.9.7.1 0 .2.1.2.2v.2l-.1.4c0 .1-.1.3-.2.3H41c-.7-.3-1.6-.6-2.6-.6-2.4 0-3.9 1.8-3.9 4.7 0 2.5 1 4.9 3.8 4.9 1 0 2.1-.3 2.7-.6.2-.1.3 0 .4.1v.5zM50 16.6l-3.8-5.5-.7.7v4.7c0 .3-.1.4-.4.4h-.7c-.2 0-.4-.1-.4-.4V.8c0-.3 0-.4.3-.4.8-.1.9-.1.9-.1.2 0 .3.1.3.4v9.5l4-4.3c.1-.1.2-.2.4-.2h1.2c.2 0 .1.1 0 .3l-3.9 4.3 4.5 6.3c.2.3.2.5-.2.5h-.9c-.2-.2-.4-.2-.6-.5zM57.8 16.9h-3.7c-.3 0-.4 0-.4-.4V1.2c0-.3.1-.4.5-.4h3c3 0 5.3 1 5.3 3.9 0 1.8-1 3.2-2.9 3.6 2.4 0 4.2 1.6 4.2 4 0 3.7-2.7 4.6-6 4.6zM57 2h-1.6v5.8h1.8c1.6 0 3.7-.4 3.7-3.1C60.9 2.4 59.1 2 57 2zm.6 7.1h-2.3v6.6h2.3c2.5 0 4.4-.7 4.4-3.3.1-2.6-2-3.3-4.4-3.3zM76.5 16.7c0 .2 0 .2-.3.2h-.9c-.9 0-1.3-.8-1.3-1.7v-.3c-.5 1.2-2.1 2.2-3.6 2.2-3.2 0-4.6-2.8-4.6-5.7 0-3.9 2.3-6.1 5-6.1 1.1 0 2.5.5 3.2 1.5v-.9c0-.3.1-.4.4-.4h.7c.2 0 .3.1.3.4v8.3c0 .6 0 1.1.1 1.3.1.2.2.3.5.3h.1c.2 0 .2 0 .2.2l.2.7c-.1 0 0 0 0 0zM74 8.5c-.6-1.3-1.9-2-3.1-2-2 0-3.5 1.8-3.5 4.9 0 3 1.5 4.5 3.1 4.5 1.7 0 3-1.4 3.5-2.8V8.5zM85.3 6c.2.1.2.1.1.2l-.2.6c0 .3-.2.2-.3.2-.6-.3-1.7-.6-2.5-.6-1.4 0-2.2.7-2.2 1.7s.6 1.4 1.7 1.9l1.7.7c1.3.6 2.5 1.5 2.5 3 0 2-1.6 3.4-4.2 3.4-1.2 0-2.4-.4-3-.7-.2-.1-.2-.1-.2-.3l.3-.7c0-.1.1-.2.2-.1.8.4 1.9.7 2.7.7 1.6 0 2.6-.8 2.6-2.1 0-1.1-.8-1.7-2-2.1l-1.4-.6c-1.4-.6-2.5-1.5-2.5-2.8 0-1.9 1.7-3 3.8-3 1-.1 1.9.1 2.9.6zM97.1 11.3h-7.5c0 2.5 1.3 4.6 4 4.6 1 0 2.3-.2 2.9-.5.2-.1.3 0 .4.1l.1.5c0 .2 0 .3-.2.4-.9.4-2.4.6-3.4.6-3.6 0-5.4-2.5-5.4-5.9 0-3.3 2-5.9 5.3-5.9 2.8 0 4.4 2.1 4.4 4.9v.4c.1.7 0 .8-.6.8zm-3.8-4.8c-2.2 0-3.4 1.8-3.7 3.8h6.6v-.5c.1-1.8-.9-3.3-2.9-3.3z"/>
    </g>
</svg>
