<svg xmlns="http://www.w3.org/2000/svg" viewBox="0 0 115 32" width="115" height="32" fill="#74489D">
    <path class="l" d="M26.3 27.5c2.8-3.1 4.8-6.7 4.8-11.5 0-8.8-7-16-15.6-16C7 .1 0 7.2 0 16c0 8.5 6.5 15.9 14.8 16h14c.2 0 .3-.2.2-.3-.1-.2-2.7-4.2-2.7-4.2zm-10.7-3.1c-4.5 0-8.2-3.8-8.2-8.4s3.7-8.4 8.2-8.4 8.2 3.8 8.2 8.4-3.7 8.4-8.2 8.4z"/>
    <path class="c" d="M39.3 31.6c-.1.2-.4.4-.6.4h-7.6c-.2 0-.3-.2-.2-.4l8-14.4c.1-.2.1-.5 0-.7l-8-15.1c-.1-.2 0-.4.2-.4h7.6c.2 0 .5.2.6.4l8 15.1c.1.2.1.5 0 .7l-8 14.4z"/>
    <path class="r" d="M44.5 30.5c0-.2 0-.4.1-.6.1-.2.2-.3.3-.5.1-.1.3-.2.5-.3.2-.1.4-.1.6-.1.2 0 .4 0 .6.1.2.1.3.2.5.3.1.1.2.3.3.5.1.2.1.4.1.6 0 .2 0 .4-.1.6-.1.2-.2.3-.3.5-.1.1-.3.2-.5.3-.2 0-.4.1-.6.1-.2 0-.4 0-.6-.1-.2-.1-.3-.2-.5-.3-.1-.1-.2-.3-.3-.5-.1-.2-.1-.4-.1-.6zm.2 0c0 .2 0 .3.1.5s.2.3.3.4c.1.1.2.2.4.3.2.1.3.1.5.1s.3 0 .5-.1.3-.2.4-.3c.1-.1.2-.3.3-.4.1-.2.1-.3.1-.5s0-.3-.1-.5-.2-.3-.3-.4c-.1-.1-.2-.2-.4-.3-.2-.1-.3-.1-.5-.1s-.3 0-.5.1-.3.2-.4.3c-.1.1-.2.2-.3.4 0 .2-.1.3-.1.5zm1.6.8l-.3-.6h-.2v.7h-.4v-1.7h.8c.1 0 .1 0 .2.1.1 0 .1.1.1.2s.1.2.1.3c0 .1 0 .2-.1.3l-.2.2.4.7h-.4zm-.3-.9c.1 0 .1 0 .2-.1 0 0 .1-.1.1-.2s0-.1-.1-.2h-.5v.4h.3z"/>
    <path class="q" d="M67.6 7.3c0-3.6-2.9-6.5-6.5-6.5s-6.5 2.9-6.5 6.5c0 3.5 2.7 6.4 6.2 6.5h6l-1.1-2c.9-.5 1.9-2.6 1.9-4.5zm-6.4 3.6c-1.9 0-3.5-1.7-3.5-3.7 0-2.1 1.6-3.7 3.5-3.7s3.5 1.7 3.5 3.7c0 2.1-1 3.7-3.5 3.7zM80.5 11.1c-.3.6-.6 1.2-1.1 1.6-.5.4-1 .8-1.7 1-.7.3-1.4.4-2.2.4-.8 0-1.5-.1-2.2-.4-.7-.3-1.2-.6-1.7-1s-.8-1-1-1.6c-.2-.6-.4-1.3-.4-2.1V1.1h3v7.6c0 .3 0 .7.1 1 .1.3.2.6.4.8.2.2.4.4.7.6.3.1.7.2 1.1.2s.8-.1 1.1-.2c.3-.1.5-.3.7-.6.2-.2.3-.5.4-.8.1-.3.1-.6.1-1V1.1h3V9c.1.8 0 1.5-.3 2.1zM84.2 13.8V1.1h3v12.7h-3zM99.4 13.6c-.8.4-1.7.6-2.8.6-1 0-1.8-.2-2.6-.5s-1.5-.8-2.1-1.4c-.6-.6-1.1-1.3-1.4-2.1-.3-.9-.5-1.8-.5-2.7 0-1 .2-1.9.5-2.8.3-.8.8-1.5 1.4-2.1.6-.6 1.3-1 2.1-1.3.8-.3 1.7-.5 2.6-.5.9 0 1.7.2 2.6.5.8.3 1.5.8 2 1.4l-2 2.1c-.3-.4-.6-.7-1.1-.9-.5-.2-.9-.3-1.4-.3-.5 0-1 .1-1.4.3-.4.2-.8.5-1.1.8-.3.3-.6.8-.7 1.2-.2.5-.3 1-.3 1.5 0 .6.1 1.1.3 1.6.2.5.4.9.7 1.2.3.3.7.6 1.1.8.4.2.9.3 1.4.3.6 0 1.1-.1 1.6-.4.4-.2.8-.5 1.1-.9l2.1 2c-.6.7-1.3 1.2-2.1 1.6zM111.1 13.8L106.5 8v5.8h-2.9V1.1h2.9v5.1h.1l4.4-5.1h3.7L109.4 7l5.6 6.8h-3.9z"/>
    <path class="b" d="M56.4 19h3.7c.5 0 .9.1 1.4.2.5.1.9.3 1.3.5s.7.6.9 1c.2.4.4.9.4 1.6 0 .7-.2 1.2-.6 1.7s-.9.8-1.6 1c.8.1 1.5.4 2 1 .5.5.8 1.3.8 2.2 0 .5-.1 1-.3 1.4-.2.4-.5.8-.9 1.1-.5.3-1 .6-1.5.7-.6.2-1.2.3-1.9.3h-3.7V19zm1.2 5.6h2.5c.3 0 .6 0 .9-.1.3-.1.6-.2.8-.4.3-.2.5-.4.6-.7.2-.3.2-.6.2-1.1 0-.4-.1-.7-.2-1-.2-.3-.4-.5-.6-.7-.3-.2-.6-.3-.9-.4-.4-.1-.7-.1-1.2-.1h-2.2v4.5zm0 6H60c.5 0 .9 0 1.3-.1s.8-.2 1.1-.4c.3-.2.6-.5.7-.8.2-.3.3-.7.3-1.1 0-.8-.3-1.5-.8-1.9-.6-.4-1.3-.6-2.3-.6h-2.6v4.9zM67.1 31.7h-1.4L71.1 19h1.2l5.3 12.7h-1.4l-1.4-3.3h-6.4l-1.3 3.3zm1.8-4.5h5.4l-2.7-6.7-2.7 6.7zM85.8 21.1c-.3-.4-.6-.7-1-.9-.4-.2-.9-.3-1.5-.3-.3 0-.6 0-.9.1-.3.1-.6.2-.9.4s-.5.4-.6.7c-.2.3-.2.6-.2 1.1 0 .4.1.7.2 1 .2.3.4.5.6.7.2.2.5.3.9.5s.7.2 1 .4c.4.1.9.3 1.3.5s.8.4 1.2.7c.3.3.6.6.9 1 .2.4.3.9.3 1.6 0 .6-.1 1.2-.4 1.6-.2.5-.5.8-.9 1.1-.4.3-.8.5-1.3.7-.5-.1-1 0-1.5 0-.4 0-.7 0-1.1-.1-.4-.1-.7-.2-1.1-.3-.3-.2-.7-.4-.9-.6-.3-.2-.5-.5-.8-.8l1.1-.8c.3.5.6.8 1.1 1.1.5.3 1 .5 1.7.5.3 0 .6-.1 1-.2.3-.1.6-.3.9-.5.3-.2.5-.5.6-.8.2-.3.3-.7.3-1.1 0-.4-.1-.8-.3-1.1-.2-.3-.4-.5-.7-.7s-.6-.4-1-.5c-.4-.1-.7-.3-1.1-.4-.4-.1-.8-.3-1.2-.4s-.7-.4-1.1-.7c-.3-.3-.6-.6-.8-1-.2-.4-.3-.9-.3-1.4 0-.6.1-1.1.4-1.6.2-.4.5-.8.9-1.1.4-.3.8-.5 1.3-.6.5-.1.9-.2 1.4-.2.8 0 1.6.2 2.1.5.6.3 1 .7 1.3 1.1l-.9.8zM91.4 30.5H98v1.1h-7.9V19h7.7v1.1h-6.4v4.3h6v1.1h-6v5z"/>
</svg>
