<svg xmlns="http://www.w3.org/2000/svg" viewBox="0 0 115 32" width="115" height="32" fill="#744A9D">
    <path d="M39.5 31.2c-.1.2-.4.3-.6.3h-7.6c-.2 0-.3-.2-.2-.3l8-14.1c.1-.2.1-.5 0-.7l-8-14.7c-.1-.2 0-.3.2-.3h7.6c.2 0 .5.2.6.3l8 14.7c.1.2.1.5 0 .7l-8 14.1z"/>
    <path d="M26.6 27.2c2.8-3 4.8-6.6 4.8-11.2 0-8.6-7-15.6-15.6-15.6S.2 7.4.2 16c0 8.3 6.5 15.5 14.8 15.6h14c.2 0 .3-.2.2-.3-.1-.2-2.6-4.1-2.6-4.1zm-10.8-3c-4.5 0-8.2-3.7-8.2-8.2s3.7-8.2 8.2-8.2S24 11.5 24 16s-3.7 8.2-8.2 8.2zM80.3 11.2c-.3.6-.6 1.1-1.1 1.6-.5.4-1 .8-1.7 1-.7.2-1.4.4-2.2.4-.8 0-1.5-.1-2.2-.4-.7-.2-1.2-.6-1.7-1s-.8-1-1-1.6c-.2-.6-.4-1.3-.4-2V1.5h3v7.4c0 .3 0 .7.1 1 .1.3.2.6.4.8.2.2.4.4.7.6.3.1.7.2 1.1.2s.8-.1 1.1-.2c.3-.1.5-.3.7-.6.2-.2.3-.5.4-.8.1-.3.1-.6.1-1V1.5h3v7.7c.1.7-.1 1.4-.3 2zM83.9 13.8V1.5h3v12.3h-3zM99.2 13.6c-.8.4-1.7.5-2.8.5-1 0-1.8-.2-2.6-.5s-1.5-.8-2.1-1.3c-.6-.6-1.1-1.3-1.4-2.1-.3-.8-.5-1.7-.5-2.7 0-1 .2-1.9.5-2.7.3-.8.8-1.5 1.4-2 .6-.6 1.3-1 2.1-1.3.8-.3 1.7-.5 2.6-.5.9 0 1.7.2 2.6.5.8.3 1.5.8 2 1.4l-2 2c-.3-.4-.6-.7-1.1-.9-.5-.2-.9-.3-1.4-.3-.5 0-1 .1-1.4.3-.4.2-.8.5-1.1.8-.3.3-.6.7-.7 1.2-.2.5-.3 1-.3 1.5 0 .6.1 1.1.3 1.5.2.5.4.9.7 1.2.3.3.7.6 1.1.8.4.2.9.3 1.4.3.6 0 1.1-.1 1.6-.3.4-.2.8-.5 1.1-.9l2.1 2c-.6.7-1.3 1.2-2.1 1.5zM110.9 13.8l-4.6-5.7v5.7h-2.9V1.5h2.9v5h.1l4.4-5h3.7l-5.3 5.7 5.6 6.7h-3.9zM67.4 7.4c0-3.5-2.9-6.4-6.5-6.4s-6.5 2.9-6.5 6.4c0 3.4 2.7 6.2 6.2 6.4h6l-1.1-1.9c.9-.5 1.9-2.5 1.9-4.5zM61 11c-1.9 0-3.5-1.6-3.5-3.6s1.6-3.6 3.5-3.6 3.5 1.6 3.5 3.6-1 3.6-3.5 3.6zM56.2 18.9h3.7c.5 0 .9 0 1.4.1.5.1.9.3 1.3.5s.7.6.9 1c.2.4.4.9.4 1.5 0 .7-.2 1.2-.6 1.7-.4.5-.9.8-1.6 1 .8.1 1.5.4 2 .9s.8 1.2.8 2.2c0 .5-.1 1-.3 1.4-.2.4-.5.8-.9 1.1-.4.3-.9.5-1.4.7-.6.2-1.2.2-1.9.2h-3.7V18.9zm1.2 5.4H60c.3 0 .6 0 .9-.1.3-.1.6-.2.8-.4.3-.2.5-.4.6-.7.2-.3.2-.6.2-1s-.1-.7-.2-1c-.2-.3-.4-.5-.6-.7-.3-.2-.6-.3-.9-.4H57.4v4.3zm0 5.9h2.3c.5 0 .9 0 1.3-.1s.8-.2 1.1-.4c.3-.2.6-.4.7-.7.2-.3.3-.7.3-1.1 0-.8-.3-1.4-.8-1.8-.6-.4-1.3-.6-2.3-.6h-2.6v4.7zM66.9 31.3h-1.4L70.8 19H72l5.3 12.3H76L74.6 28h-6.4l-1.3 3.3zm1.8-4.4h5.4l-2.7-6.6-2.7 6.6zM85.6 20.9c-.3-.4-.6-.7-1-.9-.4-.2-.9-.3-1.5-.3-.3 0-.6 0-.9.1-.3.1-.6.2-.9.4-.3.2-.5.4-.6.7-.2.3-.2.6-.2 1s.1.7.2 1c.2.3.4.5.6.7.2.2.5.3.9.4.3.1.7.2 1 .3.4.1.9.3 1.3.5l1.2.6c.3.3.6.6.9 1 .2.4.3.9.3 1.5s-.1 1.1-.4 1.6c-.2.4-.5.8-.9 1.1-.4.3-.8.5-1.3.6-.5.1-1 .2-1.5.2-.4 0-.7 0-1.1-.1-.4-.1-.7-.2-1.1-.3-.3-.2-.7-.3-.9-.6-.3-.2-.5-.5-.8-.8L80 29c.3.4.6.8 1.1 1.1.5.3 1 .4 1.7.4.3 0 .6 0 1-.1.3-.1.6-.2.9-.5.3-.2.5-.5.6-.7.2-.3.3-.6.3-1s-.1-.8-.3-1.1c-.2-.3-.4-.5-.7-.7-.3-.2-.6-.4-1-.5-.4-.1-.7-.3-1.1-.4-.4-.1-.8-.3-1.2-.4-.4-.2-.7-.4-1.1-.6-.3-.3-.6-.6-.8-1-.2-.4-.3-.9-.3-1.4 0-.6.1-1.1.4-1.5.2-.4.5-.8.9-1.1.4-.3.8-.5 1.3-.6.5-.1.9-.2 1.4-.2.8 0 1.6.1 2.1.4.6.3 1 .6 1.3 1.1l-.9.7zM91.2 30.2h6.6v1.1h-7.9V18.9h7.7V20h-6.4v4.2h6v1.1h-6v4.9zM45.8 30.5h-.4v1.1h-.3v-1.1h-.4v-.2h1.1v.2zm1.8 1.1h-.3v-1l-.4 1h-.2l-.4-1v1H46v-1.4h.4l.4 1 .4-1h.4v1.4z"/>
</svg>
