<svg xmlns="http://www.w3.org/2000/svg" viewBox="0 0 199.5 40.3">
    <path fill="#4161ad" d="M28.7 38c0 .3-.1.7-.3 1.5-.1.6-.4.6-.9.5-2.5-.5-3.9-1.2-5.9-2.6-1.9-1.4-3.4-2.7-5.9-2.7-.7 0-1.4.1-2.2.1C3.7 34.8.3 26.4.3 18 .3 9.7 4.4.8 14 .8c9.7 0 13.2 8.6 13.2 16.9 0 6-2 12.6-7.7 15.6 1.8.6 3.2 1.8 4.9 2.7 1.2.7 2.2 1 3.6 1.3.3.1.7.2.7.7zM13.9 3.5c-7.4 0-10 8.3-10 14.3C3.9 24 6 32 13.7 32c7.4 0 10-8.3 10-14.3-.1-6.2-2.1-14.2-9.8-14.2zM50.4 33.4c0 .6-.2.9-.8.9h-1.5c-.5 0-.8-.3-.8-.9v-1.7c-2.2 2-4.8 3-7.6 3-2.4 0-4.2-.7-5.4-1.9-1.5-1.5-2.2-3.9-2.2-6.8V12c0-.6.2-.9.8-.9h1.5c.5 0 .8.3.8.9v13.6c0 2.4.4 4.1 1.4 5.3.7.8 2.1 1.4 3.9 1.4 2.3 0 5.2-1.6 6.8-3.2V12c0-.6.2-.9.8-.9h1.5c.5 0 .8.3.8.9v21.4zM59 7.6c-1.1 0-2-.8-2-1.9 0-1.1.9-1.9 2-1.9s2 .8 2 1.9c.1 1.1-.8 1.9-2 1.9zm1.6 25.8c0 .6-.2.9-.8.9h-1.5c-.5 0-.8-.3-.8-.9V12c0-.6.2-.9.8-.9h1.5c.5 0 .8.3.8.9v21.4zM84.2 32.5c.1.4 0 .7-.4.9-2 .9-4.2 1.3-6.2 1.3-7.6 0-11-5.1-11-12.1 0-6.8 4.1-12 11.2-12 2 0 4.5.6 6 1.4.3.1.4.3.4.5 0 .1 0 .2-.1.4l-.3.9c-.1.3-.2.6-.4.6-.1 0-.2 0-.3-.1-1.5-.7-3.3-1.3-5.3-1.3-4.8 0-8 3.7-8 9.5 0 5.1 2.1 9.9 7.8 9.9 2.1 0 4.3-.6 5.6-1.2.4-.2.7-.1.8.3l.2 1zM101.9 33.6l-7.8-11.2-1.4 1.4v9.6c0 .6-.2.9-.8.9h-1.5c-.5 0-.8-.3-.8-.9V1.3c0-.6.1-.8.6-.9C91.9.2 92 .2 92.1.2c.4 0 .6.3.6.8v19.4h.1l8.1-8.8c.3-.3.5-.5.9-.5h2.4c.5 0 .3.3.1.6l-8 8.7 9.1 12.9c.4.6.4 1-.4 1h-1.8c-.6 0-1-.2-1.3-.7zM117.8 34.3h-7.5c-.7 0-.9-.1-.9-.8V2.1c0-.7.2-.9 1.1-.9h6.1c6.1 0 10.8 2.1 10.8 8 0 3.6-2.1 6.6-6 7.4 4.8.1 8.5 3.2 8.5 8.2 0 7.5-5.5 9.5-12.1 9.5zm-1.7-30.5h-3.3v11.8h3.7c3.3 0 7.5-.8 7.5-6.4 0-4.6-3.7-5.4-7.9-5.4zm1.3 14.5h-4.6v13.4h4.6c5.2 0 9-1.4 9-6.7 0-5.2-4.1-6.7-9-6.7zM155.8 33.8c0 .4-.1.5-.6.5h-1.8c-1.9 0-2.7-1.6-2.7-3.5v-.6c-1 2.4-4.2 4.5-7.4 4.5-6.5 0-9.4-5.7-9.4-11.6 0-7.9 4.6-12.5 10.2-12.5 2.3 0 5 1 6.6 3v-1.8c0-.6.3-.8.9-.8h1.4c.5 0 .7.3.7.9v16.9c0 1.3 0 2.3.2 2.6.2.4.5.6 1 .6h.3c.4 0 .5.1.5.5v1.3h.1zm-5.1-16.7c-1.2-2.6-3.9-4-6.4-4-4.1 0-7.2 3.7-7.2 9.9 0 6.1 3 9.2 6.4 9.2 3.5 0 6.2-2.9 7.1-5.8l.1-9.3zM173.9 11.9c.4.2.4.3.3.5l-.5 1.3c-.1.5-.4.4-.7.3-1.3-.6-3.4-1.2-5-1.2-2.8 0-4.5 1.5-4.5 3.5s1.2 2.9 3.4 3.8l3.4 1.4c2.7 1.2 5 3.1 5 6.1 0 4-3.3 7-8.5 7-2.4 0-4.9-.8-6.1-1.4-.4-.2-.5-.3-.4-.7l.6-1.5c.1-.3.2-.4.5-.2 1.6.8 3.9 1.4 5.5 1.4 3.2 0 5.3-1.6 5.3-4.2 0-2.2-1.6-3.4-4-4.3l-2.9-1.2c-2.9-1.2-5-3-5-5.8 0-3.9 3.5-6.2 7.7-6.2 2 .1 3.8.4 5.9 1.4zM197.9 22.8h-15.2c0 5.1 2.6 9.3 8.1 9.3 2.1 0 4.6-.5 6-1.1.4-.2.7-.1.8.3l.2 1.1c.1.4 0 .7-.4.9-1.9.9-4.9 1.3-6.9 1.3-7.4 0-11-5-11-12.1 0-6.7 4.1-12 10.8-12 5.7 0 8.9 4.3 8.9 10v.9c.1 1.1-.1 1.4-1.3 1.4zm-7.7-9.8c-4.5 0-7 3.7-7.5 7.7h13.4v-1c.1-3.7-1.8-6.7-5.9-6.7z"/>
</svg>
